<svg width="120" height="120" viewBox="0 0 120 120" fill="none" xmlns="http://www.w3.org/2000/svg">
<path d="M113.493 37.4628C112.133 41.7628 114.783 44.6028 117.333 47.3128C119.203 49.3028 119.753 51.2828 118.393 53.6428C116.033 57.7528 115.993 61.7828 118.363 65.9228C119.573 68.0428 119.603 70.1028 117.563 71.9428C113.983 75.1728 112.533 79.1828 113.553 83.9828C114.143 86.7528 112.953 88.5228 110.503 89.6128C106.273 91.4828 104.063 94.7328 103.593 99.3328C103.323 101.933 101.783 103.693 99.113 103.933C94.343 104.373 91.123 106.813 89.163 111.093C88.103 113.413 86.423 114.473 83.813 113.953C79.093 113.013 75.003 114.203 71.773 117.873C70.023 119.863 68.003 120.073 65.803 118.823C61.723 116.513 57.713 116.263 53.573 118.733C51.323 120.073 49.133 119.893 47.283 117.763C44.153 114.153 40.183 113.063 35.573 113.923C33.113 114.383 31.223 113.743 30.123 111.263C28.153 106.843 24.853 104.273 19.913 103.873C17.383 103.663 15.843 102.013 15.633 99.5228C15.203 94.5728 12.623 91.2828 8.23304 89.3028C5.96304 88.2828 5.18304 86.6028 5.61304 84.1928C6.43304 79.5028 5.55304 75.3128 1.77304 72.0928C-0.396962 70.2428 -0.426962 68.0328 0.883038 65.7728C3.19304 61.7628 3.21304 57.8528 0.893038 53.8328C-0.396962 51.5928 -0.416962 49.3928 1.74304 47.5028C5.32304 44.3728 6.55304 40.4028 5.61304 35.7928C5.01304 32.8428 6.29304 31.0528 8.82304 29.8828C12.853 28.0228 15.143 24.9628 15.533 20.4528C15.773 17.6428 17.393 15.8828 20.243 15.6328C24.883 15.2228 28.033 12.8628 29.903 8.66277C31.003 6.18277 32.803 5.12277 35.543 5.65277C40.123 6.54277 44.123 5.47277 47.253 1.85277C49.083 -0.267232 51.253 -0.497232 53.543 0.842768C57.663 3.26277 61.683 3.12277 65.773 0.792768C67.953 -0.447232 69.983 -0.297232 71.753 1.70277C74.983 5.35277 79.043 6.61277 83.783 5.65277C86.363 5.13277 88.073 6.13277 89.143 8.47277C91.093 12.7428 94.293 15.2428 99.073 15.6528C101.973 15.9028 103.253 17.9028 103.673 20.5928C104.253 24.2728 105.393 27.5328 109.223 29.1428C112.893 30.6828 114.673 33.3328 113.483 37.4528L113.493 37.4628Z" fill="black"/>
<path d="M22.2331 19.2928C27.1731 18.3628 30.8231 15.7728 32.8131 11.0528C33.5631 9.28277 35.0431 9.22277 36.5531 9.47277C41.2731 10.2428 45.3731 9.23277 48.6531 5.55277C50.1231 3.90277 51.7831 3.87277 53.6431 4.97277C57.6131 7.31277 61.6631 7.22277 65.6031 4.94277C67.5231 3.83277 69.1531 4.00277 70.5931 5.61277C73.7731 9.19277 77.7531 10.2628 82.3331 9.46277C84.4331 9.09277 85.9531 9.73277 86.8131 11.7628C88.7431 16.3228 92.4331 18.4928 97.1231 19.1028C99.0631 19.3528 99.8931 20.2128 100.143 22.1528C100.753 26.8628 102.923 30.5528 107.473 32.4828C109.503 33.3528 110.123 34.8828 109.763 36.9828C108.963 41.5828 110.043 45.5728 113.613 48.7628C115.223 50.2028 115.393 51.8428 114.283 53.7628C112.003 57.7228 111.893 61.7928 114.253 65.7628C115.493 67.8528 115.123 69.6128 113.433 71.0728C109.853 74.1728 109.153 78.1128 109.733 82.5428C109.943 84.1328 110.163 85.8328 108.183 86.6728C103.473 88.6628 100.903 92.3428 99.9731 97.2828C96.9931 100.533 88.0431 102.583 84.8431 100.763C84.8931 98.8128 86.5531 98.1328 87.7831 97.1828C105.433 83.4628 111.193 60.6328 102.103 40.1928C100.993 37.7128 100.013 35.0528 97.0931 34.0028C95.7831 33.2228 95.0431 31.9728 94.3531 30.6728C93.6631 26.3828 92.7431 25.4528 88.5631 24.8328C87.2131 24.1928 85.9531 23.4228 85.1531 22.0928C84.3631 19.9228 82.5731 18.8428 80.6531 17.8628C60.8731 7.78277 36.5131 13.1728 22.8231 30.6428C21.7931 31.9528 21.0931 33.7728 18.9931 33.8528C18.3631 33.6128 17.8131 33.0928 17.8731 32.5128C18.3731 27.8028 18.6331 22.9828 22.2431 19.2928H22.2331Z" fill="#F8B948"/>
<path d="M22.2331 19.2927C20.1831 22.8927 19.6931 26.9927 18.5931 30.9027C18.3431 31.8127 18.2631 32.9027 19.2831 33.5827C20.2731 35.2627 18.9331 36.4127 18.2931 37.6627C10.2731 53.3727 10.8431 68.8727 19.5231 84.0927C20.9631 86.6127 22.2331 89.5727 25.7031 90.0927C27.4131 90.8227 28.6331 92.0327 29.3631 93.7527C29.5831 95.9927 31.1331 97.2127 32.8331 98.3227C48.2631 108.443 64.3131 109.383 80.9631 101.603C82.2231 101.013 83.3331 99.6627 85.0131 100.453C90.4431 101.493 95.1731 99.2627 99.9631 97.2727C100.113 99.0127 99.5731 100.143 97.6231 100.363C92.4431 100.933 88.5831 103.413 86.4831 108.333C85.7731 110.003 84.4731 110.393 82.8431 110.143C78.0431 109.403 73.7731 110.293 70.4031 114.123C69.0631 115.653 67.4931 115.713 65.7331 114.693C61.6531 112.353 57.4831 112.343 53.4231 114.723C51.4231 115.893 49.8131 115.393 48.4531 113.873C45.3431 110.393 41.4931 109.353 37.0431 110.123C34.8031 110.513 33.1331 109.863 32.2531 107.693C30.4231 103.183 26.7831 101.153 22.2431 100.533C20.1731 100.253 19.2531 99.3427 18.9731 97.2627C18.3431 92.7227 16.3631 89.0527 11.8531 87.2127C9.69306 86.3327 9.03306 84.6627 9.41306 82.4127C10.1831 77.9527 9.17306 74.0627 5.67306 70.9727C3.94306 69.4427 3.79306 67.6627 4.96306 65.6327C7.18306 61.7827 7.22306 57.8327 4.97306 53.9927C3.68306 51.7827 4.08306 49.9227 5.86306 48.3527C9.28306 45.3227 10.0631 41.5327 9.42306 37.2127C9.13306 35.2727 9.27306 33.5027 11.4931 32.5927C16.2031 30.6627 18.4431 26.8727 19.0531 22.0027C19.3031 20.0227 20.1731 19.0427 22.2031 19.2827L22.2331 19.2927Z" fill="#F8B948"/>
<path d="M28.8629 93.5026C27.6329 92.7626 26.6229 91.8026 25.9529 90.5226C18.9129 81.4126 14.4529 71.3726 14.4929 59.5926C14.5729 39.1626 28.3129 21.3626 48.0529 16.1026C59.7029 13.0026 70.7329 14.6126 81.2629 20.2126C82.6929 20.9726 84.2129 21.5426 85.6429 22.2726C86.8229 22.9126 88.2229 23.2526 88.7929 24.6926C90.3629 26.9426 92.2629 28.8526 94.4829 30.4426C95.9329 30.9726 96.3029 32.3726 96.9529 33.5526C100.023 39.8226 102.973 46.1026 104.113 53.1326C107.903 76.4926 91.0929 100.153 67.8829 104.223C55.4529 106.403 44.1729 103.773 33.7929 96.8326C32.1429 95.7326 30.2929 94.9126 28.8529 93.5026H28.8629Z" fill="white"/>
<path d="M85.6431 22.2727C84.0531 23.3027 82.8331 22.2427 81.5631 21.5327C56.3631 7.46274 26.1531 19.3327 17.4731 46.9427C13.0331 61.0827 15.7231 74.2427 24.2831 86.2427C25.2031 87.5327 26.5931 88.6227 25.9531 90.5227C23.8831 92.2227 22.9031 90.5527 21.8031 89.1827C10.1031 74.5027 8.43313 52.8727 17.7531 36.5327C18.3031 35.5727 18.7831 34.5727 19.2931 33.5927C27.7231 21.6727 38.9331 14.2027 53.5031 12.2227C64.5831 10.7127 74.8631 13.1827 84.4531 18.8527C85.9231 19.7227 86.1831 20.8127 85.6631 22.2827L85.6431 22.2727Z" fill="#010100"/>
<path d="M28.8632 93.5026C30.5832 92.8126 31.6432 93.9926 32.8332 94.8826C59.7532 115.173 97.6531 99.7426 103.033 66.4026C104.673 56.2126 102.573 46.8826 97.8332 37.9426C97.1132 36.5926 95.7032 35.3226 96.9732 33.5526C99.5332 32.4426 100.223 34.5426 101.113 36.0826C112.633 56.1026 107.753 82.3126 89.7932 96.8526C88.2532 98.1026 86.6232 99.2526 85.0332 100.453C66.2132 111.013 47.9432 110.383 30.3032 97.6626C28.8732 96.6326 27.2532 95.6126 28.8732 93.4926L28.8632 93.5026Z" fill="#010100"/>
<path d="M94.4927 30.4427C91.0327 30.0827 89.1327 28.1627 88.8027 24.6927C90.9327 23.0927 92.1327 24.6827 93.5027 25.9827C94.8827 27.2927 95.8727 28.5727 94.4927 30.4527V30.4427Z" fill="#0D0B05"/>
<path d="M56.6028 83.9126C61.8628 88.4726 68.2928 90.1726 74.9228 91.2226C76.4628 91.4726 78.1728 91.4626 78.6128 93.0926C79.1228 94.9826 77.2728 95.5826 75.9828 96.1426C63.1428 101.703 50.6128 101.033 38.6328 93.7526C15.8328 79.8826 13.2228 47.2126 33.4128 29.5326C34.7328 28.3726 36.3628 26.1826 38.0328 27.2926C39.8528 28.4926 38.2128 30.7526 37.6728 32.4226C36.2728 36.7226 35.6828 41.1026 35.6928 45.6026C31.3028 47.6626 30.5828 51.3126 30.7528 55.7826C31.0428 63.3926 30.7828 71.0226 30.8528 78.6426C30.8928 83.4226 32.0928 84.6926 36.7628 84.8726C40.7328 85.0226 44.6328 85.0426 48.4828 83.3726C51.0228 82.2726 54.0328 81.8826 56.6128 83.9226L56.6028 83.9126Z" fill="white"/>
<path d="M56.6031 83.9126C53.2031 83.7926 50.0231 84.0826 46.6031 85.1926C42.2331 86.6126 37.2831 85.9426 32.6031 85.3926C30.5831 85.1526 29.7831 83.4326 29.7831 81.5526C29.7431 71.1126 29.7431 60.6626 29.7631 50.2226C29.7631 46.2126 32.7931 45.9626 35.6831 45.5926C39.3631 46.2326 43.1331 45.2826 46.8131 46.1226C47.2031 46.2126 47.8631 45.9726 48.1131 45.6526C50.8031 42.2726 54.9931 41.3626 58.4331 39.2126C60.9631 37.6326 63.2631 35.7926 63.9831 32.5326C64.8831 28.4026 68.6531 25.9526 72.2031 26.9526C75.9331 27.9926 78.2431 32.1726 77.2831 36.1326C76.4631 39.5326 74.5931 42.4426 72.3331 45.7926C76.4531 45.7926 80.0231 45.6826 83.5731 45.8126C90.5831 46.0726 93.4431 51.5226 89.5731 57.3426C88.8331 58.4626 88.8031 59.2326 89.1931 60.3826C89.8031 62.1526 89.4031 63.9426 88.1531 65.2626C87.0531 66.4126 87.3031 67.5326 87.2231 68.9026C87.0131 72.9626 85.1731 76.7126 84.4131 80.7326C83.9331 83.2326 80.8931 83.8226 78.2131 83.8126C71.0031 83.7826 63.7931 83.8726 56.5931 83.9126H56.6031Z" fill="#010000"/>
<path d="M77.5127 74.0227C77.8827 76.2027 81.6927 74.8927 81.3427 77.8127C80.1027 78.8527 78.6027 78.8827 77.1027 78.8827C70.8827 78.8827 64.6727 78.9327 58.4527 78.8727C53.7527 78.8227 52.6327 77.7727 52.5627 73.1927C52.4527 66.7127 52.5627 60.2227 52.5227 53.7327C52.5027 50.7427 53.7527 48.8327 56.5227 47.6727C62.8127 45.0527 67.2927 40.6427 69.5327 34.0727C69.9627 32.8027 70.3727 31.3827 72.1227 31.2827C74.0227 32.5427 74.0027 34.2027 73.3727 36.1827C72.1927 39.8627 69.9727 42.8027 67.1927 45.3727C66.2727 46.2227 65.0627 46.9727 65.6427 48.4327C66.2227 49.9227 67.7127 49.5627 68.8927 49.5727C73.7527 49.6127 78.6027 49.5127 83.4627 49.6227C86.0327 49.6827 88.2627 50.3627 87.2727 53.8227C84.3527 55.8327 80.6627 53.7827 77.3727 55.6627C78.8527 57.1327 81.6727 56.3927 81.9827 58.9427C82.8127 59.8927 84.4827 59.3127 85.0827 60.6727C85.6527 62.8927 83.9127 62.7227 82.6727 62.9227C80.9827 63.2027 79.2027 62.7727 77.5227 63.4327C77.5227 65.0327 79.1927 64.8627 79.6927 65.8027C79.7027 68.3227 83.4627 67.0427 83.4727 69.5627C82.4027 70.6327 81.0127 70.4227 79.7127 70.4727C77.1727 70.5727 76.5127 71.7627 77.5227 74.0227H77.5127Z" fill="#FEFEFE"/>
<path d="M72.1131 31.2726C70.4131 32.2226 70.7831 34.1326 70.2231 35.5826C67.7031 42.0426 63.0331 46.2926 56.7531 48.7326C54.4131 49.6426 53.5031 50.7926 53.5631 53.3526C53.7331 60.2126 53.7231 67.0726 53.5731 73.9326C53.5131 76.8526 54.5331 77.9026 57.4631 77.8526C65.4131 77.7126 73.3731 77.8126 81.3331 77.8126C81.4731 79.7726 80.1531 80.0326 78.7031 80.0426C69.6631 80.0626 60.6131 80.0026 51.5731 80.0926C49.6431 80.1126 49.3531 79.2726 49.3831 77.6426C49.4531 72.9226 49.4031 68.1926 49.4131 63.4726C49.4131 61.9426 49.4431 60.4326 47.6431 59.7826C46.5631 58.5126 46.4631 57.1026 47.0231 55.5926C48.7331 55.6126 49.6131 54.7126 49.3731 53.0626C48.7431 48.6826 51.8831 46.6526 54.8631 45.2426C60.8331 42.4326 66.3331 39.5826 68.0031 32.3426C68.3731 30.7226 70.2431 29.7126 72.1131 31.2826V31.2726Z" fill="white"/>
<path d="M47.0131 55.5827C47.8631 56.8827 47.6131 58.3527 47.6331 59.7727C45.7331 60.4527 45.6331 62.0127 45.6331 63.7127C45.6131 68.4127 45.5131 73.1127 45.4431 77.8127C44.1931 78.8227 42.8331 78.8927 41.3831 78.3427C40.3531 76.5827 39.3531 74.7827 37.4931 73.7127C36.0131 66.5427 36.8531 59.3227 36.9731 52.1227C37.0031 50.5927 37.8631 49.5627 39.6231 49.7027C41.4731 49.8527 43.3431 49.4127 45.1731 49.9727C46.3931 51.6427 44.6531 54.2827 47.0031 55.5927L47.0131 55.5827Z" fill="#FDFDFD"/>
<path d="M45.193 49.9627C37.893 50.4227 37.763 50.4327 37.943 57.9327C38.073 63.3227 37.153 68.7527 38.523 74.1027C39.073 75.4027 39.463 76.7927 40.673 77.6827C42.263 77.7227 43.863 77.7627 45.453 77.8027C46.433 81.1227 45.193 82.0927 41.813 82.0127C33.493 81.8127 33.483 81.9627 33.483 73.7127C33.483 66.8627 33.653 60.0027 33.403 53.1627C33.293 50.0927 34.313 49.2227 37.153 49.5427C39.813 49.8427 42.543 49.0427 45.193 49.9627Z" fill="white"/>
<path d="M81.9629 58.9427C80.9829 57.8627 79.8029 57.4027 78.3229 57.5727C77.1129 57.7127 75.9029 57.4127 75.8129 56.0027C75.7029 54.4227 76.9629 53.8927 78.2929 53.8627C81.2729 53.7927 84.2629 53.8327 87.2529 53.8327C86.8529 55.6227 85.4229 55.9027 83.9529 55.9627C81.8729 56.0527 81.6629 57.3027 81.9729 58.9427H81.9629Z" fill="white"/>
<path d="M79.673 65.8026C78.933 65.7626 78.153 65.8526 77.473 65.6426C76.523 65.3426 75.593 64.7826 75.793 63.5626C75.993 62.4126 76.863 62.0126 77.983 62.0326C79.463 62.0526 80.943 62.0326 82.413 62.0326C83.523 62.0326 84.703 62.1726 85.053 60.6826C86.483 62.9826 84.953 63.6726 83.143 64.0026C81.763 64.2526 80.103 63.7926 79.663 65.8126L79.673 65.8026Z" fill="white"/>
<path d="M77.5131 74.0228C76.4931 73.3728 75.1331 72.7928 75.6931 71.2828C76.1531 70.0628 77.3231 69.5428 78.6831 69.5728C80.2731 69.6028 81.8631 69.5728 83.4531 69.5728C83.7731 71.8128 82.2131 71.8728 80.7331 71.8128C79.0431 71.7428 77.9931 72.4328 77.5031 74.0328L77.5131 74.0228Z" fill="white"/>
<path d="M40.6629 77.6827C37.7029 77.8427 37.1229 76.5627 38.5129 74.1027C41.6429 73.8427 42.2929 75.0727 40.6629 77.6827Z" fill="#171716"/>
</svg>
