<svg width="75" height="60" viewBox="0 0 75 60" fill="none" xmlns="http://www.w3.org/2000/svg">
<path d="M22.6908 42.9474L20.6529 45.3192L20.5904 45.0093C20.4654 44.3894 20.3403 43.7142 20.2153 43.0026C19.8291 40.0803 19.007 37.2589 17.7861 34.6661C17.317 33.807 16.6684 33.1004 15.9009 32.6123C15.1335 32.1242 14.2722 31.8705 13.3977 31.8751H13.3502L1.22275 31.8562C1.06217 31.8562 0.903171 31.8193 0.754821 31.7478C0.606471 31.6763 0.471676 31.5715 0.358134 31.4393C0.244591 31.3072 0.154525 31.1503 0.0930759 30.9776C0.0316272 30.805 0 30.6199 0 30.433C0 30.2461 0.0316272 30.0611 0.0930759 29.8884C0.154525 29.7157 0.244591 29.5589 0.358134 29.4267C0.471676 29.2946 0.606471 29.1897 0.754821 29.1182C0.903171 29.0467 1.06217 29.0099 1.22275 29.0099L13.4014 29.0288C14.6856 29.0249 15.9498 29.3993 17.0763 30.117C18.2027 30.8348 19.1548 31.8726 19.844 33.1338C21.2462 36.0136 22.1863 39.1664 22.6183 42.438C22.6334 42.5428 22.6543 42.6463 22.6808 42.748L22.6908 42.9474Z" fill="#232026"/>
<path d="M33.5525 30.3049L31.2645 32.9678L31.2333 32.5662C31.0295 29.1728 30.7632 24.8306 30.4343 21.2015C30.257 18.8575 29.948 16.5296 29.5092 14.2327C29.1735 15.7186 28.9068 17.2245 28.7102 18.7437C28.2402 22.0818 27.8163 26.3105 27.4087 30.4009L27.3925 30.4926C27.0949 33.4117 26.8286 36.0382 26.5623 38.3737V38.429L23.6467 41.8224L23.7255 41.2564C23.7418 41.1109 23.773 40.9654 23.788 40.8198C24.1956 37.8106 24.5719 34.0883 24.9633 30.1477V30.1114C25.4333 25.4956 25.9034 20.7344 26.4523 17.1416C26.6607 15.6082 26.97 14.0957 27.3775 12.6175C27.5813 11.9248 28.1451 10.0637 29.5254 10.0637H29.6042C31.1245 10.1365 31.6258 12.3803 31.8609 13.4571C32.2737 15.4939 32.5723 17.5597 32.7548 19.6415C33.0211 22.3234 33.2724 25.6804 33.5537 30.1856L33.5525 30.3049Z" fill="#232026"/>
<path d="M46.0286 15.7975L43.7556 18.4241L43.7244 18.0225C43.5206 15.3231 43.3493 13.2059 43.1755 11.3637C42.9717 9.22897 42.7529 7.49588 42.5329 6.16442C42.1878 7.86113 41.8277 10.2869 41.4514 13.3703C41.1689 15.7422 40.8713 18.5143 40.5112 22.1085V22.1638L37.7369 25.4176L37.7844 24.9068C38.1595 20.9124 38.6784 15.8034 39.211 11.6649C39.4695 9.37509 39.8359 7.10356 40.3087 4.8606C40.7 3.11441 41.2339 1.2489 42.5967 1.2489C44.0382 1.2489 44.4933 3.32832 44.7121 4.33238C45.0707 6.13595 45.3325 7.96377 45.496 9.80521C45.6685 11.483 45.8411 13.4722 46.0136 15.6971L46.0286 15.7975Z" fill="#232026"/>
<path d="M74.6325 29.4074C74.5202 29.2738 74.386 29.1678 74.2377 29.0958C74.0895 29.0238 73.9304 28.9872 73.7698 28.9883L60.6347 28.9694H60.6034C60.1147 28.8944 59.6478 28.6882 59.2394 28.367C58.8497 28.0816 58.4779 27.7646 58.1266 27.4182C57.471 26.6363 56.5872 26.169 55.6499 26.1086C51.8992 26.1086 50.9327 34.0625 49.8987 42.4718L49.8825 42.5446C49.6162 44.752 49.2711 47.4702 48.9261 49.2208C48.5093 47.0117 48.2004 44.7769 48.0009 42.5271C47.5308 37.8939 47.1545 31.9641 46.7631 26.2541L46.7156 25.4334C46.6218 24.083 46.5431 22.7705 46.4493 21.4754L62.7526 2.44489C62.8681 2.31271 62.9599 2.15508 63.0225 1.9812C63.0851 1.80731 63.1174 1.62064 63.1174 1.43209C63.1174 1.24355 63.0851 1.05689 63.0225 0.883004C62.9599 0.709119 62.8681 0.551489 62.7526 0.419309C62.6399 0.286484 62.5057 0.181022 62.3577 0.109043C62.2097 0.0370642 62.0509 0 61.8905 0C61.7301 0 61.5714 0.0370642 61.4234 0.109043C61.2754 0.181022 61.1412 0.286484 61.0285 0.419309L12.2037 57.246C12.0889 57.3766 11.9978 57.5329 11.9359 57.7054C11.8741 57.8779 11.8427 58.0631 11.8436 58.25C11.8414 58.4369 11.8722 58.6224 11.9341 58.7949C11.9961 58.9674 12.0878 59.1232 12.2037 59.2526C12.3164 59.3854 12.4506 59.4909 12.5986 59.5629C12.7466 59.6349 12.9054 59.6719 13.0657 59.6719C13.2261 59.6719 13.3849 59.6349 13.5329 59.5629C13.6809 59.4909 13.8151 59.3854 13.9278 59.2526L22.9408 48.7624C23.0449 48.7778 23.1498 48.7842 23.2547 48.7813C24.2886 48.7813 24.9 47.8151 25.3801 45.9176L31.5713 38.7117C31.8376 43.4176 32.1039 47.7962 32.4015 51.1532C32.5262 52.6784 32.7198 54.1948 32.9816 55.6962C33.1541 56.5897 33.5142 58.4508 34.857 58.4508C36.1998 58.4508 36.6286 56.5169 36.8949 55.2219C37.1774 53.8904 37.4588 51.974 37.7888 49.4202C38.3689 44.7317 38.9491 38.5836 39.5604 32.0718L39.7167 30.3751C39.7642 29.9386 39.7955 29.518 39.8417 29.08L44.1363 24.0816C44.1838 24.8295 44.2301 25.5775 44.2926 26.3443L44.3089 26.4724C44.7165 32.7121 45.1553 39.1875 45.6729 44.0405C46.4406 51.1009 47.2095 53.3985 48.8235 53.4713H48.886C50.5476 53.4713 51.049 50.935 51.3315 49.586C51.6916 47.8166 51.9742 45.4447 52.288 42.9098L52.3042 42.837C52.6534 39.4724 53.1714 36.1343 53.8558 32.8401C54.5922 29.7392 55.3136 28.9112 55.6274 28.9112C55.8474 28.9112 56.0662 29.112 56.5363 29.5675C56.9805 30.0167 57.4579 30.4194 57.9629 30.7709C58.7427 31.3719 59.6468 31.7187 60.5809 31.775H60.6434L73.7785 31.7939C73.9388 31.7941 74.0976 31.7572 74.2455 31.6852C74.3934 31.6133 74.5275 31.5078 74.64 31.3748C74.8684 31.1079 74.9977 30.7474 75 30.3707C74.9835 30.0079 74.8526 29.665 74.6325 29.4074ZM35.5271 47.8137C35.3396 49.474 35.152 50.9146 34.9633 52.0831C34.8845 51.4079 34.822 50.6279 34.7445 49.7548C34.4469 46.2523 34.2119 41.8563 33.9456 37.2041C33.9293 36.8214 33.898 36.4373 33.883 36.0546L37.0799 32.3337C36.5461 38.0729 36.0435 43.4729 35.5271 47.8137Z" fill="#232026"/>
</svg>
