<?xml version="1.0" encoding="utf-8"?>
<!-- Generator: Adobe Illustrator 23.0.1, SVG Export Plug-In . SVG Version: 6.00 Build 0)  -->
<svg version="1.1" id="Layer_1" xmlns="http://www.w3.org/2000/svg" xmlns:xlink="http://www.w3.org/1999/xlink" x="0px" y="0px"
	 viewBox="0 0 163 163" style="enable-background:new 0 0 163 163;" xml:space="preserve">
<style type="text/css">
	.st0{fill-rule:evenodd;clip-rule:evenodd;fill:#FFFFFF;}
	.st1{fill-rule:evenodd;clip-rule:evenodd;}
</style>
<g>
	<path class="st0" d="M22.7,92.8h24.7V70.2H22.7V92.8z"/>
	<path class="st1" d="M46.6,92.1l-9-6.9c0,0-1.2-1.1-2.6-1.1s-2.6,1.1-2.6,1.1l-9,6.9l0,0l7.5-8.2c0,0,1.2-1.1,1.2-2.4
		S31,79.1,31,79.1l-7.5-8.2l0,0l9,6.9c0,0,1.2,1.1,2.6,1.1s2.6-1.1,2.6-1.1l9-6.9l0,0l-7.6,8.2c0,0-1.2,1.1-1.2,2.4s1.2,2.4,1.2,2.4
		L46.6,92.1L46.6,92.1z M50.8,81.5L50.8,81.5c0-2.2,0.1-4.2,1.9-7.7c0.5-1,1.7-2.5,0-4.2c-1.4-1.2-2.9-1.1-4-0.5
		c0.6-1,0.8-2.4-0.5-3.6c-1.9-1.6-3.5-0.5-4.6,0c-3.8,1.6-6,1.7-8.5,1.7c-2.4,0-4.6-0.1-8.5-1.7c-1.1-0.5-2.8-1.5-4.6,0
		c-1.4,1.2-1.2,2.7-0.6,3.6c-1.1-0.6-2.6-0.8-4,0.5c-1.7,1.7-0.5,3.2,0,4.2c1.8,3.5,2,5.5,2,7.7c0,2.2-0.1,4.2-1.9,7.7
		c-0.5,1-1.7,2.5,0,4.2c1.4,1.2,2.9,1.1,4,0.5c-0.6,1-0.8,2.4,0.5,3.6c1.9,1.6,3.5,0.5,4.6,0c3.8-1.6,6-1.7,8.5-1.7
		c2.4,0,4.6,0.1,8.5,1.7c1.1,0.5,2.8,1.5,4.6,0c1.4-1.2,1.2-2.7,0.5-3.6c1.1,0.5,2.6,0.8,4-0.5c1.7-1.7,0.5-3.2,0-4.2
		C50.9,85.7,50.8,83.7,50.8,81.5z"/>
	<path class="st1" d="M80.1,94.6c3.1-1,6.9-5.8,6.3-13.4c-0.6-7.3-3.6-13-11.8-13.6c0,0-1.6-0.1-2.8-0.1c-1.4,0-1.7,0-1.8,1.3
		c-0.2,2.5-0.2,22.2,0,25c0,0.4,0.1,1.3,1.8,1.5C75,95.6,77.7,95.4,80.1,94.6z M77,66.4c6.9,0,15.9,4.3,15.9,15
		c0,9.3-7.4,15.1-14.2,15.1H61.3v-0.3c1-0.2,2.1-0.7,2.3-1.3c0.6-2.3,0.4-22.8,0.1-26.2c-0.1-1.1-1-1.7-2.1-1.9l0-0.4
		C61.5,66.4,75.4,66.4,77,66.4z M115,89.1c0.1-6.5-5.1-8.2-10.5-8.5c-0.1,0-0.1-0.3,0-0.3c1.7,0,8.7-0.8,8.4-6.9
		c-0.2-5.9-5.2-6-6.9-6.1c-1.5,0-1.8,0-2.4,0c-1,0-1.3,0.1-1.3,1.2c0,0.1-0.2,10.6-0.4,18c0,4-0.1,7.1-0.1,7.1
		c0,0.8-0.1,1.5,1.9,1.6c2,0.1,4.7,0.2,6.5-0.2C112,94.8,114.9,93.7,115,89.1z M112.9,80.5c8.1,1.8,8.6,7.2,8.5,8.6
		c-0.4,6.7-6.6,7.4-9.1,7.4H93.2v-0.4c1.4-0.2,2.4-0.8,2.4-3.1l0.1-23c0-2.5-0.7-3.2-2.2-3.4l0-0.3H108c2.7,0,10.6-0.5,11.3,6.2
		C119.8,78,113.3,80.2,112.9,80.5z M144,66.5h0.3l0.1,5.4h-0.4c-0.6-2.2-2.9-4.2-7.5-4.5c-5.4-0.3-7.8,2.7-7.8,5.5
		c0,3.7,3.2,4.5,7.9,5.6c2.2,0.5,10.5,1.5,9.8,9.9c-0.4,5.9-6.1,8.7-14,8.5c0,0-3.3-0.1-7.9-1.2c-0.8-0.2-1.1,0-1.4,0.6h-0.4v-5.8
		h0.4c0.2,0.6,0.2,1.7,1.4,2.6c0.8,0.7,2.8,2.4,7.2,2.4c4.3,0,7.8-1.6,8.3-6c0.1-1.2,0-3.9-2.9-5.1c-2.3-1-8.5-1.6-11.6-4.1
		c0,0-3.6-2.3-3-6.6c0.8-6.1,6.4-7.6,11.3-7.7c0,0,4.5,0,8,0.8c0,0,0.9,0.2,1.6,0C143.8,66.8,143.9,66.6,144,66.5z"/>
</g>
</svg>
