<?xml version="1.0" encoding="utf-8"?>
<!-- Generator: Adobe Illustrator 23.0.1, SVG Export Plug-In . SVG Version: 6.00 Build 0)  -->
<svg version="1.1" id="Layer_1" xmlns="http://www.w3.org/2000/svg" xmlns:xlink="http://www.w3.org/1999/xlink" x="0px" y="0px"
	 viewBox="0 0 163 163" style="enable-background:new 0 0 163 163;" xml:space="preserve">
<style type="text/css">
	.st0{fill-rule:evenodd;clip-rule:evenodd;}
</style>
<g>
	<path class="st0" d="M35.8,83.9l-1.3,1.5L35.8,83.9c0.8-0.8,1.5-1.5,1.5-1.5C37.4,82.4,37.3,82.6,35.8,83.9z"/>
	<path class="st0" d="M114.4,30.7c-7.8,1.1-14.3,9.6-13.3,17.1c0.1,0.5,0.1,1.1,0.1,1.1s-0.9-0.9-2-2.3c-1.2-1.3-2-2.3-2.1-2.3
		c-0.4,0-2.1,1.9-2.7,2.9c-1.5,2.7-1.6,5.4-0.3,8.2c0.1,0.4,0.3,0.7,0.1,0.5c0,0-1.1-0.9-2.3-1.9L90,52.3l-3.2,3.2
		c-1.7,1.7-3.2,3.3-3.2,3.3s1.7,1.9,4,4.1c3.4,3.4,3.8,3.8,3.2,3.4c-5.8-3.8-12.6-3.2-17.8,1.9c-5.7,5.4-6.6,12.5-2.5,19.1l0.4,0.5
		l-0.4-0.4c-3.7-3.4-7.6-4.5-11.7-3.2c-4.4,1.3-8.1,6.2-8,10.1v0.9l-6.6-6.6L37.6,82L34,85.6c-2.1,2.4-3.7,4-3.7,4.1
		c0,0,6,6.1,13.1,13.4l13.1,13.3h14.3l-5.3-5.4c-6.9-6.9-7.8-8.1-8.2-10.3s1.6-5,3.8-5s3.7,1.2,11.3,8.8l5.6,5.6l3.6-3.6l3.6-3.6
		L81,98.5c-3.8-3.8-4.1-4.1-3.4-3.7c6,3.6,12.3,3.2,17.8-1.2c3.3-2.7,7.4-8.1,7.4-9.6c0-0.3-5.4-3.7-5.6-3.6c0,0.1-0.5,0.7-0.9,1.3
		C91.7,88.3,88,90,84.4,87L84,86.6l6.8-6.8l6.8-6.8l4.2,4.2l4.2,4.2l3.7-3.7c2-2.1,3.7-3.7,3.7-3.8c0,0-2.5-2.7-5.7-5.8
		c-6.5-6.5-6.8-6.9-7.3-8.9c-0.7-2.1,0-4.6,1.6-6.5c0.8-0.9,0.8-0.9,1.2,0c2.3,4.4,7,8.4,11.3,9.8c5.7,2,11.1,0.4,16.5-4.8
		c2.5-2.5,5.2-6.4,5.2-7.4c0-0.1-5.7-3.8-5.8-3.7c0,0-0.3,0.4-0.5,0.9c-4.6,6.9-8.9,8.9-12.3,5.8l-0.5-0.4l6.8-6.8l6.8-6.8l-1.1-1.2
		C124.5,32.5,119.6,30,114.4,30.7z M115.2,39.2c0.8,0.3,1.7,0.8,2.5,1.6l0.8,0.7l-3.2,3.2c-3.6,3.7-3.2,3.4-4.2,2
		c-1.9-2.5-2-4.2-0.3-6.1C112.3,39.1,113.6,38.7,115.2,39.2z M82.1,73.2c0.8,0.4,2.3,1.3,2.5,1.9c0.1,0.1-5.8,6.5-6.2,6.5
		c-0.1,0-1.5-2-1.9-2.8C75,75.1,78.6,71.4,82.1,73.2z"/>
	<path class="st0" d="M26.2,116.3c0,0,3.4,3.4,7.6,7.7l7.6,7.6l7.6-7.7l7.6-7.7H41.3C33,116.1,26.2,116.1,26.2,116.3z"/>
	<path class="st0" d="M48,124.6l-4.6,4.8L48,124.6c2.7-2.7,4.9-4.8,4.9-4.8C53,119.7,52.6,120.1,48,124.6z"/>
	<path class="st0" d="M54.7,118l-1.7,1.7L54.7,118c1.1-0.9,1.9-1.7,1.9-1.7C56.4,116.1,56.3,116.4,54.7,118z"/>
</g>
</svg>
