<?xml version="1.0" encoding="utf-8"?>
<!-- Generator: Adobe Illustrator 23.0.1, SVG Export Plug-In . SVG Version: 6.00 Build 0)  -->
<svg version="1.1" id="Layer_1" xmlns="http://www.w3.org/2000/svg" xmlns:xlink="http://www.w3.org/1999/xlink" x="0px" y="0px"
	 viewBox="0 0 163 163" style="enable-background:new 0 0 163 163;" xml:space="preserve">
<style type="text/css">
	.st0{fill:#FFFFFF;}
</style>
<g>
	<path d="M101.3,134.7c0.2-2,0.1-2.6-0.3-2.9c-0.3-0.2-0.5-1-0.5-1.8c0-1.3-0.3-1.8-2.4-4.7c-2.2-3.1-2.3-3.3-1.9-4.1
		c0.4-0.7,0.3-1-0.5-2.3c-0.8-1.4-1.2-1.6-3.3-2.7c-4.2-2.1-7.6-4.1-13.2-8.2c-6.3-4.5-11.5-9.5-16.4-15.5c-1.7-2.1-1.8-2.2-3.3-2.2
		c-1.1,0-2.5-0.7-2.5-1.3c0-0.2-1.4-2.3-3-4.8c-4.3-6.5-4.7-7.8-3.4-12.5c0.8-2.8,0.9-3,2.6-4.4c1.7-1.4,1.5-1.8-1.4-2
		c-3.8-0.3-3.8-0.3-4.6-2c-0.4-0.9-0.7-1.9-0.7-2.2c0-1.1,1.7-4.6,4.1-8.3c1.3-2,3-4.8,3.7-6.1c2.6-4.8,6.2-8.6,9.2-9.7
		c1.2-0.4,3.4-0.8,10.2-1.5c3.8-0.4,4-0.6,4.6-3.4c0.3-1.6,0.3-1.9-0.3-2.6c-0.4-0.5-0.7-1.2-0.7-2c0-1.1,0.1-1.3,1-1.6
		c0.9-0.3,1-0.5,1-1.5c0-2.3,0.6-3.6,2.4-4.8c0.4-0.3,0.8-0.6,1.2-0.9H59.8c-7.9,0-14.3,4.6-14.3,10.3v105.3
		c0,5.7,6.4,10.3,14.3,10.3h42.5c-0.1-0.2-0.4-0.6-0.8-1C100.5,142.5,100.6,142.9,101.3,134.7z"/>
	<path d="M103.2,18.5H90.9c0.1,0.1,0.3,0.2,0.5,0.3c1.5,0.7,3.8,2.5,4.2,3.2c0.6,1.1,0.4,2.5-0.4,4c-0.4,0.9-0.6,1.6-0.5,2.1
		c0.2,0.9-0.9,2.7-2.3,3.6c-0.5,0.3-1.2,1-1.6,1.6c-0.4,0.5-1.3,1.4-2,2c-0.7,0.6-1.3,1.3-1.2,1.5c0.1,0.2,0.9,0.7,2,1.1
		c1,0.4,2.6,1.2,3.4,1.7c0.8,0.6,2.6,1.5,3.8,2.2c4.5,2.3,6.6,6.2,6.7,12.1c0,2.6,1.8,8.8,3,10.6c1.7,2.5,2.4,3.9,2.9,6.3
		c0.7,3.2,0.7,3.2,2.1,3.6c1.3,0.4,4.8,2.4,4.8,2.8c0,0.1,0.3,0.6,0.8,1l0.5,0.5V28.8C117.5,23.1,111.1,18.5,103.2,18.5z
		 M117.3,87.7c0,0.1-0.8,0.8-1.7,1.5c-6.4,5.1-17.4,3.9-21.4-2.2c-1-1.5-1.1-1.9-1.1-4c0-2,0.1-2.5,0.9-3.7c1.3-1.9,3.6-3.7,6.3-4.6
		c1.2-0.4,2.2-0.9,2.3-1c0.1-0.1-1-1.9-2.4-3.9c-3.2-4.7-3.6-5.5-5.1-11.2c-0.7-2.5-1.3-4.8-1.4-4.9c-0.3-0.5-1.2-0.3-3.6,0.8
		l-2.3,1.1l-2.1,3.8c-1.1,2.1-2.1,4.1-2.1,4.5c0,0.4,0.3,0.9,0.9,1.3c1.4,0.9,1.7,1.6,4,7.4c1.7,4.3,2.1,5.5,1.8,5.9
		c-0.3,0.4-0.1,1.3,0.7,3.7c1.1,3.5,1.6,5.3,2.1,9.1c0.5,3.8,1.1,5.1,4.2,8.9c2,2.6,2.7,4.1,4.1,10.1c0.7,2.8,1.3,5.2,1.5,5.4
		c0.2,0.2,0.8,1,1.5,1.7c1.8,2,2.1,2.9,1.4,4.8c-0.3,0.9-0.6,2.2-0.8,2.9c-0.2,1.5,0.5,5,1.3,6.4c0.3,0.5,0.4,1.1,0.3,1.3
		c-0.1,0.3,0.3,1.6,0.9,2.9c1.8,4.1,1.7,5.9-0.3,7.8c-0.4,0.3-0.6,0.5-0.7,0.7c6.2-1.1,10.8-5.2,10.8-10V87.5
		C117.4,87.5,117.3,87.6,117.3,87.7z"/>
	<path class="st0" d="M50.6,121.2h5.8l3.3,10.6h0.1v-10.6h4.8v17.3h-5.7l-3.4-10.7h-0.1v10.7h-4.8V121.2z M67.1,121.2h7.8
		c3.7,0,5.4,1.7,5.4,4.3c0,1.8-0.9,3.5-3.1,3.9v0c2.6,0.2,3.7,2.2,3.7,3.9c0,3-1.7,5.1-6,5.1h-7.8V121.2z M72.3,128h1.3
		c1.1,0,1.6-0.8,1.6-1.7c0-1-0.6-1.8-1.6-1.8h-1.3V128z M72.3,135.3h1.4c0.9,0,1.8-0.7,1.8-2.1c0-1.3-0.9-2.1-1.8-2.1h-1.4V135.3z
		 M86,121.2h6.5l4.8,17.3h-5.5l-0.5-3h-4.1l-0.5,3h-5.5L86,121.2z M89.3,124.8L89.3,124.8l-1.5,7.3h2.9L89.3,124.8z"/>
</g>
</svg>
