<?xml version="1.0" encoding="utf-8"?>
<!-- Generator: Adobe Illustrator 23.0.1, SVG Export Plug-In . SVG Version: 6.00 Build 0)  -->
<svg version="1.1" id="Layer_1" xmlns="http://www.w3.org/2000/svg" xmlns:xlink="http://www.w3.org/1999/xlink" x="0px" y="0px"
	 viewBox="0 0 163 163" style="enable-background:new 0 0 163 163;" xml:space="preserve">
<style type="text/css">
	.st0{fill:#505050;}
</style>
<g>
	<path class="st0" d="M37.2,79.2h-4.5l-2.7-4.9c-2.7-1.2-5.4-2-7.6-2c-2.1,0-3.8,0.6-4.9,1.9c-0.8,0.9-1.2,2.2-1.2,3.6
		c0,4.2,3.3,10.1,9,14.9c5.1,4.2,10.6,6.6,14.7,6.6c2,0,3.7-0.6,4.7-1.9c0.8-0.9,1.2-2.2,1.2-3.6C45.9,89.7,42.6,83.9,37.2,79.2z"/>
	<path d="M134.4,83.5c-1.6,0-2.9-1.5-2.9-3.5c0-2.6,1.4-4.7,3.6-4.7c1.8,0,3,1.5,3,3.5C138.2,81.5,136.6,83.5,134.4,83.5z
		 M139.9,69.4l-0.4,2c-1-1.5-2.8-2.4-5.2-2.4c-5.7,0-9.8,5.1-9.8,11.9c0,4.9,3.2,8.7,7.6,8.7c2.1,0,3.9-1,5.1-2.6l-0.4,2.2h6.1
		l3.5-19.8L139.9,69.4L139.9,69.4z"/>
	<path d="M57.7,77.3h-5.9c0.6-1.8,1.6-2.6,3.3-2.6c2.3,0,2.6,1.7,2.6,2.3V77.3z M55.6,69c-8,0-11.3,6.5-11.3,11.7c0,3.3,2.1,9,9.7,9
		c4.2,0,6.8-1.8,8.2-4.2l-5-3.1c-0.8,1.1-1.8,1.6-3,1.6c-1.6,0-2.9-0.8-3-3h12.8c0.2-0.7,0.4-1.8,0.4-3.6C64.4,72.8,61.1,69,55.6,69
		z"/>
	<path d="M123,69.1c-1.2,0-3.6,0.5-4.8,2.5l0.3-2.3h-6L109,89.2h7.3l1.7-9.8c0.4-2,2.2-3.4,4.1-3.4c0.7,0,1,0,1.3,0.1l1.3-6.7
		C124.3,69.2,123.6,69.1,123,69.1z"/>
	<path d="M103.7,75.1h4.3l1-5.7h-4.4l0.8-4.9h-7.1l-2.6,15.5c-1,6.1,3.1,9.2,7.8,9.2c1.1,0,1.7-0.1,2.1-0.2l1-6
		c-0.1,0-0.5,0.1-0.9,0.1c-1.8,0-3.3-0.9-2.9-3.3L103.7,75.1z"/>
	<path d="M69.8,63.5l-4.5,25.7h7.2l4.5-25.7C76.9,63.5,69.8,63.5,69.8,63.5z"/>
	<path d="M85.6,74.1c1.3,0,2,0.7,2.5,1.9l6.2-1.3c-0.6-3.4-3.4-5.7-8.1-5.7c-5.7,0-8.9,3.4-8.9,7.2c0,2.6,1.6,4.3,4.9,5.1l2.9,0.7
		c1.3,0.3,1.5,0.8,1.5,1.4c0,0.8-0.6,1.4-1.8,1.4c-1.4,0-2.5-0.7-2.8-2.1L76,83.9c0.4,4.2,4.7,5.9,8.5,5.9c5.6,0,8.8-2.9,8.8-7
		c0-2.7-1.6-4.6-4.9-5.3l-2.9-0.6c-1.4-0.3-1.8-0.6-1.8-1.4C83.8,74.7,84.3,74.1,85.6,74.1z"/>
	<path d="M25.7,63.5c-1,0-1.8,0.7-2.1,1.7l-0.9,4.9h8.1l-3.4,19.1h6.4c0.8,0,1.8-0.4,2.1-1.8l2.9-17.2h5.8c1,0,1.9-0.7,2.1-1.7
		l0.9-4.9C47.5,63.5,25.7,63.5,25.7,63.5z"/>
</g>
</svg>
