<?xml version="1.0" encoding="utf-8"?>
<!-- Generator: Adobe Illustrator 23.0.1, SVG Export Plug-In . SVG Version: 6.00 Build 0)  -->
<svg version="1.1" id="Layer_1" xmlns="http://www.w3.org/2000/svg" xmlns:xlink="http://www.w3.org/1999/xlink" x="0px" y="0px"
	 viewBox="0 0 163 163" style="enable-background:new 0 0 163 163;" xml:space="preserve">
<g>
	<path d="M27.5,81c0.8,0,1.5,0,2.1,0.1c0.9,0.1,1.6,1.4,1.6,2c0,0.3,0,0.7-0.1,1.1c-0.2,0.8-1.7,3.5-2.3,4.5c-0.7-1.2-2.5-4.7-3.1-6
		c-0.3-0.5-0.4-1-0.4-1.2C25.3,81.2,26.1,81,27.5,81z M17.5,81c0.7,0.2,1.2,0.3,1.8,1.4c2.2,4,4.3,8.4,6.4,12.7
		c0.3,0.2,0.6,0.3,1,0.3c0.4,0,0.7,0,1-0.3c1-1.9,3.7-7,4.8-9c1.3,2.5,3.6,6.9,4.5,9c0.3,0.2,0.6,0.3,1,0.3s0.8,0,1-0.3
		C41.1,91,43,87,45.1,83c0.7-1.4,1-1.8,2.5-2.1l0.6-0.1c0.4-0.4,0.3-1.2-0.1-1.4c-1,0.1-2.1,0.1-3.4,0.1c-1.1,0-2.2,0-3.6-0.1
		c-0.4,0.1-0.4,1.1-0.2,1.4l0.7,0.1c0.8,0.1,1.1,0.3,1.1,0.5c0,0.3-0.1,0.8-0.4,1.5c-0.7,1.8-1.4,3.6-2.5,5.9c-1-1.8-2.2-4.3-3-6.2
		c-0.3-0.7-0.4-0.9-0.4-1.2c0-0.2,0.6-0.4,1.6-0.6l0.7-0.1c0.3-0.1,0.4-1.3-0.1-1.4c-2.6,0.1-5.2,0.1-7.8,0.1h-8.8
		c-1.9,0-3.3,0-5.1-0.1c-0.4,0.2-0.4,1-0.1,1.4L17.5,81z"/>
	<path d="M54.3,80.8c1.5,0,2.3,0.8,2.3,2.1c0,0.4-0.1,0.8-0.3,0.9c-0.5,0.3-1.2,0.3-1.8,0.3H53c-1.4,0-2,0-2-0.6
		C50.9,82.3,52.4,80.8,54.3,80.8L54.3,80.8z M54.3,95.4c2.6,0,5.9-1.1,7.7-4.4c0-0.7-0.7-1-1.1-0.9c-1.2,1.8-2.9,2-4.1,2
		c-4.1,0-6.2-2.8-6.2-5.6c0-0.6,0.1-0.7,1.1-0.7h8.5c1.4,0,1.6-0.5,1.6-1.2c0-2.9-2.5-5.5-7.1-5.5c-5.5,0-9.5,3.7-9.5,8.5
		C45.1,91.7,48.3,95.4,54.3,95.4z M72.9,81c0.8,0,1.5,0,2.1,0.1c0.9,0.1,1.6,1.4,1.6,2c0,0.3,0,0.7-0.1,1.1
		c-0.2,0.8-1.7,3.5-2.3,4.5c-0.8-1.2-2.5-4.7-3.1-6c-0.3-0.5-0.4-1-0.4-1.2C70.7,81.2,71.5,81,72.9,81z M62.9,81
		c0.8,0.2,1.2,0.3,1.8,1.4c2.2,4,4.3,8.4,6.4,12.7c0.3,0.2,0.6,0.3,1,0.3s0.7,0,1-0.3c1-1.9,3.7-7,4.8-9c1.3,2.5,3.6,6.9,4.5,9
		c0.3,0.2,0.6,0.3,1,0.3s0.8,0,1-0.3C86.5,91,88.5,87,90.5,83c0.7-1.4,1-1.8,2.5-2.1l0.6-0.1c0.3-0.4,0.3-1.2-0.1-1.4
		c-1,0.1-2.1,0.1-3.4,0.1c-1.2,0-2.4,0-3.6-0.1c-0.4,0.1-0.4,1.1-0.2,1.4l0.7,0.1c0.7,0.1,1.1,0.3,1.1,0.5c0,0.3-0.1,0.8-0.4,1.5
		c-0.7,1.8-1.4,3.6-2.5,5.9c-1-1.8-2.2-4.3-3-6.2c-0.3-0.7-0.4-0.9-0.4-1.2c0-0.2,0.6-0.4,1.6-0.6l0.7-0.1c0.3-0.1,0.4-1.3-0.1-1.4
		c-2.8,0.1-5,0.1-7.8,0.1h-8.9c-1.7,0-3.4,0-5.1-0.1c-0.4,0.2-0.4,1-0.1,1.4L62.9,81z"/>
	<path d="M100.6,80.8c2.5,0,3.7,3.2,3.8,6.9c0,3.4-0.8,5.9-3.3,5.9c-2.5,0-4-2.9-4-7C97.1,82.5,98.7,80.8,100.6,80.8L100.6,80.8z
		 M100.6,95.4c5.4,0,10.1-2.6,10.1-8.2c0-5.4-4.7-8.1-9.9-8.1c-5.2,0-10.2,3-10.1,8.5C90.8,92.8,95.4,95.4,100.6,95.4z"/>
	<path d="M118.3,82.3c0.3,0,0.7,0,1.7,0.8c0.5,0.5,1.1,0.7,1.7,0.7c1.4,0,2.8-0.7,2.8-2.5c0-1.4-1.2-2.2-2.4-2.2
		c-1.8,0-3.1,1.2-4.3,1.9c-0.4-0.1-0.4-0.2-0.4-0.4c0-0.3,0.1-0.9,0.2-1.6c-0.2-0.2-0.4-0.3-0.8-0.3c-1.4,0.8-4.4,1.8-6.4,2.3
		c-0.3,0.2-0.3,0.9,0,1.1l0.6,0.3c0.8,0.5,0.8,0.9,0.8,2.5v5.7c0,2.7-0.2,3-1.6,3.1l-0.8,0.1c-0.4,0.2-0.4,1.1,0,1.4
		c1.7-0.1,3.5-0.1,5.2-0.1c2.1,0,3.8,0,5.9,0.1c0.4-0.2,0.4-1.1,0-1.4l-1.4-0.1c-1.5-0.1-1.6-0.4-1.6-3.1v-5.9
		C117.4,83.1,117.6,82.3,118.3,82.3z"/>
	<path d="M135.5,93.5l-0.6,0.1c-0.4,0.3-0.3,1.1,0.2,1.3c1.2-0.1,2.8-0.1,5.4-0.1c2.6,0,4.2,0,5.5,0.1c0.4-0.1,0.5-1.1,0.2-1.3
		l-0.7-0.1c-1.1-0.2-2-0.4-2.6-0.9c-1.1-0.9-5-6.1-5.7-7.3c-0.2-0.3-0.3-0.5-0.3-0.7c0-0.1,0-0.3,0.3-0.5c0.6-0.5,1.3-1.1,3-2.2
		c1.2-0.8,2.1-1.2,3-1.3l1.4-0.3c0.3-0.3,0.3-1.1-0.2-1.3c-2.6,0.3-6.3,0.5-8.3,0.5H135c-0.4,0.1-0.5,1-0.1,1.3l1.1,0.1
		c0.4,0,0.8,0.2,0.8,0.4c0,0.2-0.2,0.7-1.1,1.5l-1.8,1.9c-0.9,0.9-1.8,1.1-2.6,1.1c-0.5,0-0.6-0.1-0.6-0.5V73.4c0-2.4,0.1-4,0.1-5.6
		c-0.2-0.2-0.5-0.3-0.8-0.3c-2.2,0.8-4.9,1.8-6.7,2.1c-0.3,0.2-0.3,0.9,0,1.1l0.7,0.4c0.9,0.5,0.9,0.9,0.9,2.4v16.7
		c0,2.7-0.2,3-1.8,3.1l-0.8,0.1c-0.3,0.2-0.3,1.1,0,1.3c1.8-0.1,3.6-0.1,5.4-0.1c2,0,3.9,0,5.3,0.1c0.4-0.2,0.4-1.1,0-1.3l-0.7-0.1
		c-1.5-0.1-1.7-0.5-1.7-3.1v-2.2c0-0.7,0.2-0.9,0.5-0.9c0.4,0,0.8,0.1,1.1,0.5l3.1,4.1c0.4,0.4,0.7,1.1,0.7,1.2
		C136.2,93.4,136,93.5,135.5,93.5z"/>
</g>
</svg>
