<?xml version="1.0" encoding="utf-8"?>
<!-- Generator: Adobe Illustrator 23.0.1, SVG Export Plug-In . SVG Version: 6.00 Build 0)  -->
<svg version="1.1" id="Layer_1" xmlns="http://www.w3.org/2000/svg" xmlns:xlink="http://www.w3.org/1999/xlink" x="0px" y="0px"
	 viewBox="0 0 163 163" style="enable-background:new 0 0 163 163;" xml:space="preserve">
<g>
	<path d="M126,71.9c0.6,2.4,3,3.8,5.4,3.1c2.3-0.6,3.8-3,3.1-5.4c-0.6-2.4-3-3.8-5.4-3.1C126.8,67.1,125.4,69.5,126,71.9z"/>
	<path d="M120,76.6c1.6-0.5,2.5-2.1,2.1-3.7c-0.5-1.6-2.1-2.5-3.7-2.1c-1.6,0.5-2.5,2.1-2.1,3.7C116.8,76,118.4,77,120,76.6z"/>
	<path d="M111.3,78.1c1.1-0.3,1.8-1.5,1.6-2.8c-0.3-1.1-1.5-1.8-2.6-1.6c-1.1,0.3-1.8,1.5-1.6,2.8C108.9,77.8,110.2,78.4,111.3,78.1
		z"/>
	<path d="M104.5,79.1c0.7-0.2,1.1-0.9,1-1.7c-0.2-0.7-0.9-1.1-1.7-1c-0.7,0.2-1.1,0.9-1,1.7C102.9,78.9,103.7,79.4,104.5,79.1z"/>
	<path d="M122.8,63c1.1,1.9,3.6,2.6,5.4,1.5c1.8-1.1,2.6-3.6,1.5-5.5s-3.6-2.6-5.4-1.5C122.4,58.6,121.6,61,122.8,63z"/>
	<path d="M113.9,68c0.8,1.4,2.4,1.8,3.8,1s1.8-2.5,1-3.8c-0.8-1.4-2.4-1.8-3.8-1C113.7,65,113.1,66.6,113.9,68z"/>
	<path d="M107.8,69.4c-0.9,0.6-1.3,1.7-0.7,2.8c0.6,0.9,1.7,1.3,2.8,0.7c0.9-0.6,1.3-1.7,0.7-2.8C109.9,69.2,108.7,68.8,107.8,69.4z
		"/>
	<path d="M102.1,73.4c-0.6,0.3-0.8,1.1-0.5,1.7c0.3,0.6,1.1,0.8,1.7,0.5c0.6-0.3,0.8-1.1,0.5-1.7C103.5,73.3,102.7,73.1,102.1,73.4z
		"/>
	<path d="M122.3,55.1c1.4-1.4,1.4-3.7,0-5s-3.7-1.4-5,0c-1.4,1.4-1.4,3.7,0,5C118.6,56.6,120.9,56.6,122.3,55.1z"/>
	<path d="M113.6,58.8c-1-1-2.6-1-3.7,0c-1,1-1,2.6,0,3.7c1,1,2.6,1,3.7,0C114.6,61.5,114.6,59.8,113.6,58.8z"/>
	<path d="M104.2,65.6c-0.7,0.7-0.7,1.8,0,2.5s1.8,0.7,2.5,0c0.7-0.7,0.7-1.8,0-2.5C106,64.9,104.9,64.9,104.2,65.6z"/>
	<path d="M99.8,72.6c0.5,0.5,1.3,0.5,1.7,0c0.5-0.5,0.5-1.3,0-1.7c-0.5-0.5-1.3-0.5-1.7,0C99.4,71.5,99.4,72.1,99.8,72.6z"/>
	<path d="M109.7,49.1c1.6,0.9,3.7,0.3,4.6-1.3s0.3-3.7-1.3-4.6c-1.6-0.9-3.7-0.3-4.6,1.3C107.5,46,108.1,48.1,109.7,49.1z"/>
	<path d="M103.6,54.8c-0.7,1.1-0.2,2.6,0.9,3.3c1.1,0.7,2.6,0.2,3.3-0.9c0.7-1.1,0.2-2.6-0.9-3.3S104.3,53.7,103.6,54.8z"/>
	<path d="M102.1,62.3c-0.8-0.5-1.7-0.2-2.2,0.6s-0.2,1.7,0.6,2.2c0.8,0.5,1.7,0.2,2.2-0.6C103.2,63.8,102.8,62.7,102.1,62.3z"/>
	<path d="M98.5,68.7c-0.6-0.3-1.1-0.1-1.5,0.5c-0.3,0.6-0.1,1.3,0.5,1.5c0.6,0.3,1.1,0.1,1.5-0.5C99.2,69.7,98.9,69,98.5,68.7z"/>
	<path d="M100.9,45.2c1.7,0.5,3.4-0.6,3.9-2.3c0.5-1.7-0.6-3.4-2.3-3.9s-3.4,0.6-3.9,2.3C98.1,42.9,99.2,44.8,100.9,45.2z"/>
	<path d="M98.1,55.2c1.1,0.3,2.4-0.3,2.6-1.6c0.2-1.3-0.3-2.4-1.6-2.8c-1.1-0.3-2.4,0.3-2.6,1.6C96.3,53.7,97,54.8,98.1,55.2z"/>
	<path d="M96.1,63.1c0.8,0.2,1.6-0.2,1.8-1s-0.2-1.6-1-1.8c-0.8-0.2-1.6,0.2-1.8,1S95.3,62.9,96.1,63.1z"/>
	<path d="M93.8,68.1c-0.1,0.6,0.2,1,0.7,1.3c0.6,0.1,1-0.2,1.3-0.7c0.1-0.6-0.2-1-0.7-1.3C94.3,67.2,93.9,67.6,93.8,68.1z"/>
	<path d="M91.3,43.7c1.6,0,3-1.4,3-3s-1.4-3-3-3s-3,1.4-3,3S89.5,43.7,91.3,43.7z"/>
	<path d="M91.3,50.1c-1.1,0-1.9,0.9-1.9,1.9s0.9,1.9,1.9,1.9c1.1,0,1.9-0.9,1.9-1.9S92.3,50.1,91.3,50.1z"/>
	<path d="M92.6,61c0-0.8-0.6-1.4-1.4-1.4s-1.4,0.6-1.4,1.4c0,0.8,0.6,1.4,1.4,1.4S92.6,61.7,92.6,61z"/>
	<path d="M91.3,67c-0.5,0-0.9,0.5-0.9,0.9s0.5,0.9,0.9,0.9c0.5,0,0.9-0.5,0.9-0.9S91.7,67,91.3,67z"/>
	<path d="M81.5,44.9c1.5-0.5,2.4-1.9,1.9-3.4C83,39.9,81.5,39,80,39.5c-1.5,0.5-2.4,1.9-1.9,3.4C78.5,44.3,80,45.2,81.5,44.9z"/>
	<path d="M82,53.6c0.2,0.9,1.3,1.5,2.2,1.3c0.9-0.2,1.5-1.3,1.3-2.2c-0.2-0.9-1.3-1.5-2.2-1.3C82.3,51.6,81.7,52.7,82,53.6z"/>
	<path d="M84.7,62.1c0.2,0.7,0.9,1.1,1.6,0.9c0.7-0.2,1.1-0.9,0.9-1.6c-0.2-0.7-0.9-1.1-1.6-0.9C85,60.7,84.6,61.4,84.7,62.1z"/>
	<path d="M87,68.6c0.1,0.5,0.6,0.7,0.9,0.6c0.5-0.1,0.7-0.6,0.6-0.9c-0.1-0.5-0.6-0.7-0.9-0.6C87.1,67.7,86.9,68.1,87,68.6z"/>
	<path d="M72.3,48.4c1.3-0.7,1.7-2.3,0.9-3.6c-0.8-1.3-2.3-1.7-3.6-0.9c-1.3,0.8-1.7,2.3-0.9,3.6C69.6,48.8,71.1,49.1,72.3,48.4z"/>
	<path d="M77.5,57.4c0.8-0.5,1-1.4,0.6-2.2c-0.5-0.8-1.4-1-2.2-0.6c-0.8,0.5-1,1.4-0.6,2.2S76.7,57.8,77.5,57.4z"/>
	<path d="M81.7,64.8c0.6-0.3,0.8-1,0.5-1.6c-0.3-0.6-1-0.8-1.6-0.5c-0.6,0.3-0.8,1-0.5,1.6C80.5,64.9,81.2,65.2,81.7,64.8z"/>
	<path d="M85.2,69.4c-0.2-0.3-0.6-0.5-0.9-0.2c-0.3,0.2-0.5,0.6-0.2,0.9c0.2,0.3,0.6,0.5,0.9,0.2C85.3,70.1,85.4,69.7,85.2,69.4z"/>
	<path d="M64.3,54.4c0.9-0.9,0.9-2.5,0-3.4c-0.9-0.9-2.4-0.9-3.4,0s-0.9,2.5,0,3.4C61.9,55.3,63.5,55.3,64.3,54.4z"/>
	<path d="M71.7,59.7c-0.6-0.6-1.4-0.6-1.9,0c-0.6,0.6-0.6,1.5,0,1.9c0.6,0.6,1.4,0.6,1.9,0C72.2,61,72.2,60.2,71.7,59.7z"/>
	<path d="M77.7,66.2c-0.5-0.5-1.1-0.5-1.6,0c-0.5,0.5-0.5,1.1,0,1.6c0.5,0.5,1.1,0.5,1.6,0C78.2,67.3,78.2,66.6,77.7,66.2z"/>
	<path d="M82.2,71.5c-0.2-0.2-0.6-0.2-0.8,0c-0.2,0.2-0.2,0.6,0,0.8c0.2,0.2,0.6,0.2,0.8,0C82.4,72,82.4,71.7,82.2,71.5z"/>
	<path d="M55.2,62.9c1,0.6,2.4,0.2,3-0.8c0.6-1,0.2-2.4-0.8-3c-1-0.6-2.4-0.2-3,0.8C53.8,60.9,54.1,62.3,55.2,62.9z"/>
	<path d="M66.7,65.7c-0.6-0.3-1.3-0.1-1.6,0.5c-0.3,0.6-0.1,1.3,0.5,1.6c0.6,0.3,1.3,0.1,1.6-0.5C67.4,66.8,67.3,66.1,66.7,65.7z"/>
	<path d="M74.3,70.3c-0.5-0.2-1-0.1-1.4,0.3c-0.2,0.5-0.1,1,0.3,1.4c0.5,0.2,1,0.1,1.4-0.3C74.9,71.2,74.8,70.7,74.3,70.3z"/>
	<path d="M131.6,76.5c-2.6,0-4.8,2.2-4.8,4.8s2.2,4.8,4.8,4.8c2.6,0,4.8-2.2,4.8-4.8C136.4,78.7,134.2,76.5,131.6,76.5z"/>
	<path d="M123.7,81.3c0-1.9-1.5-3.4-3.4-3.4s-3.4,1.5-3.4,3.4c0,1.9,1.5,3.4,3.4,3.4S123.7,83.1,123.7,81.3z"/>
	<path d="M111.4,78.9c-1.3,0-2.3,1-2.3,2.4c0,1.3,1,2.4,2.3,2.4c1.3,0,2.3-1,2.3-2.4C113.8,79.9,112.7,78.9,111.4,78.9z"/>
	<path d="M106.2,81.3c0-0.8-0.7-1.5-1.5-1.5s-1.5,0.7-1.5,1.5s0.7,1.5,1.5,1.5S106.2,82.1,106.2,81.3z"/>
	<path d="M131.4,87.5c-2.3-0.7-4.7,0.8-5.4,3.1c-0.7,2.4,0.8,4.8,3.1,5.4c2.3,0.6,4.7-0.8,5.4-3.1l0,0
		C135,90.6,133.7,88.2,131.4,87.5z"/>
	<path d="M118.5,91.7c1.6,0.5,3.2-0.6,3.7-2.1c0.5-1.6-0.6-3.2-2.1-3.7c-1.6-0.5-3.2,0.6-3.7,2.1C116,89.6,116.9,91.3,118.5,91.7z"
		/>
	<path d="M110.2,88.6c1.1,0.3,2.4-0.3,2.6-1.6c0.3-1.1-0.3-2.4-1.6-2.8c-1.1-0.3-2.4,0.3-2.6,1.6C108.3,87.2,109,88.3,110.2,88.6z"
		/>
	<path d="M103.7,86.1c0.7,0.2,1.5-0.2,1.7-1c0.2-0.7-0.2-1.5-1-1.7c-0.7-0.2-1.5,0.2-1.7,1C102.6,85.1,103.1,85.9,103.7,86.1z"/>
	<path d="M128.1,98c-1.9-1.1-4.4-0.5-5.4,1.5c-1.1,1.9-0.5,4.4,1.5,5.5c1.9,1.1,4.4,0.5,5.4-1.5S130.1,99.2,128.1,98z"/>
	<path d="M118.8,97.2c0.8-1.4,0.3-3.1-1-3.8c-1.4-0.8-3-0.3-3.8,1c-0.8,1.4-0.3,3.1,1,3.8C116.3,99.1,118,98.6,118.8,97.2z"/>
	<path d="M110.4,92.4c0.6-0.9,0.2-2.2-0.7-2.8c-0.9-0.6-2.2-0.2-2.8,0.7c-0.6,0.9-0.2,2.2,0.7,2.8C108.7,93.7,109.8,93.3,110.4,92.4
		z"/>
	<path d="M103.9,88.5c0.3-0.6,0.1-1.4-0.5-1.8c-0.6-0.3-1.4-0.1-1.8,0.5c-0.3,0.6-0.1,1.4,0.5,1.8l0,0
		C102.7,89.4,103.5,89.2,103.9,88.5z"/>
	<path d="M117.3,107.3c-1.4,1.4-1.4,3.7,0,5c1.4,1.4,3.7,1.4,5,0c1.4-1.4,1.4-3.7,0-5S118.6,105.9,117.3,107.3z"/>
	<path d="M113.6,103.7c1-1,1-2.6,0-3.7c-1-1-2.6-1-3.7,0c-1,1-1,2.6,0,3.7C111,104.7,112.6,104.7,113.6,103.7z"/>
	<path d="M106.7,96.9c0.7-0.7,0.7-1.8,0-2.5c-0.7-0.7-1.8-0.7-2.5,0c-0.7,0.7-0.7,1.8,0,2.5S106,97.6,106.7,96.9z"/>
	<path d="M99.8,91.5c0.5,0.5,1.3,0.5,1.7,0s0.5-1.3,0-1.7s-1.3-0.5-1.7,0C99.4,90.4,99.4,91,99.8,91.5z"/>
	<path d="M109.7,113.4c-1.6,0.9-2.2,3-1.3,4.6c0.9,1.6,3,2.2,4.6,1.3c1.6-0.9,2.2-3,1.3-4.6C113.4,113,111.3,112.5,109.7,113.4z"/>
	<path d="M107.8,105.4c-0.7-1.1-2.1-1.6-3.3-0.9c-1.1,0.7-1.6,2.1-0.9,3.3c0.7,1.1,2.1,1.6,3.3,0.9
		C108.1,107.9,108.4,106.5,107.8,105.4z"/>
	<path d="M102.1,100.2c0.8-0.5,1-1.4,0.6-2.2c-0.5-0.8-1.4-1-2.2-0.6s-1,1.4-0.6,2.2C100.4,100.3,101.3,100.7,102.1,100.2z"/>
	<path d="M97.3,91.8c-0.6,0.3-0.7,0.9-0.5,1.5c0.3,0.6,0.9,0.7,1.5,0.5c0.6-0.3,0.7-0.9,0.5-1.5C98.6,91.7,97.9,91.6,97.3,91.8z"/>
	<path d="M100.9,117.3c-1.7,0.5-2.8,2.2-2.3,3.9s2.2,2.8,3.9,2.3s2.8-2.2,2.3-3.9C104.3,117.9,102.5,116.8,100.9,117.3z"/>
	<path d="M99.3,111.6c1.1-0.3,1.8-1.5,1.6-2.8c-0.2-1.3-1.5-1.8-2.6-1.6c-1.1,0.3-1.8,1.5-1.6,2.8C97,111.2,98.1,111.8,99.3,111.6z"
		/>
	<path d="M97.9,100.4c-0.2-0.8-1-1.3-1.8-1c-0.8,0.2-1.3,1-1,1.8c0.2,0.8,1,1.3,1.8,1C97.7,102,98.1,101.2,97.9,100.4z"/>
	<path d="M95.6,93.9c-0.1-0.6-0.7-0.8-1.3-0.7c-0.6,0.1-0.8,0.7-0.7,1.3c0.1,0.6,0.7,0.8,1.3,0.7C95.5,94.9,95.7,94.4,95.6,93.9z"/>
	<path d="M91.3,118.8c-1.6,0-3,1.4-3,3c0,1.6,1.4,3,3,3c1.6,0,3-1.4,3-3C94.2,120.2,92.9,118.8,91.3,118.8z"/>
	<path d="M89.2,110.4c0,1.1,0.9,1.9,1.9,1.9c1.1,0,1.9-0.9,1.9-1.9s-0.9-1.9-1.9-1.9C90.1,108.3,89.2,109.3,89.2,110.4z"/>
	<path d="M91.3,102.8c0.8,0,1.4-0.6,1.4-1.4c0-0.8-0.6-1.4-1.4-1.4s-1.4,0.6-1.4,1.4C89.9,102.3,90.5,102.8,91.3,102.8z"/>
	<path d="M91.3,93.7c-0.5,0-0.9,0.5-0.9,0.9c0,0.5,0.5,0.9,0.9,0.9c0.5,0,0.9-0.5,0.9-0.9C92.2,94.1,91.7,93.7,91.3,93.7z"/>
	<path d="M81.5,117.6c-1.5-0.5-3,0.5-3.4,1.9c-0.5,1.5,0.5,3,1.9,3.4s3-0.5,3.4-1.9C83.8,119.6,83,118.1,81.5,117.6z"/>
	<path d="M84.2,107.7c-0.9-0.2-1.9,0.3-2.2,1.3c-0.2,0.9,0.3,1.9,1.3,2.2c0.9,0.2,1.9-0.3,2.2-1.3C85.6,108.9,85.2,107.9,84.2,107.7
		z"/>
	<path d="M86.3,99.5c-0.7-0.2-1.4,0.2-1.6,0.9c-0.2,0.7,0.2,1.4,0.9,1.6c0.7,0.2,1.4-0.2,1.6-0.9C87.5,100.4,87,99.8,86.3,99.5z"/>
	<path d="M88.5,94.4c0.1-0.5-0.1-0.9-0.6-0.9C87.5,93.3,87,93.6,87,94c-0.1,0.5,0.1,0.9,0.6,0.9C88,95.1,88.4,94.8,88.5,94.4z"/>
	<path d="M72.3,114.1c-1.3-0.7-2.8-0.3-3.6,0.9c-0.7,1.3-0.3,2.9,0.9,3.6s2.8,0.3,3.6-0.9C74.1,116.4,73.6,114.8,72.3,114.1z"/>
	<path d="M77.5,105.1c-0.8-0.5-1.7-0.2-2.2,0.6c-0.5,0.8-0.2,1.7,0.6,2.2c0.8,0.5,1.7,0.2,2.2-0.6C78.5,106.5,78.3,105.5,77.5,105.1
		z"/>
	<path d="M80.6,99.8c0.6,0.3,1.3,0.1,1.6-0.5c0.3-0.6,0.1-1.4-0.5-1.6c-0.6-0.3-1.3-0.1-1.6,0.5C79.8,98.7,80,99.5,80.6,99.8z"/>
	<path d="M85,92.2c-0.3-0.2-0.8-0.1-0.9,0.2c-0.2,0.3-0.1,0.8,0.2,0.9c0.3,0.2,0.8,0.1,0.9-0.2C85.4,92.8,85.3,92.4,85,92.2z"/>
	<path d="M61,108.1c-0.9,0.9-0.9,2.5,0,3.4c0.9,0.9,2.4,0.9,3.4,0c1-0.9,0.9-2.5,0-3.4C63.5,107.2,61.9,107.2,61,108.1z"/>
	<path d="M69.7,100.8c-0.6,0.6-0.6,1.5,0,1.9c0.6,0.6,1.4,0.6,1.9,0c0.6-0.6,0.6-1.5,0-1.9C71.2,100.2,70.3,100.2,69.7,100.8z"/>
	<path d="M76.2,94.7c-0.5,0.5-0.5,1.1,0,1.6s1.1,0.5,1.6,0s0.5-1.1,0-1.6C77.3,94.3,76.6,94.3,76.2,94.7z"/>
	<path d="M82.2,90.2c-0.2-0.2-0.6-0.2-0.8,0c-0.2,0.2-0.2,0.6,0,0.8c0.2,0.2,0.6,0.2,0.8,0C82.4,90.8,82.4,90.5,82.2,90.2z"/>
	<path d="M55.2,99.5c-1,0.6-1.4,1.9-0.8,3c0.6,1,1.9,1.4,3,0.8c1-0.6,1.4-1.9,0.8-3C57.6,99.3,56.3,99,55.2,99.5z"/>
	<path d="M65.5,94.7c-0.6,0.3-0.8,1-0.5,1.6s1,0.8,1.6,0.5c0.6-0.3,0.8-1,0.5-1.6C66.8,94.6,66,94.4,65.5,94.7z"/>
	<path d="M73.3,90.5c-0.5,0.2-0.7,0.9-0.3,1.4c0.2,0.5,0.9,0.7,1.4,0.3c0.5-0.2,0.7-0.9,0.3-1.4C74.4,90.4,73.7,90.1,73.3,90.5z"/>
	<path d="M50.8,74.3h3.6v13.5h-3.6V74.3z M52.9,68.2c-1-0.3-2.2,0.3-2.5,1.5c-0.3,1,0.3,2.2,1.4,2.5c1,0.3,2.2-0.3,2.5-1.5
		S54,68.5,52.9,68.2z M65.1,88.2c-0.8,0-1.7-0.1-2.5-0.5c-0.7-0.3-1.3-0.8-1.8-1.5v8.5h-3.4V74.3h3.4v1.8c0.5-0.7,1-1.3,1.8-1.6
		c0.8-0.3,1.6-0.6,2.5-0.6c0.8,0,1.7,0.2,2.4,0.5c0.8,0.3,1.5,0.8,2.1,1.4c0.6,0.7,1.1,1.4,1.4,2.2c0.3,0.9,0.6,1.9,0.6,2.9
		c0,1-0.2,1.9-0.6,3c-0.3,0.8-0.8,1.6-1.5,2.2C68.5,87.4,66.7,88.2,65.1,88.2z M64.4,84.9c0.5,0,1-0.1,1.5-0.3
		c0.5-0.2,0.8-0.5,1.1-0.8c0.3-0.3,0.6-0.8,0.8-1.3c0.3-0.9,0.3-2.1,0-3c-0.2-0.5-0.5-0.8-0.8-1.3c-0.3-0.3-0.8-0.6-1.1-0.8
		c-0.5-0.2-0.9-0.3-1.5-0.3c-1,0-1.9,0.5-2.6,1.1c-0.3,0.3-0.6,0.8-0.8,1.3c-0.3,0.9-0.3,2.1,0,3c0.2,0.5,0.5,0.8,0.8,1.3
		C62.5,84.5,63.4,84.9,64.4,84.9z M74.1,74.3h3.4v2.1c0.3-0.7,0.8-1.4,1.5-1.7s1.5-0.6,2.3-0.6c0.5,0,0.8,0.1,1.3,0.1
		c0.3,0.1,0.7,0.2,1,0.3L82.3,78c-0.2-0.1-0.5-0.2-0.8-0.3c-0.3-0.1-0.7-0.1-1-0.1c-0.8,0-1.6,0.2-2.2,0.7c-0.6,0.5-0.8,1.4-0.8,2.4
		v7.2h-3.4C74.1,87.8,74.1,74.3,74.1,74.3z M91.1,88.2c-0.9,0-1.9-0.2-2.9-0.6c-0.8-0.3-1.6-0.9-2.3-1.5c-1.3-1.4-2.1-3.1-2.1-5
		c0-0.9,0.2-1.8,0.6-2.8c0.3-0.8,0.8-1.6,1.5-2.3c2.9-2.8,7.3-2.8,10.2,0c1.3,1.4,2.1,3.1,2.1,5c0,0.9-0.2,1.8-0.6,2.8
		c-0.3,0.8-0.9,1.6-1.5,2.3c-0.7,0.7-1.4,1.1-2.3,1.5C93,88,92.1,88.2,91.1,88.2z M91.1,84.9c0.5,0,1-0.1,1.5-0.3
		c0.5-0.2,0.8-0.5,1.1-0.8c0.3-0.3,0.6-0.8,0.8-1.3c0.3-0.9,0.3-2.1,0-3c-0.2-0.5-0.5-0.8-0.8-1.3c-0.3-0.3-0.7-0.6-1.1-0.8
		c-0.9-0.5-1.9-0.5-2.9,0c-0.5,0.2-0.8,0.5-1.1,0.8S88,79,87.8,79.5c-0.3,0.9-0.3,2.1,0,3c0.2,0.5,0.5,0.8,0.8,1.3
		c0.3,0.3,0.7,0.6,1.1,0.8C90.1,84.7,90.7,84.9,91.1,84.9z M26.4,74.3H30l2.8,8.7l3.2-8.7h3l3.2,8.7l2.9-8.7h3.6l-4.6,13.5h-3.2
		L37.5,79l-3.2,8.8h-3.6L26.4,74.3z"/>
</g>
</svg>
