<?xml version="1.0" encoding="utf-8"?>
<!-- Generator: Adobe Illustrator 23.0.1, SVG Export Plug-In . SVG Version: 6.00 Build 0)  -->
<svg version="1.1" id="Layer_1" xmlns="http://www.w3.org/2000/svg" xmlns:xlink="http://www.w3.org/1999/xlink" x="0px" y="0px"
	 viewBox="0 0 163 163" style="enable-background:new 0 0 163 163;" xml:space="preserve">
<g>
	<path d="M139.6,97.6c0-1.2,0.2-2.5,0.5-3.6s0.9-1.8,1.6-2.4c0.6-0.5,1.3-0.6,2-0.4c0.7,0.2,1.3,0.8,1.8,1.7c0.5,0.9,0.8,2,1,3.3
		c0.1,1.2,0.1,2.5-0.2,3.7c-0.3,1.2-0.7,2.2-1.2,2.8c-0.5,0.8-1.2,1.2-1.9,1.2c-0.9,0-1.8-0.7-2.5-1.9
		C140,100.9,139.7,99.3,139.6,97.6"/>
	<path d="M36.3,80.3c0,7.3-1.1,13-3.2,17c-2.1,4-5.1,5.9-9,5.9h-7.5V59.2h8.1c3.8,0,6.6,1.8,8.6,5.4C35.2,68.2,36.3,73.4,36.3,80.3z
		 M29.7,80.7c0-4-0.4-7-1.2-9s-2.1-2.9-3.8-2.9h-1.8v24.7h1.4c1.9,0,3.3-1.1,4.2-3.1C29.3,88.3,29.7,85.1,29.7,80.7"/>
	<path d="M63.1,59h-6v44.3h6V59z"/>
	<path d="M82.7,86.8c0,5.4-0.8,9.6-2.3,12.6c-1.5,3-3.7,4.5-6.4,4.5c-2.7,0-4.7-1.5-6.3-4.6s-2.3-7.2-2.3-12.5
		c0-5.4,0.8-9.5,2.3-12.5c1.5-3,3.7-4.4,6.4-4.4c1.6-0.1,3.1,0.7,4.5,2.1c1.3,1.4,2.4,3.4,3,5.9C82.4,80.6,82.7,83.7,82.7,86.8
		 M71.5,86.8c-0.1,2.2,0.1,4.4,0.6,6.5c0.2,0.7,0.5,1.3,0.8,1.7c0.3,0.4,0.8,0.6,1.2,0.5c0.4,0.1,0.8-0.1,1.2-0.5s0.6-1,0.8-1.7
		c0.4-2.1,0.6-4.3,0.5-6.5c0.1-2.2-0.1-4.3-0.5-6.3c-0.2-0.7-0.5-1.2-0.8-1.5s-0.8-0.6-1.2-0.6s-0.8,0.2-1.2,0.6
		c-0.3,0.4-0.6,0.9-0.8,1.5C71.6,81.9,71.5,84,71.5,86.8"/>
	<path d="M91.1,70.4h-6v32.9h6V70.4z"/>
	<path d="M91.1,59h-6v7.4h6V59z"/>
	<path d="M103.3,94.9c1-0.1,2-0.4,2.9-1.1v8.2c-0.8,0.6-1.5,1.1-2.3,1.4c-0.8,0.3-1.7,0.5-2.6,0.4c-2,0-3.5-0.9-4.4-2.8
		c-0.9-1.9-1.3-4.7-1.3-8.6V78.9h-2.1v-8.5h2.1V62l6-2v10.4h3.8v8.5h-3.8v12.8C101.6,93.8,102.2,94.9,103.3,94.9z"/>
	<path d="M117.1,94.9c1-0.1,2-0.4,2.9-1.1v8.2c-0.8,0.6-1.5,1.1-2.3,1.4c-0.8,0.3-1.7,0.5-2.6,0.4c-2,0-3.5-0.9-4.4-2.8
		c-0.9-1.9-1.4-4.7-1.4-8.6V78.9h-2.1v-8.5h2.1v-8.5l6-1.8v10.3h3.8v8.5h-3.8v12.8C115.5,93.8,116.1,94.9,117.1,94.9z"/>
	<path d="M136,73.7c-1.4-2.6-3.4-3.8-6.1-3.9c-2.7,0-4.9,1.5-6.4,4.4c-1.5,3-2.2,7.2-2.2,12.8c0,5.4,0.8,9.5,2.4,12.4
		c1.6,2.9,3.8,4.4,6.7,4.4c1.2,0,2.4-0.2,3.6-0.5c1-0.4,2-1,2.9-1.9L136,94c-0.6,0.5-1.3,0.9-1.9,1.2c-1,0.4-1.9,0.6-2.9,0.5
		c-1,0.1-2-0.4-2.7-1.5c-0.3-0.5-0.6-1.2-0.8-2c-0.2-0.8-0.3-1.5-0.3-2.4h10.7v-5C138.2,80,137.4,76.3,136,73.7 M127.5,82.8
		c0-1.5,0.3-2.9,0.8-4c0.2-0.4,0.5-0.8,0.8-0.9c0.3-0.2,0.6-0.3,1-0.3s0.7,0.1,1,0.4c0.3,0.2,0.6,0.6,0.8,1.1
		c0.5,1.1,0.8,2.4,0.7,3.8L127.5,82.8L127.5,82.8z"/>
	<path d="M52.6,73.7c-1.4-2.6-3.4-3.8-6.1-3.9c-2.7,0-4.9,1.5-6.4,4.4S38,81.4,37.9,87c0,5.4,0.8,9.5,2.4,12.4
		c1.6,2.9,3.8,4.4,6.7,4.4c1.2,0,2.4-0.2,3.6-0.5c1-0.4,2-1,2.9-1.9l-0.7-7.3c-0.6,0.5-1.3,0.9-1.9,1.2c-1,0.4-1.9,0.6-2.9,0.5
		c-1,0.1-2-0.5-2.7-1.5c-0.3-0.5-0.6-1.2-0.8-2c-0.2-0.8-0.3-1.5-0.3-2.4h10.7v-5C54.7,80,54.1,76.3,52.6,73.7z M44.2,82.8
		c0-1.5,0.3-2.9,0.8-4c0.2-0.4,0.5-0.8,0.8-0.9c0.3-0.2,0.6-0.3,1-0.3c0.3,0,0.7,0.1,1,0.4c0.3,0.2,0.6,0.6,0.8,1.1
		c0.5,1.1,0.8,2.4,0.7,3.8L44.2,82.8L44.2,82.8z"/>
</g>
</svg>
