<?xml version="1.0" encoding="utf-8"?>
<!-- Generator: Adobe Illustrator 23.0.1, SVG Export Plug-In . SVG Version: 6.00 Build 0)  -->
<svg version="1.1" id="Layer_1" xmlns="http://www.w3.org/2000/svg" xmlns:xlink="http://www.w3.org/1999/xlink" x="0px" y="0px"
	 viewBox="0 0 163 163" style="enable-background:new 0 0 163 163;" xml:space="preserve">
<g>
	<path d="M41.4,109.1L20,93.5c0,0-2.7-1.7-3.3-5c-0.8-4.5,2-8.3,2-8.3l27.7,20.2c2.1,1.6,2.7,4.7,1.4,7.1
		C46.4,110.1,43.5,110.6,41.4,109.1L41.4,109.1z"/>
	<path d="M21.2,76.8c0,0-3.3-2.2-3.3-7.4c0-5.1,3.3-7.3,3.3-7.3l11.7-8.5c1.1-0.8,2.3-1,3.5-0.7c1.2,0.3,2.3,1.1,2.9,2.3
		c0.7,1.1,0.9,2.6,0.7,3.9c-0.2,1.4-1,2.5-2,3.2l-9.8,7.2l16.8,12.2c0,0,3,2,3.6,5.2c0.8,4.6-2,8.3-2,8.3L21.2,76.8z M21.2,110
		c1.1,0,1.9-0.4,2.6-1l5.7-4.1l-5.7-4.1c-0.8-0.5-1.6-1-2.6-1c-0.6,0-1.2,0.2-1.7,0.4c-0.5,0.2-1.1,0.6-1.5,1.1
		c-0.5,0.5-0.8,1.1-1,1.7c-0.3,0.6-0.5,1.3-0.5,2c0,0.7,0.2,1.4,0.4,2c0.2,0.6,0.6,1.2,1,1.7c0.5,0.5,1,0.8,1.5,1.1
		C19.9,109.8,20.5,110,21.2,110z"/>
	<path d="M43.2,64.4c-1.1,0-1.9,0.4-2.6,1l-5.7,4.1l5.7,4.1c0.8,0.5,1.6,1,2.6,1c0.6,0,1.2-0.2,1.7-0.4s1.1-0.6,1.5-1.1
		c0.5-0.5,0.8-1.1,1-1.7s0.4-1.3,0.4-2s-0.2-1.4-0.4-2c-0.2-0.6-0.6-1.2-1-1.7c-0.5-0.5-0.9-0.8-1.5-1.1
		C44.4,64.6,43.8,64.4,43.2,64.4z"/>
	<path d="M66.9,93.7c1.2,0,2.3-0.4,3.2-1.2v1.9c-1,0.8-2.2,1.1-3.4,1.1c-3.1,0-5.3-2.4-5.3-5.9c0-3.5,2.2-5.9,5.3-5.9
		c1.2,0,2.3,0.4,3.2,1.1V87c-0.8-1-1.9-1.5-3.2-1.5c-2.2,0-3.7,1.7-3.7,4.1C63.2,92.1,64.7,93.7,66.9,93.7z M73.6,95.3H72V80.4
		l1.7,1.1v4.4c0.8-1.3,2-2.1,3.5-2.1c2.6,0,3.9,2.1,3.9,4.9v6.6h-1.7V89c0-2.2-0.8-3.4-2.6-3.4c-1.9,0-3.1,1.8-3.1,4.1L73.6,95.3z
		 M91.3,93.4c-0.8,1.4-2.1,2.1-3.7,2.1c-2.9,0-5-2.5-5-5.8c0-3.4,2.1-5.9,5-5.9c1.6,0,2.9,0.8,3.7,2.2v-2h1.7v11.3h-1.7V93.4z
		 M84.2,89.7c0,2.3,1.4,4.1,3.5,4.1c2,0,3.5-1.7,3.5-4.1c0-2.4-1.5-4.1-3.5-4.1S84.2,87.3,84.2,89.7L84.2,89.7z M97.2,95.3h-1.7V84
		h1.7v2.4c0.8-1.7,2.1-2.6,3.7-2.6v2.1c-2-0.3-3.7,1.2-3.7,4V95.3z M117.8,90.3h-8c0.2,2,1.7,3.4,3.7,3.4c1.3,0,2.6-0.4,3.6-1.3v1.8
		c-1.1,0.8-2.3,1.2-3.6,1.2c-3.2,0-5.4-2.3-5.4-5.8c0-3.4,2-5.9,5-5.9c2.9,0,4.8,2.4,4.8,5.6C117.9,89.7,117.9,90,117.8,90.3z
		 M109.9,88.8h6.2c-0.2-2-1.3-3.4-3-3.4C111.3,85.5,110.1,87,109.9,88.8L109.9,88.8z M121.4,95.3h-1.7V84h1.7v2.4
		c0.8-1.7,2.1-2.6,3.7-2.6v2.1c-2-0.3-3.7,1.2-3.7,4V95.3z M134.9,90.3H127c0.2,2,1.7,3.4,3.7,3.4c1.3,0,2.6-0.4,3.6-1.3v1.8
		c-1.1,0.8-2.3,1.2-3.6,1.2c-3.2,0-5.4-2.3-5.4-5.8c0-3.4,2-5.9,5-5.9c2.9,0,4.8,2.4,4.8,5.6C134.9,89.7,134.9,90,134.9,90.3z
		 M127,88.8h6.2c-0.2-2-1.3-3.4-3-3.4C128.3,85.5,127.2,87,127,88.8L127,88.8z M144.8,93.4c-0.8,1.4-2.1,2.2-3.7,2.2
		c-2.9,0-5-2.5-5-5.8c0-3.4,2.1-5.9,5-5.9c1.6,0,2.9,0.8,3.7,2.3v-5.6l1.7,1.1v13.8h-1.7V93.4z M137.8,89.7c0,2.3,1.4,4.1,3.5,4.1
		c2,0,3.5-1.7,3.5-4.1c0-2.4-1.5-4.1-3.5-4.1C139.2,85.6,137.8,87.3,137.8,89.7z M103.7,91.5c0,1.6,0.8,2.2,2,2.2
		c0.8,0,1.7-0.3,2.3-0.8v1.8c-0.7,0.6-1.7,0.8-2.5,0.8c-2.2,0-3.5-1.1-3.5-4.1v-11l1.7,1.1C103.7,81.6,103.7,91.5,103.7,91.5z
		 M106.4,83.9c-0.2-0.1-0.3-0.2-0.5-0.2c-0.2,0-0.3,0-0.5,0c-0.2,0.1-0.3,0.2-0.5,0.2c-0.2,0.1-0.2,0.2-0.4,0.4
		c-0.1,0.2-0.2,0.3-0.2,0.5c0,0.2,0,0.4,0,0.5s0.1,0.4,0.2,0.5c0.2,0.2,0.2,0.3,0.4,0.4l0,0c0.2,0.2,0.5,0.2,0.7,0.2
		c0.2,0,0.5-0.1,0.7-0.2l1.7-1.2L106.4,83.9z M65,77.4c1.2,0,2-0.6,2-1.6c0-0.6-0.3-1.1-1.1-1.4l-2.4-1.1c-1.2-0.6-1.9-1.4-1.9-2.9
		c0-2,1.4-3.2,3.5-3.2c1.2,0,2.3,0.4,3.1,1.1v2c-0.9-0.9-2-1.4-3.1-1.4s-1.8,0.5-1.8,1.5c0,0.7,0.3,1.1,1.1,1.4l2.4,1.1
		c1.3,0.6,1.9,1.5,1.9,2.7c0,2.2-1.6,3.5-3.8,3.5c-1.4,0-2.6-0.4-3.4-1.1v-2C62.6,77,63.8,77.4,65,77.4z M71.8,75
		c0,1.6,0.8,2.2,2,2.2c0.8,0,1.7-0.3,2.3-0.8v1.8c-0.7,0.6-1.7,0.8-2.5,0.8c-2.2,0-3.5-1.1-3.5-4.1V65l1.7-1.1L71.8,75z M85.4,76.8
		c-0.8,1.4-2.1,2.1-3.7,2.1c-2.9,0-5-2.5-5-5.8c0-3.4,2.1-5.9,5-5.9c1.6,0,2.9,0.8,3.7,2.2v-2h1.7v11.3h-1.7V76.8z M78.3,73.1
		c0,2.3,1.4,4.1,3.5,4.1c2,0,3.5-1.7,3.5-4.1c0-2.4-1.5-4.1-3.5-4.1C79.8,69,78.3,70.8,78.3,73.1z M91.3,78.8h-1.7V67.5h1.7v2
		c0.8-1.3,2-2.1,3.5-2.1c2.6,0,3.9,2.1,3.9,4.9v6.6h-1.7v-6.4c0-2.2-0.8-3.4-2.6-3.4c-1.9,0-3.1,1.8-3.1,4.1L91.3,78.8z M108.9,76.8
		c-0.8,1.4-2.1,2.2-3.7,2.2c-2.9,0-5-2.5-5-5.8c0-3.4,2.1-5.9,5-5.9c1.6,0,2.9,0.8,3.7,2.3V65l1.7-1.1v14.9h-1.7V76.8z M101.9,73.1
		c0,2.3,1.4,4.1,3.5,4.1c2,0,3.5-1.7,3.5-4.1c0-2.4-1.5-4.1-3.5-4.1C103.4,69,101.9,70.8,101.9,73.1z M139.7,76.8
		c-0.8,1.4-2.1,2.2-3.7,2.2c-2.9,0-5-2.5-5-5.8c0-3.4,2.1-5.9,5-5.9c1.6,0,2.9,0.8,3.7,2.3V65l1.7-1.1v14.9h-1.7V76.8z M132.6,73.1
		c0,2.3,1.4,4.1,3.5,4.1c2,0,3.5-1.7,3.5-4.1c0-2.4-1.5-4.1-3.5-4.1C134,69,132.6,70.8,132.6,73.1z M121.2,76.8
		c-0.8,1.4-2.1,2.1-3.7,2.1c-2.9,0-5-2.5-5-5.8c0-3.4,2.1-5.9,5-5.9c1.6,0,2.9,0.8,3.7,2.2v-2h1.7v11.3h-1.7V76.8z M114.2,73.1
		c0,2.3,1.4,4.1,3.5,4.1c2,0,3.5-1.7,3.5-4.1c0-2.4-1.5-4.1-3.5-4.1C115.6,69,114.2,70.8,114.2,73.1z M127.1,78.8h-1.7V67.5h1.7v2.4
		c0.8-1.7,2.1-2.6,3.7-2.6v2.1c-2-0.3-3.7,1.2-3.7,4V78.8z M74.1,69.9c0.2,0.2,0.4,0.2,0.6,0.2c0.2,0,0.5,0,0.6-0.1
		c0.2-0.1,0.4-0.2,0.5-0.5c0.2-0.2,0.2-0.4,0.2-0.6c0-0.2,0-0.4,0-0.5c0-0.2-0.1-0.4-0.2-0.5c-0.1-0.2-0.2-0.3-0.4-0.4l0,0
		c-0.2-0.2-0.5-0.2-0.7-0.2c-0.2,0-0.5,0.1-0.7,0.2l-1.7,1.2L74.1,69.9z"/>
</g>
</svg>
