<svg width="164" height="75" viewBox="0 0 164 75" fill="none" xmlns="http://www.w3.org/2000/svg">
<rect width="164" height="75" fill="white"/>
<path fill-rule="evenodd" clip-rule="evenodd" d="M100.674 50.5511C91.9318 57.015 79.216 60.4588 68.2486 60.4588C52.8837 60.4588 39.1083 54.7897 28.6177 45.3588C27.823 44.6171 28.5118 43.6104 29.5184 44.1932C40.8037 50.7631 54.7381 54.6837 69.1493 54.6837C78.8451 54.6837 89.5476 52.6704 99.4023 48.4848C100.886 47.902 102.104 49.4915 100.674 50.5511Z" fill="#FF9900"/>
<path fill-rule="evenodd" clip-rule="evenodd" d="M104.328 46.3658C103.216 44.9353 96.9108 45.677 94.1027 46.0479C93.255 46.1539 93.0961 45.4121 93.8908 44.8823C98.9241 41.3325 107.136 42.3921 108.09 43.5577C109.044 44.7233 107.825 52.9886 103.11 56.9093C102.368 57.4921 101.679 57.1742 101.997 56.3795C103.057 53.7304 105.441 47.8493 104.328 46.3658Z" fill="#FF9900"/>
<path fill-rule="evenodd" clip-rule="evenodd" d="M94.2621 19.9803V16.5365C94.2621 16.0067 94.633 15.6888 95.1098 15.6888L110.475 15.6888C110.952 15.6888 111.375 16.0596 111.375 16.5365V19.4505C111.375 19.9274 110.952 20.5632 110.21 21.6228L102.262 32.9611C105.229 32.9081 108.355 33.3319 111.005 34.8154C111.587 35.1333 111.746 35.6632 111.799 36.14V39.7958C111.799 40.3256 111.269 40.9084 110.687 40.5905C105.971 38.1003 99.6663 37.8354 94.474 40.6435C93.9442 40.9084 93.3614 40.3786 93.3614 39.8488V36.3519C93.3614 35.8221 93.3614 34.8684 93.9442 34.0207L103.163 20.8281H95.1628C94.686 20.8281 94.2621 20.4572 94.2621 19.9803ZM38.2596 41.3323H33.5972C33.1733 41.2793 32.8025 40.9614 32.7495 40.5375V16.5895C32.7495 16.1126 33.1733 15.7418 33.6502 15.7418H37.9947C38.4716 15.7418 38.7895 16.1126 38.8425 16.5365V19.6625H38.9484C40.0611 16.6424 42.2333 15.2119 45.0944 15.2119C48.0084 15.2119 49.8628 16.6424 51.1344 19.6625C52.247 16.6424 54.8432 15.2119 57.5982 15.2119C59.5586 15.2119 61.6779 16.0067 63.0025 17.861C64.486 19.8744 64.1681 22.7884 64.1681 25.3846V40.5375C64.1681 41.0144 63.7442 41.3853 63.2674 41.3853H58.6579C58.1811 41.3323 57.8102 40.9614 57.8102 40.5375V27.8217C57.8102 26.8151 57.9161 24.2719 57.7042 23.3182C57.3333 21.7288 56.3267 21.2519 54.9491 21.2519C53.8365 21.2519 52.6179 21.9937 52.1411 23.2123C51.6642 24.4309 51.7172 26.4442 51.7172 27.8217V40.5375C51.7172 41.0144 51.2933 41.3853 50.8165 41.3853L46.154 41.3853C45.6772 41.3323 45.3063 40.9614 45.3063 40.5375V27.8217C45.3063 25.1726 45.7302 21.1989 42.4453 21.1989C39.1074 21.1989 39.2133 25.0137 39.2133 27.8217V40.5375C39.1604 40.9614 38.7895 41.3323 38.2596 41.3323ZM124.621 15.2119C131.562 15.2119 135.324 21.146 135.324 28.7225C135.324 36.034 131.191 41.8621 124.621 41.8621C117.839 41.8621 114.131 35.9281 114.131 28.5105C114.078 21.04 117.839 15.2119 124.621 15.2119ZM124.621 20.1393C121.177 20.1393 120.965 24.8547 120.965 27.7688C120.965 30.6828 120.912 36.9347 124.568 36.9347C128.171 36.9347 128.383 31.9014 128.383 28.8284C128.383 26.8151 128.277 24.3779 127.694 22.4705C127.164 20.7751 126.105 20.1393 124.621 20.1393ZM144.278 41.3323H139.615C139.138 41.2793 138.767 40.9084 138.767 40.4846V16.4835C138.82 16.0596 139.191 15.6888 139.668 15.6888H144.013C144.436 15.6888 144.754 16.0067 144.86 16.3775V20.0333H144.966C146.291 16.7484 148.092 15.2119 151.324 15.2119C153.391 15.2119 155.457 15.9537 156.781 18.02C158 19.9274 158 23.1593 158 25.4905V40.5905C157.947 41.0144 157.576 41.3323 157.099 41.3323H152.437C152.013 41.2793 151.642 40.9614 151.589 40.5905V27.5568C151.589 24.9077 151.907 21.093 148.675 21.093C147.562 21.093 146.503 21.8347 145.973 23.0004C145.337 24.4839 145.231 25.9144 145.231 27.5568V40.4846C145.178 40.9614 144.754 41.3323 144.278 41.3323ZM82.0232 29.8881C82.0232 31.6895 82.0761 33.226 81.1754 34.8684C80.4337 36.193 79.2681 36.9877 77.9435 36.9877C76.1421 36.9877 75.0825 35.6102 75.0825 33.5968C75.0825 29.6232 78.6323 28.8814 82.0232 28.8814V29.8881ZM86.7386 41.2793C86.4207 41.5442 85.9968 41.5972 85.626 41.3853C84.0895 40.1137 83.7716 39.4779 82.9239 38.2593C80.3807 40.8554 78.5263 41.6502 75.2414 41.6502C71.3207 41.6502 68.2477 39.213 68.2477 34.3916C68.2477 30.5768 70.314 28.0337 73.2281 26.7621C75.7712 25.6495 79.3211 25.4375 82.0232 25.1197V24.5368C82.0232 23.4242 82.1291 22.0997 81.4403 21.146C80.8575 20.2982 79.7979 19.9274 78.8442 19.9274C77.0428 19.9274 75.4533 20.8281 75.0825 22.7354C74.9765 23.1593 74.7116 23.5831 74.2877 23.5831L69.7842 23.1063C69.4133 23.0003 68.9895 22.7354 69.0954 22.1526C70.1551 16.6425 75.0825 15 79.533 15C81.8112 15 84.7783 15.5828 86.5797 17.3312C88.8579 19.4505 88.646 22.3116 88.646 25.3846V32.6432C88.646 34.8154 89.5467 35.7691 90.3944 36.9877C90.7123 37.4116 90.7653 37.9414 90.3944 38.2063C89.3877 39.001 87.6923 40.4846 86.7386 41.2793ZM20.8284 29.8881C20.8284 31.6895 20.8814 33.226 19.9807 34.8684C19.2389 36.193 18.0733 36.9877 16.7488 36.9877C14.9474 36.9877 13.8877 35.6102 13.8877 33.5968C13.8877 29.6232 17.4375 28.8814 20.8284 28.8814V29.8881ZM25.4909 41.2793C25.173 41.5442 24.7491 41.5972 24.3782 41.3853C22.8418 40.1137 22.5239 39.4779 21.6761 38.2593C19.133 40.8554 17.2786 41.6502 13.9937 41.6502C10.073 41.6502 7 39.213 7 34.3916C7 30.5768 9.06631 28.0337 11.9803 26.7621C14.5235 25.6495 18.0733 25.4375 20.7754 25.1197V24.5368C20.7754 23.4242 20.8814 22.0997 20.1926 21.146C19.6098 20.2982 18.5502 19.9274 17.5965 19.9274C15.7951 19.9274 14.2056 20.8281 13.8347 22.7354C13.7288 23.1593 13.4639 23.5831 13.04 23.5831L8.53649 23.1063C8.16561 23.0003 7.74176 22.7354 7.84772 22.1526C8.90737 16.6425 13.8347 15 18.2853 15C20.5635 15 23.5305 15.5828 25.3319 17.3312C27.6102 19.4505 27.3982 22.3116 27.3982 25.3846L27.3982 32.6432C27.3982 34.8154 28.2989 35.7691 29.1467 36.9877C29.4646 37.4116 29.5175 37.9414 29.1467 38.2063C28.14 39.001 26.4446 40.4846 25.4909 41.2793Z" fill="black"/>
</svg>
