<svg width="164" height="75" viewBox="0 0 164 75" fill="none" xmlns="http://www.w3.org/2000/svg">
<rect width="164" height="75" fill="white"/>
<path d="M44.1273 30.4836H26.5086V35.7115H39.0049C38.3857 43.0292 32.2882 46.1701 26.5297 46.1701C24.7055 46.1781 22.8979 45.8227 21.2125 45.1244C19.5272 44.4262 17.9978 43.3992 16.7137 42.1035C15.4296 40.8077 14.4165 39.2691 13.7335 37.5775C13.0505 35.8859 12.7114 34.0752 12.7359 32.2511C12.7359 24.3367 18.8631 18.2434 26.5466 18.2434C32.4739 18.2434 35.9667 22.0218 35.9667 22.0218L39.6255 18.2307C39.6255 18.2307 34.9253 13 26.3552 13C15.442 13 7 22.2104 7 32.1582C7 41.9062 14.9411 51.4121 26.631 51.4121C36.9138 51.4121 44.4411 44.3674 44.4411 33.951C44.4411 31.7529 44.1217 30.4836 44.1217 30.4836H44.1273Z" fill="#4885ED"/>
<path d="M58.5623 26.6967C51.3319 26.6967 46.1504 32.3496 46.1504 38.9397C46.1504 45.6298 51.1742 51.3868 58.6467 51.3868C65.4099 51.3868 70.9502 46.218 70.9502 39.0833C70.9502 30.9213 64.5051 26.6953 58.5623 26.6953V26.6967ZM58.6326 31.5461C62.1873 31.5461 65.5563 34.4211 65.5563 39.0523C65.5563 43.5836 62.2014 46.5417 58.6158 46.5417C54.6755 46.5417 51.5795 43.3866 51.5795 39.0157C51.5795 34.7377 54.6473 31.5461 58.6439 31.5461H58.6326Z" fill="#DB3236"/>
<path d="M85.5545 26.6967C78.324 26.6967 73.1426 32.3496 73.1426 38.9397C73.1426 45.6298 78.1664 51.3868 85.6389 51.3868C92.4021 51.3868 97.9424 46.218 97.9424 39.0833C97.9424 30.9213 91.4972 26.6953 85.5545 26.6953V26.6967ZM85.6248 31.5461C89.1795 31.5461 92.5485 34.4211 92.5485 39.0523C92.5485 43.5836 89.1936 46.5417 85.6079 46.5417C81.6677 46.5417 78.5717 43.3866 78.5717 39.0157C78.5717 34.7377 81.6395 31.5461 85.6361 31.5461H85.6248Z" fill="#F4C20D"/>
<path d="M112.03 26.7111C105.393 26.7111 100.178 32.523 100.178 39.047C100.178 46.4772 106.225 51.4054 111.914 51.4054C115.432 51.4054 117.304 50.008 118.669 48.4051V50.8396C118.669 55.0994 116.082 57.6507 112.179 57.6507C108.407 57.6507 106.516 54.8461 105.846 53.2559L101.101 55.226C102.784 58.7864 106.173 62.4972 112.218 62.4972C118.832 62.4972 123.845 58.3417 123.845 49.6252V27.4527H118.689V29.5438C117.098 27.827 114.92 26.7111 112.032 26.7111H112.03ZM112.508 31.552C115.762 31.552 119.102 34.3299 119.102 39.0737C119.102 43.8963 115.767 46.5532 112.436 46.5532C108.898 46.5532 105.607 43.6824 105.607 39.1187C105.607 34.3791 109.026 31.552 112.508 31.552Z" fill="#4885ED"/>
<path d="M146.889 26.6816C140.629 26.6816 135.373 31.6633 135.373 39.0091C135.373 46.7855 141.231 51.397 147.475 51.397C152.699 51.397 155.919 48.5403 157.819 45.9792L153.55 43.1393C152.443 44.8562 150.591 46.5378 147.502 46.5378C144.032 46.5378 142.436 44.6381 141.447 42.7946L158 35.9272L157.156 33.9149C155.557 29.9746 151.825 26.6816 146.889 26.6816ZM147.104 31.4297C149.36 31.4297 150.982 32.6287 151.672 34.0669L140.616 38.6868C140.138 35.1096 143.529 31.4297 147.09 31.4297H147.104Z" fill="#DB3236"/>
<path d="M127.469 50.665H132.906V14.278H127.469V50.665Z" fill="#3CBA54"/>
</svg>
