<svg width="164" height="75" viewBox="0 0 164 75" fill="none" xmlns="http://www.w3.org/2000/svg">
<rect width="164" height="75" fill="white"/>
<path d="M34.6062 20.0891H37.0758V25.1544C38.7643 25.1796 40.4275 25.1796 42.116 25.1544C42.1412 26.0113 42.1916 26.8933 42.0908 27.7753C40.4275 27.6997 38.7391 27.7249 37.0758 27.7501C37.0758 29.4385 37.101 31.1522 37.0758 32.8658C36.2442 32.8406 35.4126 32.8406 34.581 32.8406V27.7501C32.8421 27.6997 31.1033 27.7249 29.3645 27.7249V25.1544C31.1033 25.1796 32.8421 25.1796 34.581 25.1544C34.581 23.466 34.581 21.7776 34.6062 20.0891ZM6.20508 25.1544C12.4548 25.1544 18.7046 25.2048 24.9795 25.1544C25.0299 25.9861 24.9795 26.8429 25.0299 27.6997C19.6118 27.7501 14.1937 27.7249 8.77554 27.7249V53.4043C17.369 53.4043 25.9876 53.4295 34.581 53.3791V37.1751H37.0758C37.0758 43.4501 37.1262 49.7251 37.0758 56C26.7688 55.9496 16.4869 55.9748 6.20508 55.9748V25.1544ZM46.7529 25.1796C83.571 25.1796 120.389 25.2048 157.207 25.1796V55.9748C120.364 55.9748 83.5458 55.9496 46.7025 56C46.4505 55.5716 46.5765 55.0424 46.5513 54.5888C46.5513 44.8613 46.5261 35.1339 46.5513 25.4064C46.6017 25.356 46.7025 25.2552 46.7529 25.1796ZM59.9076 33.0926C58.194 33.521 56.5811 34.5291 55.5983 36.0159C53.5067 39.1408 53.8595 43.7777 56.6315 46.3734C59.7564 49.221 65.3006 48.969 67.9718 45.6174C70.4415 42.4925 70.1895 37.4775 67.1906 34.7559C65.2502 33.017 62.4277 32.513 59.9076 33.0926ZM72.3063 32.8658C72.2811 38.0068 72.2811 43.1729 72.2811 48.3138C73.138 48.3138 73.9948 48.3138 74.8516 48.2886C74.8012 44.7605 74.9272 41.2072 74.8012 37.6792L75.0784 37.8304C77.5481 41.1316 80.0429 44.4077 82.5126 47.709C83.067 48.6162 84.3018 48.2886 85.1838 48.2382C85.1334 43.1477 85.1587 38.032 85.1587 32.9414C84.3018 32.9162 83.4198 32.8154 82.563 32.9414C82.6134 36.4695 82.5126 39.9976 82.6134 43.5005C79.9169 40.174 77.3465 36.7215 74.7004 33.3446C74.1712 32.5886 73.0876 33.0422 72.3063 32.8658ZM88.5607 32.891C88.5859 38.032 88.5607 43.1477 88.5607 48.2634C91.7108 48.2886 94.8861 48.3138 98.0362 48.2382C98.011 47.5074 98.011 46.7766 98.011 46.0458C95.7429 46.0458 93.4749 45.9954 91.2068 46.0458C91.106 44.5085 91.106 42.9461 91.2068 41.3836C92.8952 41.434 94.5837 41.4088 96.2721 41.4088C96.2721 40.7032 96.2721 39.9724 96.2469 39.2416C94.5585 39.292 92.87 39.2164 91.1816 39.292C91.0556 37.9312 91.2068 36.5451 91.106 35.1843C93.3993 35.0079 95.7177 35.1591 98.0362 35.1087C98.011 34.3779 98.011 33.6219 98.0362 32.891C94.8861 32.8406 91.7108 32.8406 88.5607 32.891ZM101.413 32.9162C101.438 38.0068 101.438 43.1225 101.413 48.2382C102.119 48.2382 102.799 48.2382 103.48 48.2634V42.2657C105.118 42.2153 106.831 42.4421 108.419 41.9381C109.679 41.5348 110.838 40.6528 111.342 39.418C112.048 37.7548 111.796 35.6379 110.51 34.3275C109.452 33.269 107.864 32.9162 106.403 32.8658C104.74 32.8658 103.076 32.8154 101.413 32.9162ZM114.366 48.3138C117.214 48.2634 120.036 48.3138 122.884 48.3138C122.884 47.709 122.909 47.1294 122.859 46.5498C120.692 46.6002 118.549 46.5498 116.382 46.575C116.382 42.0137 116.357 37.4775 116.407 32.9414C115.727 32.8154 115.047 32.8658 114.366 32.8406C114.291 38.0068 114.265 43.1729 114.366 48.3138ZM124.598 32.891C124.623 35.8395 124.598 38.7628 124.598 41.7113C124.547 43.0973 124.774 44.5589 125.555 45.7434C127.244 48.4902 131.225 49.095 133.871 47.5074C135.61 46.4742 136.568 44.4581 136.593 42.4673C136.618 39.2668 136.593 36.0663 136.593 32.8658C135.913 32.8658 135.232 32.8406 134.552 32.8406V42.2153C134.577 43.4501 134.174 44.7605 133.241 45.5922C131.755 46.9278 129.26 46.8774 127.823 45.4661C126.992 44.6345 126.639 43.3997 126.639 42.2153C126.639 39.0904 126.664 35.9655 126.639 32.8658C125.958 32.8406 125.278 32.8406 124.598 32.891ZM142.162 33.5967C140.172 34.7559 139.617 37.7548 141.104 39.5188C142.062 40.6276 143.574 40.9552 144.935 41.4088C145.892 41.7113 147.001 42.0893 147.404 43.0973C147.833 44.3069 147.228 45.819 146.043 46.323C144.834 46.8522 143.347 46.7262 142.188 46.0458C141.658 45.7938 141.255 45.2645 140.65 45.1133C140.096 45.2897 139.894 45.945 139.642 46.449C141.558 48.339 144.733 48.9942 147.177 47.6838C149.37 46.5246 150.252 43.2485 148.689 41.2576C147.203 39.5692 144.683 39.67 142.918 38.41C141.734 37.5783 142.036 35.6127 143.246 34.9575C144.708 34.1511 146.547 34.5795 147.807 35.5623C148.589 36.0663 148.841 34.8567 149.143 34.3779C147.303 32.6894 144.305 32.2862 142.162 33.5967Z" fill="#EB0028"/>
<path d="M16.4863 32.9162C18.7796 32.8658 21.0476 32.9162 23.3409 32.891C23.3409 37.1499 23.3661 41.4088 23.3409 45.6677C24.7269 45.8189 26.1382 45.7181 27.5242 45.7433V48.2634C23.8449 48.2382 20.1656 48.2634 16.4863 48.2382C16.5115 47.4318 16.5115 46.6001 16.4863 45.7685C17.8976 45.7181 19.334 45.7685 20.7704 45.7433C20.7956 42.2908 20.7704 38.8635 20.7704 35.4111C19.334 35.4111 17.9228 35.4363 16.4863 35.3859C16.5115 34.5794 16.5115 33.7478 16.4863 32.9162Z" fill="#EB0028"/>
<path d="M103.479 34.4787C105.092 34.5795 106.831 34.2015 108.343 34.9827C109.754 35.7639 109.981 37.7296 109.276 39.04C108.772 40.0228 107.638 40.5268 106.579 40.6024C105.546 40.6528 104.513 40.6276 103.479 40.6276V34.4787ZM60.1344 35.5623C61.6716 35.0583 63.5113 35.1591 64.8469 36.1419C65.9809 36.9483 66.5605 38.3596 66.6865 39.7204C66.8377 41.1316 66.6865 42.6185 65.9557 43.8533C64.3429 46.6002 59.7564 46.6254 58.0427 43.9793C57.0851 42.4925 56.9843 40.6024 57.3371 38.8888C57.6395 37.402 58.6727 36.0663 60.1344 35.5623Z" fill="#EB0028"/>
</svg>
