<svg width="164" height="75" viewBox="0 0 164 75" fill="none" xmlns="http://www.w3.org/2000/svg">
<rect width="164" height="75" fill="white"/>
<path d="M34.6143 33.7173L32.7897 46.4284C32.4127 48.716 31.1419 49.3349 30.0142 49.3349H21.5593L25.1209 26.0531C21.5635 24.1253 17.9322 22.8668 15.0408 22.8668C12.2882 22.8668 10.0537 23.7492 8.56895 25.8623C7.52132 27.364 7 29.2177 7 31.4242C7 38.043 11.3928 47.2272 18.9102 54.7188C25.6118 61.3425 32.9857 65.0498 38.3511 65.0498C41.029 65.0498 43.1877 64.0785 44.6044 62.1384C45.72 60.6372 46.1642 58.6906 46.1642 56.486C46.1646 50.0561 41.7421 41.039 34.6143 33.7173Z" fill="#00B4FF"/>
<path d="M19.4339 9.09194C18.0922 9.09194 16.9762 10.1596 16.6797 11.8343L15.4902 19.5079H26.1222L21.5575 49.3343H30.012C31.1397 49.3343 32.4101 48.7164 32.7875 46.4278L36.654 19.5079H44.3002C45.6469 19.5079 46.7604 18.4477 47.0582 16.7729L48.2514 9.09145L19.4339 9.09194ZM69.0244 9.10529H59.4392C58.6915 9.10529 58.3007 9.76667 58.3007 10.4191C58.3007 11.1062 58.6919 11.8022 59.4392 11.8022H63.0643V32.48C63.0643 33.1967 63.5643 33.7583 64.202 33.7583C64.8901 33.7583 65.4281 33.1972 65.4281 32.48V11.8032H69.0239C69.7713 11.8032 70.1621 11.1072 70.1621 10.4191C70.1625 9.76667 69.7717 9.10529 69.0244 9.10529ZM83.328 30.9575H75.7335V22.3616H80.829C81.5764 22.3616 81.9672 21.6666 81.9672 20.9785C81.9672 20.3265 81.576 19.6646 80.829 19.6646H75.7326V11.8032H83.3284C84.0762 11.8032 84.4666 11.1072 84.4666 10.4191C84.4666 9.76667 84.0758 9.10578 83.3284 9.10578H74.4781C73.8455 9.10578 73.3692 9.65545 73.3692 10.3845V32.3762C73.3692 33.1048 73.8459 33.6545 74.4781 33.6545H83.3284C84.095 33.6545 84.4962 32.9763 84.4962 32.3055C84.4962 31.656 84.1308 30.9565 83.3284 30.9565L83.328 30.9575ZM97.7351 30.9575H90.8162V10.2788C90.8162 9.56202 90.2769 9 89.5892 9C88.9511 9 88.4515 9.56202 88.4515 10.2788V32.3742C88.4515 33.0914 88.964 33.6535 89.6192 33.6535H97.7351C98.4758 33.6535 98.814 32.9545 98.814 32.3045C98.814 31.6555 98.4758 30.956 97.7351 30.956V30.9575ZM108.995 21.284L104.82 18.5999C103.578 17.8006 103.024 16.7497 103.024 15.1936C103.024 13.167 104.314 11.6974 106.091 11.6974H106.297C108.133 11.6974 109.325 12.904 109.483 14.9302C109.56 15.6662 109.963 16.0537 110.649 16.0537C111.308 16.0537 111.787 15.5011 111.787 14.7399C111.787 11.4681 109.427 9.00049 106.298 9.00049H106.092C103.422 9.00049 100.661 11.343 100.661 15.2633C100.661 17.8219 101.63 19.7368 103.54 20.9528L107.627 23.6008C109.052 24.535 109.687 25.6502 109.687 27.2166C109.687 29.5527 108.357 31.0613 106.298 31.0613H106.004C103.962 31.0613 102.642 29.5112 102.642 27.1128C102.642 26.2685 102.034 25.7639 101.445 25.7639C100.865 25.7639 100.277 26.2275 100.277 27.1128C100.277 31.4761 103.158 33.7583 106.004 33.7583H106.298C109.648 33.7583 112.081 31.007 112.081 27.2171C112.081 23.9335 110.403 22.1782 108.996 21.2835L108.995 21.284ZM124.916 9.10529H115.333C114.585 9.10529 114.194 9.76667 114.194 10.4191C114.194 11.1062 114.585 11.8022 115.333 11.8022H118.958V32.48C118.958 33.1967 119.458 33.7583 120.096 33.7583C120.783 33.7583 121.322 33.1972 121.322 32.48V11.8032H124.917C125.665 11.8032 126.055 11.1072 126.055 10.4191C126.055 9.76667 125.664 9.10529 124.916 9.10529ZM135.786 9.10529H130.787C130.155 9.10529 129.679 9.65446 129.679 10.3841V32.4795C129.679 33.1957 130.178 33.7578 130.817 33.7578C131.504 33.7578 132.042 33.1967 132.042 32.4795V22.8855H134.923L138.952 33.0257C139.15 33.4903 139.506 33.7583 139.932 33.7583C140.671 33.7583 141.187 33.218 141.187 32.4449C141.187 32.303 141.187 32.0658 141.089 31.832L137.383 22.6359C139.786 21.9325 141.452 19.2979 141.452 16.1694V15.8555C141.451 12.1334 138.91 9.10529 135.785 9.10529H135.786ZM139.088 15.8555V16.1694C139.088 18.4417 137.638 20.2227 135.787 20.2227H132.042V11.8032H135.787C137.607 11.8032 139.089 13.6213 139.088 15.8555ZM157.939 31.9896L152.44 10.0682C152.268 9.38951 151.791 9.00049 151.13 9.00049H151.065C150.425 9.04251 149.995 9.41077 149.819 10.0682L144.322 31.9891C144.204 32.4469 144.26 32.9061 144.475 33.2496C144.68 33.5783 145.007 33.7588 145.396 33.7588C145.94 33.7588 146.385 33.3806 146.531 32.7949L147.801 27.66H154.46L155.731 32.7949C155.881 33.3979 156.304 33.7588 156.865 33.7588C157.254 33.7588 157.581 33.5778 157.786 33.2496C158 32.9061 158.056 32.4464 157.939 31.9896ZM153.779 24.9631H148.482L151.13 14.1576L153.779 24.9631Z" fill="#001E82"/>
</svg>
