<svg width="94" height="42" viewBox="0 0 94 42" fill="none" xmlns="http://www.w3.org/2000/svg">
<path d="M61.4388 5.97303C58.4408 5.97303 56.0035 8.48728 56.0035 11.5739C56.0035 15.9687 57.5843 19.9874 60.189 23.0739C61.2675 24.3495 62.5173 25.4614 63.9111 26.3731C65.3863 24.0751 66.401 21.4861 66.8936 18.7634C67.3863 16.0408 67.3465 13.2414 66.7767 10.5355C66.7572 10.4169 66.7261 10.2983 66.6988 10.1798C66.3872 8.96813 65.7027 7.89865 64.7521 7.13782C63.8015 6.37699 62.638 5.96748 61.4427 5.97303H61.4388ZM27.9083 22.1541C28.4456 23.6504 29.1425 25.0649 29.9835 26.3731C31.3696 25.4614 32.6233 24.3495 33.7018 23.0739C36.3975 19.9119 37.889 15.8177 37.8911 11.5739C37.8911 8.48728 35.4538 5.97303 32.452 5.97303C29.9212 5.97303 27.7993 7.76366 27.1958 10.1798C27.1724 10.2983 27.1374 10.4128 27.1179 10.5314C26.3048 14.4049 26.5821 18.4431 27.9161 22.1541H27.9083ZM88.2608 19.415L93.443 22.0887C91.5112 26.0199 88.5827 29.3143 84.9805 31.6084C81.3783 33.9025 77.2425 35.1071 73.0296 35.0891C70.4785 35.089 67.9449 34.647 65.5308 33.7809C60.5935 38.9379 53.9075 41.8246 46.9434 41.806C43.4948 41.8154 40.0782 41.1111 36.8889 39.7334C33.6996 38.3557 30.8001 36.3316 28.3561 33.7768C25.9422 34.644 23.4085 35.086 20.8573 35.085C16.4714 35.1047 12.1728 33.7988 8.47445 31.3232C4.77612 28.8477 1.83427 25.307 0 21.1239L5.30289 18.6914C6.67047 21.812 8.86404 24.4536 11.622 26.3014C14.3799 28.1491 17.5858 29.1248 20.8573 29.1122C22.1187 29.1122 23.353 28.965 24.5405 28.6952C22.1302 24.5502 20.857 19.7868 20.8612 14.9303C20.8635 12.789 21.1119 10.656 21.6009 8.57721C22.878 3.63868 27.2464 0.000190011 32.4481 0.000190011L32.7557 0.0083658C33.0671 0.0165422 33.3864 0.0410724 33.6979 0.073778C39.32 0.715624 43.6846 5.62145 43.6846 11.5779C43.6846 19.5826 39.795 26.6511 33.8653 30.8906C37.5405 34.0958 42.1698 35.8463 46.9473 35.8373C51.722 35.8433 56.3479 34.0931 60.0216 30.8906C54.0918 26.6511 50.2023 19.5785 50.2023 11.5779C50.2023 5.61736 54.5707 0.711536 60.1851 0.073778C60.4966 0.0410724 60.808 0.0165422 61.1273 0.0083658L61.4388 0.000190011C64.0209 -0.0152156 66.5289 0.90659 68.5382 2.60961C70.5474 4.31263 71.9347 6.69226 72.465 9.34579C73.8249 15.9764 72.71 22.9022 69.3503 28.6952C70.5378 28.965 71.7642 29.1122 73.0296 29.1122C79.6874 29.1122 85.4536 25.1589 88.253 19.415H88.2608Z" fill="#232026"/>
</svg>
