<?xml version="1.0" encoding="utf-8"?>
<!-- Generator: Adobe Illustrator 23.0.1, SVG Export Plug-In . SVG Version: 6.00 Build 0)  -->
<svg version="1.1" id="Layer_1" xmlns="http://www.w3.org/2000/svg" xmlns:xlink="http://www.w3.org/1999/xlink" x="0px" y="0px"
	 viewBox="0 0 163 163" style="enable-background:new 0 0 163 163;" xml:space="preserve">
<style type="text/css">
	.st0{fill-rule:evenodd;clip-rule:evenodd;}
</style>
<g>
	<path class="st0" d="M97.2,94.2c-7.6,6.3-18.5,9.8-27.9,9.8C56,104,44.1,98.4,35.1,89c-0.7-0.8-0.1-1.7,0.8-1.1
		c9.7,6.4,21.7,10.3,34.2,10.3c8.4,0,17.5-2,26.1-6.1C97.3,91.5,98.4,93.2,97.2,94.2z"/>
	<path class="st0" d="M100.3,90c-0.9-1.4-6.4-0.6-8.8-0.3c-0.7,0.2-0.8-0.6-0.2-1.2c4.3-3.4,11.4-2.4,12.2-1.4
		c0.8,1.2-0.2,9.5-4.3,13.3c-0.7,0.6-1.2,0.2-0.9-0.6C99.2,97.4,101.2,91.5,100.3,90z"/>
	<path class="st0" d="M91.7,64v-3.5c0-0.5,0.4-0.9,0.8-0.9h13.2c0.4,0,0.8,0.5,0.8,0.9v3c0,0.5-0.4,1.1-1,2.1l-6.9,11.2
		c2.5-0.2,5.3,0.3,7.6,1.8c0.5,0.3,0.7,0.9,0.7,1.4v3.6c0,0.5-0.5,1.1-0.9,0.8c-4.1-2.4-9.5-2.7-13.9,0C91.5,84.6,91,84,91,83.6
		v-3.4c0-0.6,0-1.5,0.5-2.2l7.9-13.2h-6.9C92,64.7,91.7,64.4,91.7,64L91.7,64z M117.8,64.1c-3,0-3.1,4.7-3.1,7.5
		c0,2.8-0.1,9.2,3.1,9.2c3.1,0,3.3-5.1,3.3-8.1c0-1.9-0.1-4.3-0.6-6.3C120,64.7,119.1,64.1,117.8,64.1z M117.8,59.3
		c6,0,9.2,5.9,9.2,13.3c0,7.2-3.5,12.9-9.2,12.9c-5.8,0-9-5.8-9-13.2C108.7,65,111.9,59.3,117.8,59.3z M85.2,85.1
		c-0.3,0.2-0.8,0.2-0.9,0c-1.4-1.2-2.3-3-2.3-3c-2.2,2.5-3.8,3.3-6.6,3.3c-3.4,0-6-2.4-6-7.2c0-3.7,1.8-6.3,4.3-7.5
		c2.2-1.2,5.3-1.4,7.6-1.7c0,0,0.2-2.8-0.5-3.9c-0.5-0.9-1.4-1.2-2.2-1.2c-1.5,0-3,0.9-3.3,2.7c-0.1,0.5-0.4,0.9-0.8,0.9l-3.8-0.5
		c-0.3-0.2-0.7-0.5-0.6-1.1c0.8-5.3,5.1-7,8.9-7c1.9,0,4.5,0.6,6.1,2.2c1.9,2.1,1.8,5,1.8,7.9v7.2c0,2.2,0.8,3.1,1.5,4.3
		c0.2,0.5,0.3,0.9,0,1.2C87.4,82.7,85.2,85.1,85.2,85.1z M81.1,73.7c0,1.8,0.1,3.3-0.8,5c-0.7,1.4-1.7,2.1-2.8,2.1
		c-1.5,0-2.4-1.4-2.4-3.3c0-4,3.1-4.7,6-4.7V73.7z M32.4,85.1c-0.2,0.2-0.8,0.2-0.9,0c-1.4-1.2-2.3-3-2.3-3
		c-2.2,2.5-3.8,3.3-6.6,3.3c-3.4,0-6-2.4-6-7.2c0-3.7,1.8-6.3,4.3-7.5c2.2-1.2,5.3-1.4,7.6-1.7c0,0,0.2-2.8-0.5-3.9
		c-0.5-0.9-1.4-1.2-2.2-1.2c-1.5,0-3,0.9-3.3,2.7c-0.1,0.5-0.4,0.9-0.8,0.9l-3.8-0.5c-0.3-0.2-0.7-0.5-0.6-1.1c0.9-5.3,5.1-7,9-7
		c2,0,4.5,0.6,6.1,2.2c1.9,2.1,1.8,5,1.8,7.9v7.2c0,2.2,0.8,3.1,1.5,4.3c0.2,0.5,0.3,0.9,0,1.2C34.7,82.7,32.4,85.1,32.4,85.1z
		 M28.4,73.7c0,1.8,0.1,3.3-0.8,5C27,80,26,80.7,24.8,80.7c-1.5,0-2.4-1.4-2.4-3.3c0-4,3.1-4.7,6-4.7V73.7L28.4,73.7z M44.2,71.6
		c0-2.7-0.1-6.4,2.8-6.4c2.8,0,2.5,3.9,2.5,6.4v12.6c0,0.5,0.3,0.9,0.7,0.9h4c0.4,0,0.8-0.5,0.8-0.9V71.6c0-1.4-0.1-3.3,0.4-4.5
		c0.4-1.2,1.4-1.9,2.4-1.9c1.2,0,2.1,0.5,2.4,2.1c0.2,0.9,0.1,3.4,0.1,4.3v12.6c0,0.5,0.3,0.9,0.7,0.9H65c0.4,0,0.8-0.5,0.8-0.9
		V69.2c0-2.5,0.2-5.4-1-7.3c-1.1-1.8-3-2.7-4.7-2.7c-2.4,0-4.6,1.5-5.6,4.5c-1.1-3-2.7-4.5-5.2-4.5S45,60.6,44,63.7h-0.1v-3
		c0-0.6-0.4-0.9-0.8-0.9h-3.7c-0.4,0-0.8,0.3-0.8,0.9v23.5c0,0.5,0.4,0.9,0.8,0.9h4c0.4,0,0.8-0.5,0.8-0.9L44.2,71.6z M135.5,84.2
		c0,0.5-0.4,0.9-0.8,0.9h-4c-0.4,0-0.8-0.5-0.8-0.9V60.7c0-0.6,0.4-0.9,0.8-0.9h3.7c0.4,0,0.8,0.5,0.8,0.6V64h0.1
		c1.1-3.1,2.7-4.7,5.5-4.7c1.8,0,3.5,0.8,4.7,2.7c1.1,2,1.1,5.1,1.1,7.3v15c-0.1,0.5-0.4,0.8-0.8,0.8h-4c-0.4,0-0.7-0.3-0.7-0.8V70
		c0-4.8-1.6-4.8-2.5-4.8c-1.1,0-2,0.9-2.3,1.8c-0.5,1.5-0.6,2.8-0.6,4.5V84.2z"/>
</g>
</svg>
