<?xml version="1.0" encoding="utf-8"?>
<!-- Generator: Adobe Illustrator 23.0.1, SVG Export Plug-In . SVG Version: 6.00 Build 0)  -->
<svg version="1.1" id="Layer_1" xmlns="http://www.w3.org/2000/svg" xmlns:xlink="http://www.w3.org/1999/xlink" x="0px" y="0px"
	 viewBox="0 0 163 163" style="enable-background:new 0 0 163 163;" xml:space="preserve">
<path d="M146.5,70.2c0-1.3-1.3-2.4-2.8-2.4s-2.8,1.1-2.8,2.4v5.2c0,1.3,1.3,2.4,2.8,2.4s2.8-1.1,2.8-2.4V70.2z M131,63.3
	c0-1.3-1.3-2.4-2.8-2.4s-2.8,1.1-2.8,2.4v12c0,1.3,1.3,2.4,2.8,2.4s2.8-1.1,2.8-2.4V63.3z M115.5,54c0-1.3-1.3-2.4-2.8-2.4
	c-1.6,0-2.8,1.1-2.8,2.4v26.2c0,1.3,1.3,2.4,2.8,2.4c1.6,0,2.8-1.1,2.8-2.4V54z M99.9,63.3c0-1.3-1.3-2.4-2.8-2.4
	c-1.6,0-2.8,1.1-2.8,2.4v12c0,1.3,1.3,2.4,2.8,2.4c1.6,0,2.8-1.1,2.8-2.4V63.3z M84.3,70.2c0-1.3-1.3-2.4-2.8-2.4s-2.8,1.1-2.8,2.4
	v5.2c0,1.3,1.3,2.4,2.8,2.4s2.8-1.1,2.8-2.4V70.2z M68.8,63.3c0-1.3-1.3-2.4-2.8-2.4s-2.8,1.1-2.8,2.4v12c0,1.3,1.3,2.4,2.8,2.4
	s2.8-1.1,2.8-2.4V63.3z M53.2,54c0-1.3-1.3-2.4-2.8-2.4c-1.6,0-2.8,1.1-2.8,2.4v26.2c0,1.3,1.3,2.4,2.8,2.4c1.6,0,2.8-1.1,2.8-2.4
	L53.2,54L53.2,54z M37.7,63.3c0-1.3-1.3-2.4-2.8-2.4c-1.6,0-2.8,1.1-2.8,2.4v12c0,1.3,1.3,2.4,2.8,2.4c1.6,0,2.8-1.1,2.8-2.4V63.3z
	 M22.2,70.2c0-1.3-1.3-2.4-2.8-2.4c-1.6,0-2.8,1.1-2.8,2.4v5.2c0,1.3,1.3,2.4,2.8,2.4c1.6,0,2.8-1.1,2.8-2.4V70.2z M80.6,91.6
	C80.4,91.5,77.8,91,75,91c-5.3,0-8.4,2.4-8.4,6.1c0,3.2,2.7,4.9,5.8,5.8c0.3,0.1,0.9,0.2,1.2,0.3c1.4,0.4,2.5,0.9,2.5,2
	c0,1.1-1.3,1.8-4.2,1.8c-2.5,0-4.9-0.6-5.4-0.7v4.6c0.3,0.1,3.2,0.6,6.1,0.6c4.3,0,9.4-1.7,9.4-6.6c0-2.4-1.7-4.6-5.4-5.7l-1.6-0.5
	c-0.9-0.2-2.6-0.7-2.6-1.9c0-0.9,1.3-1.7,3.5-1.7c2,0,4.3,0.6,4.5,0.6L80.6,91.6L80.6,91.6z M128.8,101.2c0,2.8-2.5,5.2-5.9,5.2
	c-3.4,0-5.9-2.3-5.9-5.2c0-2.8,2.5-5.2,5.9-5.2C126.3,96,128.8,98.4,128.8,101.2z M122.9,91c-6.9,0-11.9,4.6-11.9,10.2
	c0,5.7,5,10.2,11.9,10.2c6.9,0,12-4.6,12-10.2C134.8,95.6,129.8,91,122.9,91z M45.4,91.8c-0.6-0.2-2.5-0.7-5.2-0.7
	c-6.9,0-12.1,4.3-12.1,10.2c0,6.4,5.6,10.2,12.1,10.2c2.5,0,4.5-0.6,5.2-0.7v-5.3c-0.2,0.2-2.1,1-4.8,1c-3.8,0-6.2-2.4-6.2-5.3
	c0-3,2.5-5.3,6.2-5.3c2.8,0,4.6,0.9,4.8,1V91.8z M104.9,91.8c-0.6-0.2-2.5-0.7-5.2-0.7c-6.9,0-12.1,4.3-12.1,10.2
	c0,6.4,5.6,10.2,12.1,10.2c2.5,0,4.5-0.6,5.2-0.7v-5.3c-0.2,0.2-2.1,1-4.8,1c-3.8,0-6.2-2.4-6.2-5.3c0-3,2.5-5.3,6.2-5.3
	c2.8,0,4.6,0.9,4.8,1V91.8z M59,111.1h-5.7V91.4H59V111.1z"/>
</svg>
