<?xml version="1.0" encoding="utf-8"?>
<!-- Generator: Adobe Illustrator 23.0.1, SVG Export Plug-In . SVG Version: 6.00 Build 0)  -->
<svg version="1.1" id="Layer_1" xmlns="http://www.w3.org/2000/svg" xmlns:xlink="http://www.w3.org/1999/xlink" x="0px" y="0px"
	 viewBox="0 0 163 163" style="enable-background:new 0 0 163 163;" xml:space="preserve">
<style type="text/css">
	.st0{fill-rule:evenodd;clip-rule:evenodd;}
</style>
<g>
	<path class="st0" d="M143.1,67.3c0,15-6.3,25.6-15.2,25.6c-6.6,0-10-4.9-11.7-8.6l-0.6,7.6h-4.8V19.9h5.8V50
		c2.5-5.1,6.8-8.6,11.6-8.6C137,41.4,143.1,52.3,143.1,67.3z M136.8,67.2c0-10.3-3.9-16.7-10.2-16.7c-6.3,0-10.2,6.4-10.2,16.7
		c0,10.3,3.8,16.7,10.2,16.7C132.9,83.8,136.8,77.5,136.8,67.2z M100.6,19.9h5.8v71.8h-5.8V19.9z M91.4,77.7c0-12-22,1.1-22-19.5
		c0-10.3,5.4-16.8,13.6-16.8c5.5,0,10.4,3.2,13,7.8l-3.9,6.2c-1.9-3.3-5-5.6-9.2-5.6c-4.8,0-7.8,2.5-7.8,6.8
		c0,11.9,22.1-1.3,22.1,19.9c0,10.2-5.1,16.2-13.3,16.2c-5.9,0-10.9-3.3-14.8-10.5l3.9-6.2c2.4,5,6.9,8.4,11.1,8.4
		C88.5,84.5,91.4,81.9,91.4,77.7z"/>
	<path d="M19.9,114.3V42.5c24.7,0,34.5,40.4,58.1,71.8H19.9z M142.4,143.1c-30,0-49.9-18.3-62.9-35.9h62.9V143.1z"/>
</g>
</svg>
