<?xml version="1.0" encoding="utf-8"?>
<!-- Generator: Adobe Illustrator 23.0.1, SVG Export Plug-In . SVG Version: 6.00 Build 0)  -->
<svg version="1.1" id="Layer_1" xmlns="http://www.w3.org/2000/svg" xmlns:xlink="http://www.w3.org/1999/xlink" x="0px" y="0px"
	 viewBox="0 0 163 163" style="enable-background:new 0 0 163 163;" xml:space="preserve">
<style type="text/css">
	.st0{fill:#FFFFFF;}
</style>
<g>
	<path d="M26.5,136.5h110v-110h-110C26.5,26.5,26.5,136.5,26.5,136.5z"/>
	<path class="st0" d="M66.7,61.2v5.4H68c1.6,0,2.3-0.7,2.3-2.9v-0.3h1.9v8.4h-1.9v-0.3c0-2.2-0.7-2.9-2.3-2.9h-1.3v6.1h5.2
		c2.3,0,3.2-1.6,3.5-4.5h1.9v6.5H60.2v-2h1.4c0.9,0,1.3-0.3,1.3-1.7V62.8c0-1.2-0.6-1.4-1.7-1.4h-0.6c-1.3,0-1.9,0.3-2.3,1.6
		l-4.6,13.8h-3.6l-2.8-9l0,0l-3,9H41l-4.9-14.3c-0.1-0.7-0.6-0.9-1.6-0.9h-0.3v-1.9h7.5v1.9h-1.2c-0.6,0-0.9,0.3-0.9,0.7
		c0,0.3,0.1,0.6,0.3,0.9l3.3,9.6l0,0l3-9l-0.4-1.2c-0.3-0.7-0.7-1-1.6-1h-0.6v-1.9h7.8v1.9h-1.3c-0.6,0-0.7,0.3-0.7,0.6
		s0.1,0.6,0.1,0.9l2.9,9.6l0,0l3.3-9.4c0.1-0.3,0.1-0.6,0.1-0.9c0-0.4-0.1-0.7-1.2-0.7h-1.3v-1.9h23.6v5.9h-1.9
		c-0.4-2.5-0.6-3.9-4.1-3.9h-4.5V61.2z M95,76.6v-6.5h-2c-0.3,2.9-0.9,4.5-3.5,4.5h-3.9V62.4c0-1,0.4-1.2,1.6-1.2h1.4v-1.9H79v1.9
		h1.4c1,0,1.4,0.3,1.4,1.2v11.1c0,0.9-0.4,1.2-1.2,1.2H79v1.9C79,76.6,95,76.6,95,76.6z M112.6,76.6v-6.5h-2
		c-0.3,2.9-0.9,4.5-3.5,4.5h-3.9V62.4c0-1,0.4-1.2,1.6-1.2h1.4v-1.9h-9.6v1.9h1.4c1,0,1.4,0.3,1.4,1.2v11.1c0,0.9-0.4,1.2-1.2,1.2
		h-1.7v1.9C96.7,76.6,112.6,76.6,112.6,76.6z M125.8,60.7c-0.1-0.1-1.7-1.7-4.8-1.7c-3.2,0-6.5,1.6-6.5,5.2c0,3.2,2.6,4.6,5.5,5.4
		c1,0.1,1.6,0.3,2.5,0.4c2.2,0.4,3.6,1.2,3.6,2.6c0,1.2-1.2,2.5-3.6,2.5c-3.3,0-5.4-1.9-5.8-4.8h-2v6.5h1.7l0.6-1.6
		c0.4,0.4,2,2,5.2,2c4.1,0,7.1-1.7,7.1-5.4c0-3.5-2.8-4.9-6.2-5.5c-0.9-0.3-1.4-0.3-2-0.4c-2.2-0.4-3.5-1-3.5-2.5
		c0-1.3,1.4-2.2,3.5-2.2c3.2,0,4.3,2,5.1,4.2h1.9v-5.9h-1.4L125.8,60.7z M46.8,103.4v-1.9h-1.3c-1.2,0-1.6-0.3-1.6-1.3v-4.6h1
		c1.6,0,2.3,0.7,2.3,2.5v0.6h1.7v-8h-1.7v0.3c0,1.3-0.4,2.6-2.2,2.6h-1.2v-5.4h3.3c3.8,0,4.2,1.9,4.5,3.9h1.9v-5.9H37.4V88h1.7
		c0.7,0,1.2,0.3,1.2,1v11.1c0,0.7-0.4,1.3-1.3,1.3h-1.6v1.9C37.4,103.4,46.8,103.4,46.8,103.4z M118.8,85.7c-5.6,0-9.4,3.9-9.4,9.1
		s3.8,9.1,9.4,9.1s9.4-4.1,9.4-9.1C128.3,89.6,124.5,85.7,118.8,85.7z M118.8,87.7c4.1,0,5.4,3.3,5.4,7.1c0,3.8-1.2,7.1-5.4,7.1
		c-4.1,0-5.4-3.3-5.4-7.1C113.5,91.1,114.8,87.7,118.8,87.7z M102.9,87.6c-0.4-0.3-2-1.9-5.2-1.9c-5.1,0-8.3,3.9-8.3,9.1
		c0,5.4,3.2,9.1,8.3,9.1c3.2,0,5.1-1.4,5.4-1.9l1,1.3h1.7v-5.9c0-1,0.4-1.3,1.4-1.3h0.4v-1.9h-8v1.9h1.2c0.9,0,1.3,0.4,1.3,1.2v1
		c0,2-1.2,3.3-3.9,3.3c-3.3,0-4.9-3-4.9-6.9c0-3.9,1.6-6.9,4.9-6.9s4.5,3,4.9,4.2h2.2V86h-1.7L102.9,87.6z M88.7,99.3v0.4
		c0,2.9-1.4,4.1-3.6,4.1c-2.5,0-3.3-1.2-3.3-3.6v-0.9c0-2.9-1.3-4.2-4.2-4.2h-1.3v5.2c0,0.7,0.3,0.9,1,0.9h1.9v1.9H62v-1.9h1.9
		c0.6,0,0.7-0.1,0.7-0.4c0-0.1,0-0.4-0.1-0.7s-0.9-2.5-0.9-2.5h-6.1c0,0-0.7,2-0.9,2.3c-0.1,0.3-0.1,0.4-0.1,0.7
		c0,0.4,0.3,0.4,0.9,0.4h1.9v1.9h-8.1V101c1.3,0,2.2-0.1,2.8-1.4l5.5-13.9h3.3l5.6,13.9c0.4,1.2,1.3,1.4,2.8,1.4h0.7
		c0.7,0,1-0.3,1-0.9V88.7c0-0.7-0.3-0.9-1-0.9h-1.7V86h11.3c3.8,0,5.5,1.7,5.5,4.5c0,3.3-3.3,4.1-4.9,4.1l0,0
		c1.9,0.1,3.3,0.9,3.3,3.5v1.3c0,1.7,0.4,2.2,1,2.2s0.9-0.4,0.9-1.6v-0.6H88.7z M62.8,96l-2.3-6.2h-0.1L58.1,96H62.8z M82.9,90.8
		c0-1.4-1-2.6-3.5-2.6h-3.2v5.4h3.2C81.6,93.4,82.9,92.4,82.9,90.8z"/>
</g>
</svg>
