<?xml version="1.0" encoding="utf-8"?>
<!-- Generator: Adobe Illustrator 23.0.1, SVG Export Plug-In . SVG Version: 6.00 Build 0)  -->
<svg version="1.1" xmlns="http://www.w3.org/2000/svg" xmlns:xlink="http://www.w3.org/1999/xlink" x="0px" y="0px"
	 viewBox="0 0 1000 635.4" style="enable-background:new 0 0 1000 635.4;" xml:space="preserve">
<style type="text/css">
	.st0{fill:#FFFFFF;}
	.st1{fill:#FF5E69;}
	.st2{fill:#277FD9;}
	.st3{fill:#DCA86E;}
	.st4{clip-path:url(#SVGID_2_);}
	.st5{fill:#343A44;}
	.st6{fill:#323843;}
	.st7{fill:#303742;}
	.st8{fill:#2E3542;}
	.st9{fill:#2C3441;}
	.st10{fill:#2A3240;}
	.st11{fill:#283140;}
	.st12{fill:#27303F;}
	.st13{fill:#252E3E;}
	.st14{fill:#242D3E;}
	.st15{fill:#222C3D;}
	.st16{fill:#212B3D;}
	.st17{fill:#1F2A3C;}
	.st18{fill:#1E293C;}
	.st19{fill:#1D283B;}
	.st20{fill:#1C273B;}
	.st21{fill:#1B263B;}
	.st22{fill:#1A263A;}
	.st23{fill:#19253A;}
	.st24{fill:#18243A;}
	.st25{fill:#182439;}
	.st26{fill:#172339;}
	.st27{fill:#162339;}
	.st28{fill:#162239;}
	.st29{fill:#152239;}
	.st30{fill:#152238;}
	.st31{fill:#142138;}
	.st32{fill:#2167BE;}
	.st33{clip-path:url(#SVGID_4_);}
	.st34{fill:#FEC4AD;}
	.st35{clip-path:url(#SVGID_6_);}
	.st36{clip-path:url(#SVGID_8_);}
	.st37{fill:#F8D2A1;}
	.st38{fill:#D4DBE2;}
	.st39{fill:#FFBA01;}
	.st40{fill:#D2DCEB;}
	.st41{fill:#A6AEBA;}
	.st42{fill:#50CC85;}
	.st43{fill:#77E6A6;}
	.st44{fill:#F3BA7A;}
	.st45{fill:#B6BFCC;}
</style>
<g id="BACKGROUND">
	<rect x="125" y="67.7" class="st0" width="750" height="500"/>
</g>
<g id="OBJECTS">
	<g>
		<g>
			<g>
				<path class="st1" d="M354.8,77.9h-18.6v11.7h22v9.1h-33.8V49.6h33.9v9.1h-22.1v10.4h18.6V77.9z"/>
				<path class="st1" d="M381.2,81.4h-6.4v17.4H363V49.6h19.3c5.8,0,10.4,1.3,13.7,3.9c3.3,2.6,4.9,6.2,4.9,11
					c0,3.4-0.7,6.2-2.1,8.5c-1.4,2.2-3.5,4.1-6.5,5.5l10.3,19.8v0.5h-12.7L381.2,81.4z M374.8,72.3h7.5c2.2,0,3.9-0.6,5.1-1.8
					c1.1-1.2,1.7-2.8,1.7-5c0-2.1-0.6-3.8-1.7-5s-2.8-1.8-5.1-1.8h-7.5V72.3z"/>
				<path class="st1" d="M426.3,81.4h-6.4v17.4H408V49.6h19.3c5.8,0,10.4,1.3,13.7,3.9c3.3,2.6,4.9,6.2,4.9,11
					c0,3.4-0.7,6.2-2.1,8.5c-1.4,2.2-3.5,4.1-6.5,5.5l10.3,19.8v0.5H435L426.3,81.4z M419.9,72.3h7.5c2.2,0,3.9-0.6,5.1-1.8
					c1.1-1.2,1.7-2.8,1.7-5c0-2.1-0.6-3.8-1.7-5s-2.8-1.8-5.1-1.8h-7.5V72.3z"/>
				<path class="st1" d="M494.7,75.2c0,4.8-0.9,9-2.7,12.7c-1.8,3.7-4.3,6.5-7.6,8.5c-3.3,2-7,3-11.2,3c-4.2,0-7.9-1-11.1-2.9
					c-3.2-1.9-5.8-4.7-7.6-8.2c-1.8-3.6-2.8-7.7-2.9-12.3v-2.8c0-4.8,0.9-9.1,2.6-12.7c1.8-3.7,4.3-6.5,7.6-8.5c3.3-2,7-3,11.3-3
					c4.2,0,7.9,1,11.1,3c3.3,2,5.8,4.8,7.6,8.5c1.8,3.7,2.7,7.8,2.7,12.6V75.2z M482.7,73.1c0-4.9-0.8-8.6-2.4-11.1
					c-1.6-2.5-4-3.8-7-3.8c-5.9,0-9.1,4.5-9.4,13.4l0,3.6c0,4.8,0.8,8.5,2.4,11.1c1.6,2.6,4,3.9,7.1,3.9c3,0,5.3-1.3,6.9-3.8
					c1.6-2.5,2.4-6.2,2.5-11V73.1z"/>
				<path class="st1" d="M519.1,81.4h-6.4v17.4h-11.8V49.6h19.3c5.8,0,10.4,1.3,13.7,3.9c3.3,2.6,4.9,6.2,4.9,11
					c0,3.4-0.7,6.2-2.1,8.5c-1.4,2.2-3.5,4.1-6.5,5.5l10.3,19.8v0.5h-12.7L519.1,81.4z M512.7,72.3h7.5c2.2,0,3.9-0.6,5.1-1.8
					c1.1-1.2,1.7-2.8,1.7-5c0-2.1-0.6-3.8-1.7-5c-1.1-1.2-2.8-1.8-5.1-1.8h-7.5V72.3z"/>
				<path class="st1" d="M592.4,79.6h5v8.8h-5v10.4H581V88.3h-19l-0.7-6.9L581,49.7v-0.1h11.4V79.6z M572.2,79.6h8.8V64.4l-0.7,1.1
					L572.2,79.6z"/>
				<path class="st1" d="M636.5,78.7c0,6.6-1.5,11.8-4.5,15.3c-3,3.6-7.2,5.4-12.6,5.4c-5.5,0-9.7-1.8-12.7-5.4
					c-3-3.6-4.5-8.7-4.5-15.3v-9c0-6.6,1.5-11.8,4.5-15.3c3-3.6,7.2-5.4,12.6-5.4c5.4,0,9.7,1.8,12.7,5.4c3,3.6,4.5,8.7,4.5,15.3
					V78.7z M625.1,68.3c0-3.5-0.5-6.2-1.4-7.9c-0.9-1.7-2.4-2.6-4.4-2.6c-2,0-3.4,0.8-4.3,2.4c-0.9,1.6-1.4,4.1-1.4,7.4v12.5
					c0,3.7,0.5,6.3,1.4,8s2.4,2.5,4.4,2.5c1.9,0,3.4-0.8,4.3-2.5c0.9-1.7,1.4-4.2,1.4-7.8V68.3z"/>
				<path class="st1" d="M672.4,79.6h5v8.8h-5v10.4h-11.4V88.3h-19l-0.7-6.9l19.7-31.6v-0.1h11.4V79.6z M652.2,79.6h8.8V64.4
					l-0.7,1.1L652.2,79.6z"/>
			</g>
			<g>
				<path class="st2" d="M292.3,148.7v-26h10.8c1.1,0,2.2,0.2,3.2,0.7s1.8,1.1,2.5,1.9c0.7,0.8,1.2,1.7,1.6,2.7c0.4,1,0.6,2,0.6,3
					c0,1.1-0.2,2.1-0.5,3.1c-0.4,1-0.9,1.9-1.6,2.7c-0.7,0.8-1.5,1.4-2.4,1.9c-0.9,0.5-2,0.7-3.1,0.7h-7.8v9.3H292.3z M295.6,136.4
					h7.6c0.7,0,1.3-0.1,1.8-0.4c0.5-0.3,1-0.7,1.4-1.2c0.4-0.5,0.7-1.1,0.9-1.7c0.2-0.7,0.3-1.4,0.3-2.1c0-0.8-0.1-1.5-0.4-2.1
					s-0.6-1.2-1-1.7c-0.4-0.5-0.9-0.9-1.5-1.1c-0.6-0.3-1.2-0.4-1.8-0.4h-7.4V136.4z"/>
				<path class="st2" d="M317.9,148.7l10.7-26h2.7l10.7,26h-3.5l-3.1-7.6h-10.9l-3,7.6H317.9z M329.9,126.5l-4.8,12h9.5L329.9,126.5
					z"/>
				<path class="st2" d="M371.1,145.1c-2.3,2.5-4.9,3.7-7.9,3.7c-1.7,0-3.3-0.4-4.8-1.1c-1.5-0.8-2.8-1.8-3.8-3
					c-1.1-1.2-1.9-2.6-2.5-4.2c-0.6-1.6-0.9-3.2-0.9-4.9c0-1.8,0.3-3.4,0.9-5c0.6-1.6,1.5-3,2.5-4.2c1.1-1.2,2.4-2.2,3.8-2.9
					c1.5-0.7,3.1-1.1,4.8-1.1c2.5,0,4.6,0.5,6.2,1.6c1.6,1,2.9,2.4,3.7,4.1l-2.5,1.8c-0.8-1.5-1.8-2.6-3.1-3.4
					c-1.3-0.7-2.7-1.1-4.4-1.1c-1.3,0-2.5,0.3-3.6,0.9c-1.1,0.6-2,1.3-2.7,2.3c-0.8,0.9-1.3,2-1.8,3.3c-0.4,1.2-0.6,2.5-0.6,3.8
					c0,1.4,0.2,2.7,0.7,3.9c0.5,1.2,1.1,2.3,1.9,3.3c0.8,0.9,1.8,1.7,2.9,2.2c1.1,0.5,2.3,0.8,3.6,0.8c2.8,0,5.4-1.4,7.7-4.1v-3.6
					h-5.6v-2.5h8.4v13h-2.8V145.1z"/>
				<path class="st2" d="M404,145.7v2.9h-17.6v-26h17.3v2.9h-14v8.4h12.2v2.7h-12.2v9H404z"/>
				<path class="st2" d="M435.8,128.8v19.8h-3.3v-26h2.6l16.1,20.2v-20.2h3.3v26h-2.8L435.8,128.8z"/>
				<path class="st2" d="M478.6,148.8c-1.8,0-3.5-0.4-5-1.1c-1.5-0.7-2.8-1.7-3.9-3c-1.1-1.2-1.9-2.6-2.5-4.2
					c-0.6-1.6-0.9-3.2-0.9-4.9c0-1.7,0.3-3.4,0.9-5c0.6-1.6,1.5-3,2.6-4.2c1.1-1.2,2.4-2.2,3.9-2.9c1.5-0.7,3.1-1.1,4.9-1.1
					c1.8,0,3.5,0.4,5,1.2c1.5,0.8,2.8,1.8,3.8,3c1.1,1.2,1.9,2.7,2.5,4.2c0.6,1.6,0.9,3.2,0.9,4.8c0,1.7-0.3,3.4-0.9,5
					c-0.6,1.6-1.5,3-2.6,4.2c-1.1,1.2-2.4,2.2-3.9,2.9C482,148.5,480.4,148.8,478.6,148.8z M469.7,135.7c0,1.3,0.2,2.6,0.6,3.8
					c0.4,1.2,1,2.3,1.8,3.3c0.8,1,1.7,1.7,2.8,2.3c1.1,0.6,2.3,0.8,3.7,0.8c1.4,0,2.6-0.3,3.7-0.9c1.1-0.6,2-1.4,2.8-2.3
					c0.8-1,1.4-2.1,1.8-3.3c0.4-1.2,0.6-2.5,0.6-3.7c0-1.3-0.2-2.6-0.6-3.8c-0.4-1.2-1-2.3-1.8-3.3c-0.8-0.9-1.7-1.7-2.8-2.3
					c-1.1-0.6-2.3-0.8-3.6-0.8c-1.4,0-2.6,0.3-3.7,0.9c-1.1,0.6-2,1.4-2.8,2.3c-0.8,1-1.4,2-1.8,3.3
					C469.9,133.2,469.7,134.4,469.7,135.7z"/>
				<path class="st2" d="M520.5,125.6h-9v23.1h-3.3v-23.1h-9v-2.9h21.2V125.6z"/>
				<path class="st2" d="M547.1,148.7v-26h17.2v2.9h-13.9v8.7h11.7v2.7h-11.7v11.6H547.1z"/>
				<path class="st2" d="M585.7,148.8c-1.8,0-3.5-0.4-5-1.1c-1.5-0.7-2.8-1.7-3.9-3c-1.1-1.2-1.9-2.6-2.5-4.2
					c-0.6-1.6-0.9-3.2-0.9-4.9c0-1.7,0.3-3.4,0.9-5c0.6-1.6,1.5-3,2.6-4.2c1.1-1.2,2.4-2.2,3.9-2.9c1.5-0.7,3.1-1.1,4.9-1.1
					c1.8,0,3.5,0.4,5,1.2c1.5,0.8,2.8,1.8,3.8,3c1.1,1.2,1.9,2.7,2.5,4.2s0.9,3.2,0.9,4.8c0,1.7-0.3,3.4-0.9,5
					c-0.6,1.6-1.5,3-2.6,4.2c-1.1,1.2-2.4,2.2-3.9,2.9C589.1,148.5,587.5,148.8,585.7,148.8z M576.8,135.7c0,1.3,0.2,2.6,0.6,3.8
					c0.4,1.2,1,2.3,1.8,3.3c0.8,1,1.7,1.7,2.8,2.3c1.1,0.6,2.3,0.8,3.7,0.8c1.4,0,2.6-0.3,3.7-0.9c1.1-0.6,2-1.4,2.8-2.3
					c0.8-1,1.4-2.1,1.8-3.3c0.4-1.2,0.6-2.5,0.6-3.7c0-1.3-0.2-2.6-0.6-3.8c-0.4-1.2-1-2.3-1.8-3.3c-0.8-0.9-1.7-1.7-2.8-2.3
					c-1.1-0.6-2.3-0.8-3.6-0.8c-1.4,0-2.6,0.3-3.7,0.9s-2,1.4-2.8,2.3c-0.8,1-1.4,2-1.8,3.3C577,133.2,576.8,134.4,576.8,135.7z"/>
				<path class="st2" d="M620.6,145.9c1.5,0,2.8-0.3,3.8-0.9c1-0.6,1.8-1.3,2.4-2.3c0.6-0.9,1-2,1.3-3.2c0.2-1.2,0.4-2.4,0.4-3.7
					v-13.1h3.3v13.1c0,1.8-0.2,3.4-0.6,5c-0.4,1.6-1,3-1.9,4.2c-0.9,1.2-2,2.1-3.4,2.8c-1.4,0.7-3.1,1-5.1,1c-2.1,0-3.8-0.4-5.2-1.1
					c-1.4-0.7-2.6-1.7-3.4-2.9c-0.9-1.2-1.5-2.6-1.9-4.2c-0.4-1.6-0.6-3.2-0.6-4.9v-13.1h3.3v13.1c0,1.3,0.1,2.5,0.4,3.8
					c0.3,1.2,0.7,2.3,1.3,3.2c0.6,0.9,1.4,1.7,2.4,2.3C617.9,145.6,619.1,145.9,620.6,145.9z"/>
				<path class="st2" d="M648.1,128.8v19.8h-3.3v-26h2.6l16.1,20.2v-20.2h3.3v26H664L648.1,128.8z"/>
				<path class="st2" d="M680.3,148.7v-26h9c2.1,0,3.9,0.3,5.5,1c1.6,0.7,2.9,1.6,3.9,2.8c1,1.2,1.8,2.5,2.4,4.1
					c0.5,1.6,0.8,3.3,0.8,5c0,2-0.3,3.8-0.9,5.4s-1.4,3-2.5,4.1s-2.4,2-4,2.6s-3.3,0.9-5.2,0.9H680.3z M698.6,135.6
					c0-1.5-0.2-2.8-0.6-4c-0.4-1.2-1-2.3-1.8-3.2c-0.8-0.9-1.8-1.6-2.9-2.1c-1.1-0.5-2.5-0.8-3.9-0.8h-5.7v20.1h5.7
					c1.5,0,2.8-0.3,4-0.8c1.2-0.5,2.1-1.2,2.9-2.1c0.8-0.9,1.4-2,1.8-3.2C698.4,138.4,698.6,137.1,698.6,135.6z"/>
			</g>
		</g>
		<g>
			<g>
				<g>
					<polygon class="st3" points="847.9,492.9 913.8,635.4 921.2,635.4 864.2,483.6 					"/>
				</g>
			</g>
			<g>
				<g>
					<polygon class="st3" points="779.7,495.9 713.7,635.4 706.3,635.4 763.3,492.8 					"/>
				</g>
			</g>
			<g>
				<g>
					<defs>
						<path id="SVGID_1_" d="M612.1,604.9l-33.5,29.3l-39.5-27.8c0,0,13.4-4.5,36.5,1.6l23.6-19.8L612.1,604.9z"/>
					</defs>
					<clipPath id="SVGID_2_">
						<use xlink:href="#SVGID_1_"  style="overflow:visible;"/>
					</clipPath>
					<g class="st4">
						<polygon class="st5" points="552.4,588.2 539.1,606.4 539.1,588.2 						"/>
					</g>
					<g class="st4">
						<polygon class="st5" points="554.7,588.2 539.3,609.1 539.1,608.9 539.1,606.4 552.4,588.2 						"/>
					</g>
					<g class="st4">
						<polygon class="st6" points="556.9,588.2 540.8,610.1 539.3,609.1 554.7,588.2 						"/>
					</g>
					<g class="st4">
						<polygon class="st7" points="559.2,588.2 542.3,611.2 540.8,610.1 556.9,588.2 						"/>
					</g>
					<g class="st4">
						<polygon class="st8" points="561.4,588.2 543.7,612.3 542.3,611.2 559.2,588.2 						"/>
					</g>
					<g class="st4">
						<polygon class="st9" points="563.7,588.2 545.2,613.4 543.7,612.3 561.4,588.2 						"/>
					</g>
					<g class="st4">
						<polygon class="st10" points="565.9,588.2 546.6,614.4 545.2,613.4 563.7,588.2 						"/>
					</g>
					<g class="st4">
						<polygon class="st11" points="568.2,588.2 548.1,615.5 546.6,614.4 565.9,588.2 						"/>
					</g>
					<g class="st4">
						<polygon class="st12" points="570.4,588.2 549.6,616.6 548.1,615.5 568.2,588.2 						"/>
					</g>
					<g class="st4">
						<polygon class="st13" points="572.7,588.2 551,617.6 549.6,616.6 570.4,588.2 						"/>
					</g>
					<g class="st4">
						<polygon class="st14" points="574.9,588.2 552.5,618.7 551,617.6 572.7,588.2 						"/>
					</g>
					<g class="st4">
						<polygon class="st15" points="577.1,588.2 553.9,619.8 552.5,618.7 574.9,588.2 						"/>
					</g>
					<g class="st4">
						<polygon class="st16" points="579.4,588.2 555.4,620.9 553.9,619.8 577.1,588.2 						"/>
					</g>
					<g class="st4">
						<polygon class="st17" points="581.6,588.2 556.9,621.9 555.4,620.9 579.4,588.2 						"/>
					</g>
					<g class="st4">
						<polygon class="st18" points="583.9,588.2 558.3,623 556.9,621.9 581.6,588.2 						"/>
					</g>
					<g class="st4">
						<polygon class="st19" points="586.1,588.2 559.8,624.1 558.3,623 583.9,588.2 						"/>
					</g>
					<g class="st4">
						<polygon class="st20" points="588.4,588.2 561.2,625.2 559.8,624.1 586.1,588.2 						"/>
					</g>
					<g class="st4">
						<polygon class="st21" points="590.6,588.2 562.7,626.2 561.2,625.2 588.4,588.2 						"/>
					</g>
					<g class="st4">
						<polygon class="st22" points="592.9,588.2 564.2,627.3 562.7,626.2 590.6,588.2 						"/>
					</g>
					<g class="st4">
						<polygon class="st23" points="595.1,588.2 565.6,628.4 564.2,627.3 592.9,588.2 						"/>
					</g>
					<g class="st4">
						<polygon class="st24" points="597.4,588.2 567.1,629.4 565.6,628.4 595.1,588.2 						"/>
					</g>
					<g class="st4">
						<polygon class="st25" points="599.6,588.2 568.5,630.5 567.1,629.4 597.4,588.2 						"/>
					</g>
					<g class="st4">
						<polygon class="st26" points="601.9,588.2 570,631.6 568.5,630.5 599.6,588.2 						"/>
					</g>
					<g class="st4">
						<polygon class="st27" points="602.6,588.2 603.6,588.9 571.5,632.7 570,631.6 601.9,588.2 						"/>
					</g>
					<g class="st4">
						
							<rect x="561.1" y="610.4" transform="matrix(0.5918 -0.8061 0.8061 0.5918 -252.6606 723.732)" class="st28" width="54.2" height="1.8"/>
					</g>
					<g class="st4">
						<polygon class="st29" points="605,590 606.5,591.1 574.8,634.2 573.6,634.2 572.9,633.7 						"/>
					</g>
					<g class="st4">
						<polygon class="st30" points="606.5,591.1 608,592.1 577.1,634.2 574.8,634.2 						"/>
					</g>
					<g class="st4">
						<polygon class="st30" points="608,592.1 609.4,593.2 579.3,634.2 577.1,634.2 						"/>
					</g>
					<g class="st4">
						<polygon class="st31" points="609.4,593.2 610.9,594.3 581.6,634.2 579.3,634.2 						"/>
					</g>
					<g class="st4">
						<polygon class="st31" points="610.9,594.3 612.1,595.2 612.1,595.7 583.8,634.2 581.6,634.2 						"/>
					</g>
					<g class="st4">
						<polygon class="st31" points="612.1,598.7 586.1,634.2 583.8,634.2 612.1,595.7 						"/>
					</g>
					<g class="st4">
						<polygon class="st31" points="612.1,601.8 588.3,634.2 586.1,634.2 612.1,598.7 						"/>
					</g>
					<g class="st4">
						<polygon class="st31" points="612.1,604.9 590.6,634.2 588.3,634.2 612.1,601.8 						"/>
					</g>
					<g class="st4">
						<polygon class="st31" points="590.6,634.2 612.1,604.9 612.1,634.2 						"/>
					</g>
				</g>
			</g>
			<g>
				<g>
					<path class="st32" d="M806.1,443.1c0,0-74.1,38-100.3,49.3c-26.2,11.4-115.2,100.5-115.2,100.5s11.4,23.2,17.1,19.1
						c50.3-35.9,96.6-68.1,126.4-79.3c58.9-22.2,75.4-27.1,90.5-44.5C824.6,488.2,815.7,467.2,806.1,443.1z"/>
				</g>
			</g>
			<g>
				<g>
					<g>
						<defs>
							<path id="SVGID_3_" d="M690.7,589.9l-9.7,43.5l-48.3,1c0,0,8.2-11.6,30.4-20.3l7.3-30L690.7,589.9z"/>
						</defs>
						<clipPath id="SVGID_4_">
							<use xlink:href="#SVGID_3_"  style="overflow:visible;"/>
						</clipPath>
						<g class="st33">
							<path class="st5" d="M632.7,584.1v50.2V584.1z"/>
						</g>
						<g class="st33">
							<rect x="632.7" y="584.1" class="st5" width="1.8" height="50.2"/>
						</g>
						<g class="st33">
							<rect x="634.5" y="584.1" class="st6" width="1.8" height="50.2"/>
						</g>
						<g class="st33">
							<rect x="636.4" y="584.1" class="st7" width="1.8" height="50.2"/>
						</g>
						<g class="st33">
							<rect x="638.2" y="584.1" class="st8" width="1.8" height="50.2"/>
						</g>
						<g class="st33">
							<rect x="640" y="584.1" class="st9" width="1.8" height="50.2"/>
						</g>
						<g class="st33">
							<rect x="641.8" y="584.1" class="st10" width="1.8" height="50.2"/>
						</g>
						<g class="st33">
							<rect x="643.6" y="584.1" class="st11" width="1.8" height="50.2"/>
						</g>
						<g class="st33">
							<rect x="645.4" y="584.1" class="st12" width="1.8" height="50.2"/>
						</g>
						<g class="st33">
							<rect x="647.2" y="584.1" class="st13" width="1.8" height="50.2"/>
						</g>
						<g class="st33">
							<rect x="649" y="584.1" class="st14" width="1.8" height="50.2"/>
						</g>
						<g class="st33">
							<rect x="650.8" y="584.1" class="st15" width="1.8" height="50.2"/>
						</g>
						<g class="st33">
							<rect x="652.7" y="584.1" class="st16" width="1.8" height="50.2"/>
						</g>
						<g class="st33">
							<rect x="654.5" y="584.1" class="st17" width="1.8" height="50.2"/>
						</g>
						<g class="st33">
							<rect x="656.3" y="584.1" class="st18" width="1.8" height="50.2"/>
						</g>
						<g class="st33">
							<rect x="658.1" y="584.1" class="st19" width="1.8" height="50.2"/>
						</g>
						<g class="st33">
							<rect x="659.9" y="584.1" class="st20" width="1.8" height="50.2"/>
						</g>
						<g class="st33">
							<rect x="661.7" y="584.1" class="st21" width="1.8" height="50.2"/>
						</g>
						<g class="st33">
							<rect x="663.5" y="584.1" class="st22" width="1.8" height="50.2"/>
						</g>
						<g class="st33">
							<rect x="665.3" y="584.1" class="st23" width="1.8" height="50.2"/>
						</g>
						<g class="st33">
							<rect x="667.2" y="584.1" class="st24" width="1.8" height="50.2"/>
						</g>
						<g class="st33">
							<rect x="669" y="584.1" class="st25" width="1.8" height="50.2"/>
						</g>
						<g class="st33">
							<rect x="670.8" y="584.1" class="st26" width="1.8" height="50.2"/>
						</g>
						<g class="st33">
							<rect x="672.6" y="584.1" class="st27" width="1.8" height="50.2"/>
						</g>
						<g class="st33">
							<rect x="674.4" y="584.1" class="st28" width="1.8" height="50.2"/>
						</g>
						<g class="st33">
							<rect x="676.2" y="584.1" class="st29" width="1.8" height="50.2"/>
						</g>
						<g class="st33">
							<rect x="678" y="584.1" class="st30" width="1.8" height="50.2"/>
						</g>
						<g class="st33">
							<rect x="679.8" y="584.1" class="st30" width="1.8" height="50.2"/>
						</g>
						<g class="st33">
							<rect x="681.6" y="584.1" class="st31" width="1.8" height="50.2"/>
						</g>
						<g class="st33">
							<rect x="683.5" y="584.1" class="st31" width="1.8" height="50.2"/>
						</g>
						<g class="st33">
							<rect x="685.3" y="584.1" class="st31" width="1.8" height="50.2"/>
						</g>
						<g class="st33">
							<rect x="687.1" y="584.1" class="st31" width="1.8" height="50.2"/>
						</g>
						<g class="st33">
							<rect x="688.9" y="584.1" class="st31" width="1.8" height="50.2"/>
						</g>
						<g class="st33">
							<path class="st31" d="M690.7,634.3v-50.2V634.3z"/>
						</g>
					</g>
				</g>
				<g>
					<g>
						<path class="st2" d="M807.9,433.4c0,0-68.9,7.4-94,21C688.8,467.9,668.8,592,668.8,592s19.5,10.6,21.9,4
							c19.5-53.1,41.1-94.6,41.1-94.6c24.8-4.5,82.1,23.4,123.6-17.4C855.4,483.9,819.5,456.6,807.9,433.4z"/>
					</g>
				</g>
			</g>
			<g>
				<g>
					<g>
						<path class="st34" d="M926.7,349.7c0,0-5,8.2-8.1,18.6l-28.3-2.6c0,0,14.6-22.2,13.5-35.6L926.7,349.7z"/>
					</g>
				</g>
				<g>
					<g>
						<path class="st34" d="M920.6,303.9c-1.6-0.4-7.7-2.1-8.9-1.6c-1.7,0.7,0.3,2.9-0.9,4.3c-1.9,2.2-5.8,2.2-8.3,3.6
							c-3,1.6-5.3,3.8-6.7,6.2c-2.3,4.1,6.1,13.1,7.4,19.9c2.8,14.2,20.7,16.3,35.3,11.9c5.2-1.6,10-6.2,12.8-10.8
							c3.3-5.3,1.5-14.3-1.3-19.6c-1.7-3.2-5-5.9-7.9-7.9c-2.6-1.8-3.4-9.3-6.5-9.9C935.5,300,924.2,304.8,920.6,303.9z"/>
					</g>
				</g>
				<g>
					<g>
						<defs>
							<path id="SVGID_5_" d="M961.3,342c0,0-0.5-2.4,3.6-6.3c13.6-12.8-0.9-37.8-15.8-42.2c-7.6-2.2-12.4,0.1-15.1-7.4
								c0.2,0.5-3.1,1.9-3.4,2.2c-1.8,1.5-2.6,2.6-2.7,5.1c-0.3,10.9,9.5,21.1,17,28c3.3,3.1-4.9,1-8.2,1.6
								c-2.2,0.4-7.7,6.3-8.9,7.2c3.1,3.9,5.9,0.4,10.1,2.2c3.9,1.7,1.4,6.7-2.2,7.2c-5.6,0.9-7.9-2.8-7.9-2.8
								c-2.6,1.4-3,9.7-5,11.9c2.8,1.5,19,4.4,22.8,4.3C953.7,353,958.7,348.5,961.3,342z"/>
						</defs>
						<clipPath id="SVGID_6_">
							<use xlink:href="#SVGID_5_"  style="overflow:visible;"/>
						</clipPath>
						<g class="st35">
							<polygon class="st5" points="951.9,353.1 978.5,329.9 978.5,353.1 							"/>
						</g>
						<g class="st35">
							<polygon class="st5" points="948.9,353.1 978.5,327.3 978.5,329.9 951.9,353.1 							"/>
						</g>
						<g class="st35">
							<polygon class="st6" points="945.9,353.1 978.5,324.7 978.5,327.3 948.9,353.1 							"/>
						</g>
						<g class="st35">
							<polygon class="st7" points="942.9,353.1 978.5,322.1 978.5,324.7 945.9,353.1 							"/>
						</g>
						<g class="st35">
							<polygon class="st8" points="939.9,353.1 978.5,319.5 978.5,322.1 942.9,353.1 							"/>
						</g>
						<g class="st35">
							<polygon class="st9" points="936.9,353.1 978.5,316.9 978.5,319.5 939.9,353.1 							"/>
						</g>
						<g class="st35">
							<polygon class="st10" points="934,353.1 978.5,314.3 978.5,316.9 936.9,353.1 							"/>
						</g>
						<g class="st35">
							<polygon class="st11" points="931,353.1 978.5,311.7 978.5,314.3 934,353.1 							"/>
						</g>
						<g class="st35">
							<polygon class="st12" points="928,353.1 977.3,310.1 978.5,311.5 978.5,311.7 931,353.1 							"/>
						</g>
						<g class="st35">
							<polygon class="st13" points="925,353.1 976,308.6 977.3,310.1 928,353.1 							"/>
						</g>
						<g class="st35">
							<polygon class="st14" points="923.9,353.1 923.1,352.2 974.7,307.2 976,308.6 925,353.1 							"/>
						</g>
						<g class="st35">
							<polygon class="st15" points="923.1,352.2 922.8,351.8 922.8,349.8 973.4,305.7 974.7,307.2 							"/>
						</g>
						<g class="st35">
							<polygon class="st16" points="922.8,347.2 972.1,304.2 973.4,305.7 922.8,349.8 							"/>
						</g>
						<g class="st35">
							<polygon class="st17" points="922.8,344.6 970.8,302.7 972.1,304.2 922.8,347.2 							"/>
						</g>
						<g class="st35">
							<polygon class="st18" points="922.8,342 969.5,301.2 970.8,302.7 922.8,344.6 							"/>
						</g>
						<g class="st35">
							<polygon class="st19" points="922.8,339.4 968.2,299.8 969.5,301.2 922.8,342 							"/>
						</g>
						<g class="st35">
							<polygon class="st20" points="922.8,336.8 966.9,298.3 968.2,299.8 922.8,339.4 							"/>
						</g>
						<g class="st35">
							<polygon class="st21" points="922.8,334.2 965.6,296.8 966.9,298.3 922.8,336.8 							"/>
						</g>
						<g class="st35">
							<polygon class="st22" points="922.8,331.6 964.4,295.3 965.6,296.8 922.8,334.2 							"/>
						</g>
						<g class="st35">
							<polygon class="st23" points="922.8,329 963.1,293.8 964.4,295.3 922.8,331.6 							"/>
						</g>
						<g class="st35">
							<polygon class="st24" points="922.8,326.4 961.8,292.4 963.1,293.8 922.8,329 							"/>
						</g>
						<g class="st35">
							<polygon class="st25" points="922.8,323.8 960.5,290.9 961.8,292.4 922.8,326.4 							"/>
						</g>
						<g class="st35">
							<polygon class="st26" points="922.8,321.2 959.2,289.4 960.5,290.9 922.8,323.8 							"/>
						</g>
						<g class="st35">
							<polygon class="st27" points="922.8,318.6 957.9,287.9 959.2,289.4 922.8,321.2 							"/>
						</g>
						<g class="st35">
							<polygon class="st28" points="922.8,316 956.6,286.4 957.9,287.9 922.8,318.6 							"/>
						</g>
						<g class="st35">
							<polygon class="st29" points="922.8,313.4 954,286.1 956.3,286.1 956.6,286.4 922.8,316 							"/>
						</g>
						<g class="st35">
							<polygon class="st30" points="922.8,310.7 951,286.1 954,286.1 922.8,313.4 							"/>
						</g>
						<g class="st35">
							<polygon class="st30" points="922.8,308.1 948,286.1 951,286.1 922.8,310.7 							"/>
						</g>
						<g class="st35">
							<polygon class="st31" points="922.8,305.5 945,286.1 948,286.1 922.8,308.1 							"/>
						</g>
						<g class="st35">
							<polygon class="st31" points="922.8,302.9 942.1,286.1 945,286.1 922.8,305.5 							"/>
						</g>
						<g class="st35">
							<polygon class="st31" points="922.8,300.3 939.1,286.1 942.1,286.1 922.8,302.9 							"/>
						</g>
						<g class="st35">
							<polygon class="st31" points="922.8,297.7 936.1,286.1 939.1,286.1 922.8,300.3 							"/>
						</g>
						<g class="st35">
							<polygon class="st31" points="922.8,295.1 933.1,286.1 936.1,286.1 922.8,297.7 							"/>
						</g>
						<g class="st35">
							<polygon class="st31" points="933.1,286.1 922.8,295.1 922.8,286.1 							"/>
						</g>
					</g>
				</g>
			</g>
			<g>
				<g>
					<path class="st1" d="M925.7,354.1c5.9,66.3-70.4,129.8-70.4,129.8s-49.8,1.9-47.4-50.5c0,0,3.9-9.5,34.7-37.5
						c20.6-18.7,35.1-46.6,49.6-46C931.9,351.5,925.7,354.1,925.7,354.1z"/>
				</g>
			</g>
			<g>
				<g>
					<defs>
						<path id="SVGID_7_" d="M740.6,487.6c0,0,46,17.1,107.2-6.1c61.3-23.2,78-131.7,78-131.7l7,3.6c0,0-6.8,119.7-87.5,145.8
							c-61.7,19.9-104.7-3.8-104.7-3.8V487.6z"/>
					</defs>
					<clipPath id="SVGID_8_">
						<use xlink:href="#SVGID_7_"  style="overflow:visible;"/>
					</clipPath>
					<g class="st36">
						<path class="st5" d="M740.6,349.8V519V349.8z"/>
					</g>
					<g class="st36">
						<rect x="740.6" y="349.8" class="st5" width="6" height="169.2"/>
					</g>
					<g class="st36">
						<rect x="746.6" y="349.8" class="st6" width="6" height="169.2"/>
					</g>
					<g class="st36">
						<rect x="752.6" y="349.8" class="st7" width="6" height="169.2"/>
					</g>
					<g class="st36">
						<rect x="758.6" y="349.8" class="st8" width="6" height="169.2"/>
					</g>
					<g class="st36">
						<rect x="764.7" y="349.8" class="st9" width="6" height="169.2"/>
					</g>
					<g class="st36">
						<rect x="770.7" y="349.8" class="st10" width="6" height="169.2"/>
					</g>
					<g class="st36">
						<rect x="776.7" y="349.8" class="st11" width="6" height="169.2"/>
					</g>
					<g class="st36">
						<rect x="782.7" y="349.8" class="st12" width="6" height="169.2"/>
					</g>
					<g class="st36">
						<rect x="788.7" y="349.8" class="st13" width="6" height="169.2"/>
					</g>
					<g class="st36">
						<rect x="794.7" y="349.8" class="st14" width="6" height="169.2"/>
					</g>
					<g class="st36">
						<rect x="800.7" y="349.8" class="st15" width="6" height="169.2"/>
					</g>
					<g class="st36">
						<rect x="806.7" y="349.8" class="st16" width="6" height="169.2"/>
					</g>
					<g class="st36">
						<rect x="812.7" y="349.8" class="st17" width="6" height="169.2"/>
					</g>
					<g class="st36">
						<rect x="818.7" y="349.8" class="st18" width="6" height="169.2"/>
					</g>
					<g class="st36">
						<rect x="824.7" y="349.8" class="st19" width="6" height="169.2"/>
					</g>
					<g class="st36">
						<rect x="830.7" y="349.8" class="st20" width="6" height="169.2"/>
					</g>
					<g class="st36">
						<rect x="836.7" y="349.8" class="st21" width="6" height="169.2"/>
					</g>
					<g class="st36">
						<rect x="842.7" y="349.8" class="st22" width="6" height="169.2"/>
					</g>
					<g class="st36">
						<rect x="848.7" y="349.8" class="st23" width="6" height="169.2"/>
					</g>
					<g class="st36">
						<rect x="854.7" y="349.8" class="st24" width="6" height="169.2"/>
					</g>
					<g class="st36">
						<rect x="860.8" y="349.8" class="st25" width="6" height="169.2"/>
					</g>
					<g class="st36">
						<rect x="866.8" y="349.8" class="st26" width="6" height="169.2"/>
					</g>
					<g class="st36">
						<rect x="872.8" y="349.8" class="st27" width="6" height="169.2"/>
					</g>
					<g class="st36">
						<rect x="878.8" y="349.8" class="st28" width="6" height="169.2"/>
					</g>
					<g class="st36">
						<rect x="884.8" y="349.8" class="st29" width="6" height="169.2"/>
					</g>
					<g class="st36">
						<rect x="890.8" y="349.8" class="st30" width="6" height="169.2"/>
					</g>
					<g class="st36">
						<rect x="896.8" y="349.8" class="st30" width="6" height="169.2"/>
					</g>
					<g class="st36">
						<rect x="902.8" y="349.8" class="st31" width="6" height="169.2"/>
					</g>
					<g class="st36">
						<rect x="908.8" y="349.8" class="st31" width="6" height="169.2"/>
					</g>
					<g class="st36">
						<rect x="914.8" y="349.8" class="st31" width="6" height="169.2"/>
					</g>
					<g class="st36">
						<rect x="920.8" y="349.8" class="st31" width="6" height="169.2"/>
					</g>
					<g class="st36">
						<rect x="926.8" y="349.8" class="st31" width="6" height="169.2"/>
					</g>
					<g class="st36">
						<path class="st31" d="M932.8,519V349.8V519z"/>
					</g>
				</g>
			</g>
			<g>
				<g>
					<g>
						<path class="st37" d="M918.4,420.3c0,0,7.3,25.4,7.7,38.1c0.4,12.7-5,55.7-5,55.7l11.7,1.5c0,0,10.4-51.3,10.6-68
							c0.2-16.7-9.4-43.9-9.4-43.9L918.4,420.3z"/>
					</g>
				</g>
				<g>
					<g>
						<path class="st1" d="M917.6,421.4c8.5,37,5,86.7,5,86.7l12.7,0.8c13.9-29.1,12.6-93.4,5.2-120.5c-4.3-15.9-6.9-32-17.6-34.4
							c-6.7-1.5-20.6,3.4-22.4,10C896.4,378.4,913.5,403.2,917.6,421.4z"/>
					</g>
				</g>
				<g>
					<g>
						<path class="st37" d="M915.9,520.5c-2.8,5.3-4.1,9.2-2.4,10.6c1.1,0.9,3-4.2,5.2-6.1c0.6,2.2,0.7,6.2-0.6,9.6
							c-1.6,3.8-1.4,7.1,1.5,7.4c2.9,0.3,7.7,0.1,8.7-2.3c1.1-2.4,3.5-12.5,4.7-15.9c1.3-3.4-0.4-7.2,0.1-9.1
							c0.5-1.9-8.6-5.1-8.6-5.1c-0.5,0.8-3.3,4.6-3.3,4.6s-2.4,2.8-3.2,3.3C917.1,518,915.9,520.5,915.9,520.5z"/>
					</g>
				</g>
			</g>
		</g>
		<g>
			<rect x="845.7" y="0" class="st38" width="2" height="88.3"/>
		</g>
		<g>
			<path class="st39" d="M862.4,122.3c-0.7,8.5-8.1,14.9-16.6,14.2c-8.5-0.7-14.9-8.1-14.2-16.6c0.7-8.5,8.1-14.9,16.6-14.2
				C856.6,106.3,863,113.7,862.4,122.3z"/>
		</g>
		<g>
			<polygon class="st40" points="919.9,127.6 773.6,127.6 837.6,81.1 855.8,81.1 			"/>
		</g>
		<g>
			<rect x="157.3" y="0" class="st38" width="2" height="88.3"/>
		</g>
		<g>
			<path class="st39" d="M173.9,122.3c-0.7,8.5-8.1,14.9-16.6,14.2c-8.5-0.7-14.9-8.1-14.2-16.6c0.7-8.5,8.1-14.9,16.6-14.2
				C168.2,106.3,174.6,113.7,173.9,122.3z"/>
		</g>
		<g>
			<polygon class="st40" points="231.4,127.6 85.2,127.6 149.2,81.1 167.4,81.1 			"/>
		</g>
		<g>
			<rect y="634.2" class="st41" width="1000" height="1"/>
		</g>
		<g>
			<g>
				<g>
					<g>
						<path class="st42" d="M363.5,327.5c0,0,3.1-7.6,8.7-14.3c5.6-6.7,14-17.9,14-17.9s-4.1,8-9.6,17
							C371,321.3,363.5,327.5,363.5,327.5z"/>
					</g>
					<g>
						<path class="st42" d="M369.3,314.4c0,0,6.2-4.9,9.9-15.2c3.7-10.3,7.1-18.2,7.1-18.2s-8.1,11.5-11.5,19.5
							C371.4,308.5,369.3,314.4,369.3,314.4z"/>
					</g>
					<g>
						<path class="st42" d="M363.9,326c0,0,3.2-11.8,3.9-21.2c0.6-9.4,0.6-15.3,0.6-15.3s-4.1,17.1-5.3,24.4
							C361.8,321.1,363.9,326,363.9,326z"/>
					</g>
					<g>
						<path class="st42" d="M361.2,333.9c0,0,1-12.2-2.4-23c-3.4-10.9-3.6-17.8-3.6-17.8s-1.6,11.4,0.3,21.2
							C357.4,324.1,361.2,333.9,361.2,333.9z"/>
					</g>
					<g>
						<path class="st42" d="M362.2,331.2c0,0,8.6-7.4,13-9.1c4.4-1.7,10.4-6.8,10.4-6.8s-7.5,9.6-11.7,11.5
							C369.7,328.7,362.2,331.2,362.2,331.2z"/>
					</g>
					<g>
						<path class="st42" d="M359.2,341.5c0,0,0.8-6.6-3-16c-3.9-9.4-4.8-14.1-4.8-14.1s-0.2,12.8,2.3,17.6
							C356.3,333.8,359.2,341.5,359.2,341.5z"/>
					</g>
					<g>
						<path class="st42" d="M360,336.7c0,0,5-3.3,9.7-4c4.8-0.7,6.1-1.3,6.1-1.3s-2.4,4.4-8.3,5.2C361.6,337.3,360,336.7,360,336.7z
							"/>
					</g>
					<g>
						<path class="st42" d="M356.7,347.8c1.1-4.2,2.5-10.6,3.9-14.9c3.1-9.5,10.6-21.8,10.6-21.8c-4.6,10.1-7.9,15.8-10.2,24.5
							c-0.9,3.5-2.5,8.3-3.3,11.4C357.6,347.9,356.9,348.7,356.7,347.8z"/>
					</g>
				</g>
				<g>
					<g>
						<path class="st43" d="M358.9,330.9c0,0-0.5-8.7-3.8-17.4c-3.3-8.7-7.8-22.9-7.8-22.9s1.3,9.4,3.8,20.4
							C353.5,322.1,358.9,330.9,358.9,330.9z"/>
					</g>
					<g>
						<path class="st43" d="M357.7,315.7c0,0-4.6-7-4.7-18.7c-0.2-11.7-0.9-20.7-0.9-20.7s4.1,14.4,4.8,23.6
							C357.6,309.1,357.7,315.7,357.7,315.7z"/>
					</g>
					<g>
						<path class="st43" d="M359,329.3c0,0,0.8-13,3.4-22.7c2.6-9.7,4.7-15.6,4.7-15.6s-1.8,18.6-3.1,26.3
							C362.9,325.1,359,329.3,359,329.3z"/>
					</g>
					<g>
						<path class="st43" d="M359.1,338.1c0,0,3.2-12.6,10.4-22.3c7.2-9.7,9.8-16.6,9.8-16.6s-2.3,12-7.6,21.2
							C366.2,329.6,359.1,338.1,359.1,338.1z"/>
					</g>
					<g>
						<path class="st43" d="M359,335.1c0,0-6.1-10.4-9.9-13.7c-3.8-3.3-8.1-10.4-8.1-10.4s4.2,12.2,7.8,15.6
							C352.3,330,359,335.1,359,335.1z"/>
					</g>
					<g>
						<path class="st43" d="M358.5,346.5c0,0,1.5-7,8.6-15.1c7.1-8.1,9.6-12.5,9.6-12.5s-4.2,12.9-8.4,16.9
							C364.1,339.7,358.5,346.5,358.5,346.5z"/>
					</g>
					<g>
						<path class="st43" d="M359.3,341.3c0,0-3.8-5-8.4-7.4c-4.6-2.3-5.6-3.4-5.6-3.4s0.9,5.3,6.6,8.1
							C357.5,341.4,359.3,341.3,359.3,341.3z"/>
					</g>
					<g>
						<path class="st42" d="M358.7,353.7c0.4-4.6,1.2-11.5,1.3-16.4c0.1-10.7-3.1-25.6-3.1-25.6c1.1,11.8,2.5,18.6,1.8,28.2
							c-0.3,3.8-0.4,9.2-0.6,12.6C357.9,353.5,358.3,354.5,358.7,353.7z"/>
					</g>
				</g>
				<g>
					<g>
						<path class="st42" d="M352.4,332.7c0,0-3.1-7.6-8.7-14.3c-5.6-6.7-14-17.9-14-17.9s4.1,8,9.6,17
							C344.9,326.5,352.4,332.7,352.4,332.7z"/>
					</g>
					<g>
						<path class="st42" d="M346.6,319.6c0,0-6.2-4.9-9.9-15.2c-3.7-10.3-7.1-18.2-7.1-18.2s8.1,11.5,11.5,19.5
							C344.5,313.7,346.6,319.6,346.6,319.6z"/>
					</g>
					<g>
						<path class="st42" d="M352,331.2c0,0-3.2-11.8-3.9-21.2c-0.6-9.4-0.6-15.3-0.6-15.3s4.1,17.1,5.3,24.4
							C354.1,326.3,352,331.2,352,331.2z"/>
					</g>
					<g>
						<path class="st42" d="M354.7,339.1c0,0-1-12.2,2.4-23c3.4-10.9,3.6-17.8,3.6-17.8s1.6,11.4-0.3,21.2
							C358.5,329.3,354.7,339.1,354.7,339.1z"/>
					</g>
					<g>
						<path class="st42" d="M353.7,336.4c0,0-8.6-7.4-13-9.1c-4.4-1.7-10.4-6.8-10.4-6.8s7.5,9.6,11.7,11.5
							C346.2,333.9,353.7,336.4,353.7,336.4z"/>
					</g>
					<g>
						<path class="st42" d="M356.7,346.7c0,0-0.8-6.6,3-16c3.9-9.4,4.8-14.1,4.8-14.1s0.2,12.8-2.3,17.6
							C359.6,339,356.7,346.7,356.7,346.7z"/>
					</g>
					<g>
						<path class="st42" d="M355.9,341.9c0,0-5-3.3-9.7-4c-4.8-0.7-6.1-1.3-6.1-1.3s2.4,4.4,8.3,5.2
							C354.3,342.5,355.9,341.9,355.9,341.9z"/>
					</g>
					<g>
						<path class="st42" d="M359.2,353c-1.1-4.2-2.5-10.6-3.9-14.9c-3.1-9.5-10.6-21.8-10.6-21.8c4.6,10.1,7.9,15.8,10.2,24.5
							c0.9,3.5,2.5,8.3,3.3,11.4C358.3,353.1,359,353.9,359.2,353z"/>
					</g>
				</g>
				<g>
					<polygon class="st40" points="370.1,382.2 346.7,382.2 339.5,341 378.2,341 					"/>
				</g>
			</g>
			<g>
				<g>
					<g>
						<polygon class="st3" points="637.6,393.5 676.2,634.9 683.7,634.9 653.1,393.5 						"/>
					</g>
					<g>
						<polygon class="st3" points="371.4,393.6 321.1,635.3 311.1,635.3 350.6,393.7 						"/>
					</g>
				</g>
				<g>
					<rect x="292.3" y="379.4" class="st3" width="415.4" height="18.6"/>
				</g>
				<g>
					<rect x="272.4" y="379.4" class="st44" width="455.3" height="12.3"/>
				</g>
			</g>
			<g>
				<g>
					<g>
						<polygon class="st41" points="600.3,372.9 584.2,372.9 568,269.8 580.3,269.8 						"/>
					</g>
					<g>
						<polygon class="st40" points="595.7,372.9 532.6,372.9 516.5,269.8 579.5,269.8 						"/>
					</g>
					<g>
						<rect x="531.8" y="370.6" class="st40" width="68.6" height="7.7"/>
					</g>
					<g>
						<rect x="600.3" y="370.6" class="st41" width="86.4" height="7.7"/>
					</g>
					<g>
						<path class="st41" d="M561,326.4c1.8,7.9,0.5,16.4-2.9,19c-3.4,2.6-7.7-1.6-9.5-9.5c-1.8-7.9-0.5-16.4,2.9-19
							C555,314.2,559.2,318.5,561,326.4z"/>
					</g>
				</g>
			</g>
			<g>
				<g>
					<path class="st41" d="M462.9,377.9H454c-3.7,0-6.8-2.7-7.4-6.3l-3.6-23h30.9l-3.6,23C469.8,375.2,466.6,377.9,462.9,377.9z"/>
				</g>
				<g>
					<g>
						<path class="st41" d="M471.2,373c-0.3,0-0.7,0-1,0l-0.4,0l-0.3-0.3c-0.2-0.2-5.4-4.3-5.4-10.1c0-6,4-10.9,8.9-10.9
							c2.9,0,5.6,1.1,7.2,3.1c1.2,1.4,2.4,3.9,1.6,8.1l0,0C480.6,369.3,476.8,373,471.2,373z M470.9,370.2c5.6,0.2,7.4-4.1,8.1-7.9
							l0,0c0.4-2.5,0.1-4.4-1-5.7c-1.1-1.3-2.9-2.1-5-2.1c-3.3,0-6.1,3.6-6.1,8C466.9,366.3,469.9,369.3,470.9,370.2z"/>
					</g>
				</g>
			</g>
			<g>
				<polygon class="st40" points="439.9,379.9 479.1,379.9 485.4,373 433.7,373 				"/>
			</g>
		</g>
		<g>
			<g>
				<rect x="44.9" y="229.4" class="st45" width="187.4" height="405.4"/>
			</g>
			<g>
				<rect x="66.5" y="247.1" class="st40" width="144.3" height="42.5"/>
			</g>
			<g>
				<path class="st0" d="M156.7,273.6h-36.1c-0.4,0-0.8-0.4-0.8-0.8V264c0-0.4,0.4-0.8,0.8-0.8h36.1c0.4,0,0.8,0.4,0.8,0.8v8.7
					C157.5,273.2,157.1,273.6,156.7,273.6z"/>
			</g>
			<g>
				<rect x="66.5" y="301.2" class="st40" width="144.3" height="42.5"/>
			</g>
			<g>
				<path class="st0" d="M156.7,327.7h-36.1c-0.4,0-0.8-0.4-0.8-0.8v-8.7c0-0.4,0.4-0.8,0.8-0.8h36.1c0.4,0,0.8,0.4,0.8,0.8v8.7
					C157.5,327.3,157.1,327.7,156.7,327.7z"/>
			</g>
			<g>
				<rect x="66.5" y="355.3" class="st40" width="144.3" height="42.5"/>
			</g>
			<g>
				<path class="st0" d="M156.7,381.8h-36.1c-0.4,0-0.8-0.4-0.8-0.8v-8.7c0-0.4,0.4-0.8,0.8-0.8h36.1c0.4,0,0.8,0.4,0.8,0.8v8.7
					C157.5,381.4,157.1,381.8,156.7,381.8z"/>
			</g>
			<g>
				<rect x="66.5" y="410.1" class="st40" width="144.3" height="208.4"/>
			</g>
			<g>
				<path class="st0" d="M156.7,436.5h-36.1c-0.4,0-0.8-0.4-0.8-0.8V427c0-0.4,0.4-0.8,0.8-0.8h36.1c0.4,0,0.8,0.4,0.8,0.8v8.7
					C157.5,436.1,157.1,436.5,156.7,436.5z"/>
			</g>
		</g>
	</g>
</g>
<g id="DESIGNED_BY_FREEPIK">
</g>
</svg>
