<svg width="54" height="54" viewBox="0 0 54 54" fill="none" xmlns="http://www.w3.org/2000/svg">
<path d="M2.73641 50.5941L20.1112 33.2193M41.9908 25.4929L36.7898 41.0958C36.7068 41.3459 36.5647 41.5723 36.3755 41.7558C36.1863 41.9392 35.9557 42.0744 35.7032 42.1497L3.82029 51.6261C3.53305 51.7114 3.22792 51.7163 2.93809 51.6402C2.64827 51.5641 2.38486 51.41 2.17653 51.1947C1.9682 50.9793 1.82294 50.7109 1.75654 50.4187C1.69015 50.1265 1.70517 49.8217 1.79997 49.5375L12.1528 18.4846C12.227 18.2616 12.3483 18.0572 12.5084 17.8853C12.6686 17.7133 12.8639 17.5779 13.081 17.4881L27.7884 11.4325C28.0874 11.3091 28.4163 11.2769 28.7336 11.34C29.0508 11.4032 29.3423 11.5589 29.5712 11.7875L41.5949 23.8139C41.8105 24.0292 41.9618 24.3004 42.0317 24.597C42.1017 24.8937 42.0875 25.2039 41.9908 25.4929Z" stroke="#232026" stroke-width="3" stroke-linecap="round" stroke-linejoin="round"/>
<path d="M42.3111 24.5319L50.0321 16.8083C51.0557 15.7843 51.6308 14.3957 51.6308 12.9478C51.6308 11.4999 51.0557 10.1113 50.0321 9.08734L44.2441 3.29392C43.737 2.78665 43.135 2.38425 42.4724 2.1097C41.8098 1.83516 41.0995 1.69385 40.3823 1.69385C39.665 1.69385 38.9548 1.83516 38.2922 2.1097C37.6296 2.38425 37.0275 2.78665 36.5205 3.29392L28.7996 11.0176M25.9001 27.4259C25.5197 27.0457 25.0681 26.7441 24.5712 26.5384C24.0743 26.3327 23.5417 26.2269 23.0038 26.227C22.466 26.2271 21.9334 26.3332 21.4366 26.5391C20.9397 26.745 20.4883 27.0468 20.1081 27.4272C19.7278 27.8076 19.4263 28.2592 19.2206 28.7561C19.0149 29.2531 18.9091 29.7857 18.9092 30.3235C18.9093 30.8614 19.0154 31.3939 19.2213 31.8908C19.4272 32.3876 19.729 32.8391 20.1094 33.2193C20.8777 33.9872 21.9195 34.4184 23.0057 34.4182C24.092 34.4179 25.1336 33.9862 25.9015 33.2179C26.6694 32.4497 27.1006 31.4078 27.1004 30.3216C27.1001 29.2354 26.6684 28.1938 25.9001 27.4259Z" stroke="#232026" stroke-width="3" stroke-linecap="round" stroke-linejoin="round"/>
</svg>
