<svg width="51" height="50" viewBox="0 0 51 50" fill="none" xmlns="http://www.w3.org/2000/svg">
<path fill-rule="evenodd" clip-rule="evenodd" d="M49.8268 2.11141L48.4584 1.89375L48.0994 0.554539L50.1636 0L49.8268 2.11141ZM31.4992 21.2846L30.3195 22.011L30.3167 22.0083L30.3125 22.0013L30.2987 21.9791L30.2515 21.9001C30.2127 21.8336 30.1545 21.7365 30.0852 21.6131C29.8909 21.2737 29.7037 20.9303 29.5237 20.5831C28.9539 19.4917 28.4565 18.364 28.0348 17.2073C27.5662 15.8986 27.1641 14.4 27.1018 12.9499C27.0408 11.5053 27.3097 9.93733 28.3855 8.70764C29.3518 7.60411 31.1735 6.58792 33.088 5.70898C35.0719 4.79537 37.4065 3.9192 39.6177 3.16087C42.3566 2.22547 45.1232 1.37294 47.9136 0.604447L48.0522 0.565629L48.1007 0.551766L48.4612 1.89236L49.8295 2.11002L49.8212 2.16131L49.7976 2.30827C49.6592 3.15877 49.5141 4.00816 49.3623 4.85637C48.993 6.94227 48.59 9.02206 48.1534 11.0949C47.6599 13.4254 47.0859 15.8681 46.4773 17.913C46.2073 18.8483 45.8894 19.7691 45.5249 20.6718C45.2088 21.4343 44.8345 22.1746 44.3798 22.6959C43.4066 23.8077 41.8913 24.1557 40.5673 24.2444C39.1865 24.3373 37.656 24.1696 36.2794 23.9256C35.0516 23.7044 33.8357 23.4222 32.636 23.0799C32.1452 22.9417 31.6571 22.7937 31.1721 22.6363L31.0847 22.6058L31.0612 22.5975L31.0542 22.5961H31.0515L31.5006 21.2832L31.4992 21.2846ZM31.4992 21.2846L30.3195 22.011L30.5801 22.4339L31.0515 22.5961L31.4992 21.2846ZM32.4309 20.1298C33.8502 20.5728 35.2951 20.9293 36.7577 21.1972C38.0386 21.4232 39.3196 21.5508 40.3816 21.4787C41.5031 21.4038 42.066 21.1293 42.292 20.8715C42.4361 20.7051 42.6718 20.3114 42.9629 19.6099C43.2903 18.7965 43.5758 17.9668 43.8183 17.1242C44.3964 15.1833 44.9524 12.8223 45.4403 10.5224C45.9086 8.29719 46.3375 6.06389 46.7269 3.82354L46.2985 3.94832C44.761 4.40165 42.6843 5.04076 40.5174 5.78384C38.3464 6.52831 36.1102 7.36982 34.2456 8.22797C32.3103 9.118 31.0043 9.92624 30.472 10.5348C30.0464 11.0201 29.8273 11.7673 29.8731 12.8306C29.9174 13.8884 30.221 15.0904 30.6453 16.2702C31.1309 17.6046 31.7282 18.8957 32.4309 20.1298ZM5.91144 5.60084L5.55237 6.94005L4.18266 7.15771L3.84717 5.04769L5.91282 5.60223L5.91144 5.60084ZM19.334 22.6987L20.5138 23.4237L20.5166 23.4209L20.5194 23.4154L20.5305 23.3974L20.5707 23.3308C20.7797 22.9747 20.9794 22.6132 21.1696 22.2467C21.5356 21.5424 22.0028 20.5595 22.3937 19.4726C22.7791 18.3968 23.1146 17.1505 23.1659 15.9361C23.2186 14.7258 22.994 13.3755 22.0596 12.308C21.2333 11.3625 19.7042 10.5196 18.1515 9.80424C16.5281 9.057 14.6219 8.34165 12.821 7.72472C10.5905 6.96293 8.33761 6.26852 6.06532 5.64243L5.95164 5.61193L5.91144 5.60084L5.55237 6.94005L4.18266 7.15771L4.1896 7.1993L4.209 7.31991L4.28387 7.77186C4.65794 10.0143 5.07902 12.2487 5.54683 14.4735C5.94887 16.37 6.41745 18.3622 6.91377 20.0327C7.16331 20.8673 7.42394 21.645 7.69705 22.3008C7.9563 22.9246 8.27377 23.561 8.67304 24.0157C9.53258 25 10.8538 25.2911 11.9476 25.3632C13.101 25.4409 14.3668 25.3008 15.4966 25.1026C16.9153 24.8479 18.3143 24.494 19.6834 24.0434L19.7541 24.0198L19.7749 24.0129L19.7818 24.0101L19.334 22.6987ZM19.334 22.6987L20.5138 23.4237L20.2532 23.8479L19.7818 24.0101L19.334 22.6987ZM18.401 21.5424C18.9427 20.5798 19.405 19.5746 19.7832 18.5368C20.1229 17.59 20.3613 16.6403 20.396 15.8168C20.432 14.9878 20.2574 14.4582 19.9732 14.1324C19.5808 13.686 18.5688 13.0483 16.9925 12.3232C15.4897 11.6314 13.6819 10.9508 11.9213 10.3477C10.3875 9.82409 8.84275 9.33321 7.28808 8.87539L7.29363 8.91005C7.52931 10.2409 7.8648 12.0376 8.25991 13.8995C8.65502 15.7655 9.10558 17.6745 9.57139 19.2425C9.80569 20.0272 10.0358 20.7051 10.2576 21.2374C10.4933 21.8017 10.6708 22.0887 10.7595 22.1913C10.8732 22.3202 11.2406 22.5378 12.1334 22.5975C12.9666 22.6529 13.9841 22.5531 15.0156 22.3715C16.1602 22.1651 17.2909 21.8892 18.401 21.5424ZM15.3649 34.7599C15.0128 34.7793 14.8409 34.8292 14.7965 34.8486C14.1685 35.1328 12.2609 35.7982 10.6139 36.3597C9.76826 36.6495 8.95724 36.9212 8.35834 37.1222L8.31952 37.1361V44.6265C8.56352 44.6154 8.82554 44.6057 9.0931 44.596C10.241 44.5544 11.6066 44.5128 12.1985 44.5378C14.6829 44.6362 16.5489 45.224 18.2763 45.7689L18.3137 45.7813C19.933 46.2915 21.433 46.7601 23.3974 46.9084C23.952 46.95 24.4913 47.0041 24.9945 47.054H25.0014C26.934 47.2481 28.2067 47.3451 29.1924 46.9874C29.959 46.7088 32.7664 45.407 35.5973 43.9832C36.9975 43.279 38.37 42.5622 39.461 41.9481C40.0086 41.6403 40.4731 41.3658 40.8294 41.1357C41.0068 41.0206 41.1482 40.9236 41.2564 40.8446C41.2988 40.8134 41.3405 40.781 41.3811 40.7475L41.4199 40.7142C41.5586 40.5742 41.7055 40.0862 41.4671 39.6273C41.3549 39.4128 41.1694 39.2455 40.9444 39.156C40.6672 39.0354 40.1958 38.9425 39.4472 39.0659C37.7586 39.3431 35.7415 40.1555 33.7271 40.9749L33.6994 40.9873C32.7095 41.3894 31.7169 41.7928 30.8366 42.0867C29.9909 42.3681 29.0523 42.6205 28.2344 42.5719C27.1115 42.5026 25.1415 42.2115 23.5167 41.9481C22.5829 41.7971 21.6504 41.639 20.719 41.4739L20.5388 41.4421L20.475 41.4296L20.7384 38.6791L27.074 38.7553H27.0879C27.1619 38.7473 27.2351 38.7334 27.3069 38.7137C27.526 38.6583 27.9017 38.521 28.3744 38.1869C28.52 38.0829 28.7113 37.8916 28.8901 37.6352C28.9593 37.5347 29.0223 37.43 29.0787 37.3218C28.3062 37.2727 27.5387 37.1642 26.7829 36.9974C26.3713 36.9078 25.963 36.8038 25.5587 36.6855L25.5116 36.6716L17.7522 34.9443L17.6788 34.9318C17.2657 34.8632 16.8499 34.8123 16.4324 34.7793C16.0774 34.7498 15.7208 34.7433 15.3649 34.7599ZM18.024 33.5856L18.2749 32.2229L18.2998 32.227L26.227 33.9905L26.2852 34.0085L26.2963 34.0126L26.349 34.0279L26.568 34.0903C26.7607 34.1429 27.038 34.215 27.3679 34.2871C28.0417 34.4327 28.8846 34.5672 29.6637 34.5672C30.4442 34.5672 31.2927 34.8583 31.7502 35.6873C32.1411 36.3972 32.0441 37.1652 31.9068 37.6726C31.7794 38.1212 31.5895 38.5496 31.3426 38.9453C31.764 38.7789 32.2118 38.5987 32.6818 38.4074L32.7678 38.3713C34.6781 37.595 36.9684 36.6633 38.9966 36.3292C41.3534 35.9438 43.121 36.7895 43.9292 38.3533C44.6418 39.7327 44.4838 41.5516 43.3955 42.6579C43.1224 42.9352 42.7162 43.2166 42.328 43.4675C41.8336 43.7804 41.3307 44.0796 40.8197 44.3645C39.6759 45.0077 38.2605 45.7467 36.8408 46.4606C34.0376 47.8706 31.0847 49.25 30.1365 49.5938C28.4923 50.1899 26.5902 50 24.9002 49.8308L24.7242 49.8128C24.2127 49.7604 23.7007 49.7142 23.1881 49.6742C20.8868 49.4995 19.1233 48.9436 17.5124 48.4362L17.4777 48.4251C15.7448 47.8789 14.1838 47.3923 12.0876 47.3077C11.6273 47.2897 10.388 47.3229 9.19292 47.3673C8.51997 47.3917 7.84712 47.419 7.1744 47.4491L6.99556 47.4574L5.54544 47.524V35.1356L6.76127 34.7321C7.74782 34.4043 8.73306 34.0725 9.71696 33.7367C11.4416 33.1476 13.1801 32.5362 13.6542 32.3227C14.163 32.0925 14.7411 32.0177 15.2041 31.99C15.6963 31.9622 16.2023 31.983 16.6445 32.0163C17.1769 32.058 17.707 32.1241 18.2333 32.2145L18.2624 32.2201H18.2707L18.2735 32.2215H18.2763L18.024 33.5856Z" fill="#232026"/>
<path fill-rule="evenodd" clip-rule="evenodd" d="M40.4126 10.1287C40.5509 10.247 40.6646 10.3915 40.7472 10.5537C40.8297 10.716 40.8795 10.893 40.8937 11.0745C40.9078 11.256 40.8861 11.4385 40.8297 11.6116C40.7733 11.7848 40.6834 11.9451 40.565 12.0834C36.4323 16.9052 31.2876 23.9714 29.0168 29.715C28.9498 29.8843 28.8501 30.0388 28.7234 30.1696C28.5967 30.3003 28.4455 30.4049 28.2784 30.4772C28.1113 30.5496 27.9316 30.5883 27.7495 30.5912C27.5675 30.5941 27.3866 30.5611 27.2173 30.4941C27.048 30.4271 26.8935 30.3274 26.7627 30.2007C26.632 30.0741 26.5274 29.9228 26.4551 29.7558C26.3827 29.5887 26.344 29.4089 26.3411 29.2269C26.3382 29.0448 26.3712 28.864 26.4382 28.6946C28.8823 22.5129 34.2724 15.1639 38.4578 10.2798C38.6972 10.0008 39.0376 9.82821 39.4042 9.80013C39.7707 9.77206 40.1335 9.89074 40.4126 10.1301V10.1287ZM13.0045 14.5761C12.8615 14.6889 12.7422 14.8288 12.6533 14.9878C12.5644 15.1468 12.5078 15.3217 12.4865 15.5026C12.4653 15.6835 12.4799 15.8668 12.5295 16.042C12.5791 16.2173 12.6628 16.381 12.7757 16.5239C15.8839 20.4681 19.2777 25.5158 20.8886 29.7025C21.0269 30.0367 21.2903 30.3036 21.6227 30.4463C21.955 30.5889 22.3299 30.5961 22.6674 30.4662C23.005 30.3363 23.2784 30.0797 23.4294 29.7511C23.5803 29.4224 23.5969 29.0478 23.4755 28.7071C21.7135 24.1266 18.1132 18.8155 14.9523 14.8076C14.7248 14.5189 14.392 14.3323 14.027 14.2889C13.662 14.2454 13.2933 14.3488 13.0045 14.5761Z" fill="#232026"/>
<path d="M0 31.9775H8.31808V50H0V31.9775Z" fill="#232026"/>
</svg>
