<?xml version="1.0" encoding="utf-8"?>
<!-- Generator: Adobe Illustrator 23.0.1, SVG Export Plug-In . SVG Version: 6.00 Build 0)  -->
<svg version="1.1" id="Layer_1" xmlns="http://www.w3.org/2000/svg" xmlns:xlink="http://www.w3.org/1999/xlink" x="0px" y="0px"
	 viewBox="0 0 217 95" style="enable-background:new 0 0 217 95;" xml:space="preserve">
<style type="text/css">
	.st0{fill:#FFFFFF;}
	.st1{fill-rule:evenodd;clip-rule:evenodd;fill:#FECC00;}
	.st2{fill-rule:evenodd;clip-rule:evenodd;fill:#FFFFFF;}
</style>
<path class="st0" d="M183.6,33.4h23.4L183.6,10V33.4z M177.8,5.9h-23.4l23.4,23.4V5.9z M147.3,0.1h33.3c0.5,0,1,0.1,1.4,0.4l0,0
	l0.1,0h0l0,0h0l0,0l0,0c0.2,0.1,0.3,0.2,0.5,0.4l33.3,33.3v0l0,0l0,0l0,0l0,0l0,0c0,0.1,0.1,0.1,0.1,0.1l0,0h0v0v0h0v0l0,0l0,0l0,0
	v0h0v0l0,0l0,0v0l0,0v0l0,0l0,0l0,0v0l0,0l0,0.1l0,0v0l0,0l0,0v0v0h0v0v0l0,0v0l0,0c0,0,0,0.1,0,0.1l0,0l0,0l0,0.1l0,0v0v0l0,0l0,0
	l0,0v0.1l0,0l0,0v0l0,0.1l0,0v0v0l0,0l0,0.1l0,0v0v0l0,0l0,0.1v0l0,0l0,0V36v0v0.1l0,0l0,0v0v0.1l0,0l0,0v0.1v0l0,0.1l0,0.1l0,0v0.1
	l0,0v0v0v0l0,0v0v0.1l0,0v0.1l0,0l0,0v0.1l0,0l0,0v0v0v0l0,0.1l0,0V37l0,0v0l0,0.1l0,0l0,0l0,0v0.1l0,0v0h0v0.1l0,0l0,0l0,0.1l0,0v0
	c0,0,0,0.1,0,0.1l0,0v0h0v0v0l0,0l0,0v0l0,0l0,0v0.1l0,0l0,0l0,0v0l0,0l0,0l0,0v0l0,0v0l0,0l0,0.1l0,0l0,0v0l0,0l0,0l0,0v0h0v0l0,0
	l0,0l0,0c0,0-0.1,0.1-0.1,0.1l0,0l0,0l0,0l0,0l0,0l-33.3,33.3c-1.1,1.1-3,1.1-4.1,0c-0.6-0.6-0.9-1.3-0.9-2.1V37.5L145.3,5.1
	c-0.5-0.5-0.9-1.3-0.9-2.1C144.4,1.4,145.7,0.1,147.3,0.1z M206.9,39.2h-23.4v23.4L206.9,39.2z"/>
<polygon class="st1" points="177.8,29.3 154.4,5.9 177.8,5.9 "/>
<path class="st2" d="M160.4,41.7h-5.8c-0.1-1.4-0.7-2.5-1.7-3.2c-1-0.7-2.5-1.1-4.3-1.1c-1.5,0-2.7,0.3-3.5,0.9
	c-0.9,0.5-1.3,1.3-1.3,2.2c0,0.9,0.3,1.6,1,2.2c0.7,0.5,2,1,3.7,1.4l3.6,0.8c3.5,0.8,5.9,1.8,7.2,3.1c1.3,1.2,1.9,3,1.9,5.3
	c0,3-1.1,5.3-3.2,7c-2.2,1.6-5.2,2.5-9,2.5c-3.9,0-6.8-0.9-8.9-2.6c-2.1-1.8-3.2-4.3-3.2-7.5h5.9c0.2,1.7,0.8,3,1.9,3.9
	s2.7,1.3,4.8,1.3c1.8,0,3.1-0.3,4.2-1c1-0.7,1.5-1.6,1.5-2.7c0-0.9-0.3-1.5-0.9-2c-0.6-0.5-1.8-1-3.5-1.4l-4.3-1.1
	c-3.2-0.8-5.5-1.8-6.8-3s-2-2.9-2-5.1c0-2.7,1-4.9,3-6.4c2-1.6,4.7-2.4,8.1-2.4c3.6,0,6.4,0.8,8.5,2.5
	C159.3,36.7,160.4,38.9,160.4,41.7z M26.8,94.2l8.3-22h3.6c2.6,7.4,5.3,14.8,8,22.2h-3.5c-2.2-6.1-4.3-12.2-6.4-18.3l-3.3,9L32,89
	l-2,5.4h-3.4L26.8,94.2z M49.4,94.2v-22h3.3v10.4l10.4-10.4h4.6l-9.4,9.1l9.5,13.1h-4.3l-7.7-10.7l-3.1,3v7.7h-3.3V94.2z M87.3,86.2
	c0,1.4-0.2,2.6-0.6,3.7c-0.4,1.1-1,2-1.7,2.8s-1.7,1.4-2.8,1.8c-1.1,0.4-2.3,0.6-3.7,0.6c-2.9,0-5-0.7-6.5-2.2
	c-0.8-0.7-1.3-1.7-1.7-2.8c-0.4-1.1-0.5-2.3-0.5-3.7v-14h3.3V86c0,1,0.1,1.9,0.3,2.6c0.2,0.7,0.6,1.4,1,1.9c0.5,0.5,1,0.9,1.7,1.1
	s1.5,0.4,2.4,0.4c0.9,0,1.7-0.1,2.4-0.4c0.7-0.3,1.2-0.6,1.7-1.1c0.5-0.5,0.8-1.1,1-1.9C83.9,87.9,84,87,84,86V72.2h3.3V86.2z
	 M105,78.7c-0.1-0.7-0.2-1.2-0.5-1.8s-0.6-1-1.1-1.3c-0.5-0.4-1-0.7-1.6-0.8c-0.6-0.2-1.3-0.3-2.1-0.3c-0.8,0-1.5,0.1-2.2,0.3
	c-0.6,0.1-1.1,0.4-1.5,0.7c-0.4,0.3-0.7,0.7-0.9,1.1c-0.2,0.5-0.3,1-0.3,1.6c0,0.4,0.1,0.7,0.2,1c0.1,0.3,0.3,0.5,0.6,0.7
	c0.3,0.2,0.7,0.4,1.3,0.6s1.3,0.4,2.1,0.6l3.8,0.9c1,0.3,1.9,0.6,2.7,0.9c0.7,0.4,1.3,0.8,1.8,1.3c0.5,0.5,0.8,1.1,1,1.8
	c0.2,0.7,0.3,1.4,0.3,2.4c0,1-0.2,1.9-0.6,2.7c-0.4,0.8-1,1.5-1.7,2.1s-1.7,1-2.7,1.3c-1,0.3-2.2,0.4-3.5,0.4
	c-1.4,0-2.7-0.2-3.9-0.5s-2.1-0.9-2.9-1.5c-0.8-0.7-1.4-1.5-1.8-2.4c-0.4-0.9-0.6-2-0.6-3.1v-0.3h3v0.2c0,0.8,0.2,1.4,0.5,2
	c0.3,0.6,0.7,1.1,1.2,1.5c0.5,0.4,1.2,0.7,1.9,0.9C98.2,91.9,99,92,100,92c0.9,0,1.7-0.1,2.4-0.2c0.7-0.1,1.2-0.4,1.7-0.7
	s0.8-0.7,1-1.1c0.2-0.4,0.3-0.9,0.3-1.5c0-0.5-0.1-0.9-0.2-1.3c-0.1-0.3-0.3-0.7-0.6-0.9c-0.3-0.2-0.7-0.5-1.4-0.7
	c-0.6-0.2-1.4-0.5-2.3-0.7L97.1,84c-1-0.2-1.8-0.5-2.5-0.8c-0.7-0.3-1.3-0.7-1.7-1.1c-0.4-0.4-0.7-0.9-1-1.5c-0.2-0.6-0.3-1.2-0.3-2
	c0-1,0.2-2,0.5-2.9c0.4-0.9,0.9-1.6,1.6-2.2c0.7-0.6,1.6-1.1,2.6-1.4c1-0.3,2.1-0.5,3.3-0.5c1.2,0,2.4,0.1,3.4,0.5
	c1,0.3,1.9,0.8,2.6,1.4c0.7,0.7,1.3,1.4,1.7,2.3c0.4,0.9,0.6,1.8,0.7,2.9l0,0.2H105V78.7z M117.4,94.2v-19H110v-3h18.1v3h-7.4v19.2
	h-3.3V94.2z M131,94.2v-22h3.3v22.2H131V94.2z M139.7,94.2v-22h3.3v10.4l10.4-10.4h4.6l-9.5,9.1l9.6,13.1h-4.3L146,83.7l-3.1,3v7.7
	h-3.3V94.2z M46.2,44.9c0-2.3-0.6-4.1-1.8-5.4c-1.2-1.3-2.9-1.9-5-1.9c-2,0-3.6,0.6-4.8,1.9c-1.2,1.2-1.8,3.1-2,5.4H46.2z
	 M52.4,49.3H32.6c0.1,2.6,0.7,4.7,1.9,6.1c1.2,1.4,3,2.1,5.3,2.1c1.6,0,3-0.4,4.1-1.2c1.1-0.8,1.8-2,2.2-3.4h6
	c-0.5,2.9-2,5.3-4.3,7.1c-2.3,1.8-5.1,2.7-8.4,2.7c-4.1,0-7.3-1.4-9.6-4.1c-2.3-2.7-3.5-6.4-3.5-11.1c0-4.7,1.2-8.4,3.5-11
	s5.6-4,9.8-4c4,0,7.2,1.3,9.5,3.9c2.3,2.6,3.4,6.2,3.4,10.7c0,0.4,0,1-0.1,1.9C52.4,49.2,52.4,49.3,52.4,49.3z M23.6,41.7h-5.8
	c-0.1-1.4-0.7-2.5-1.7-3.2c-1-0.7-2.5-1.1-4.3-1.1c-1.5,0-2.7,0.3-3.5,0.9c-0.9,0.5-1.3,1.3-1.3,2.2c0,0.9,0.3,1.6,1,2.2
	c0.7,0.5,1.9,1,3.7,1.4l3.6,0.8c3.5,0.8,5.9,1.8,7.2,3.1c1.3,1.2,1.9,3,1.9,5.3c0,3-1.1,5.3-3.2,7c-2.2,1.6-5.2,2.5-9.1,2.5
	c-3.8,0-6.8-0.9-8.9-2.6C1.1,58.3,0,55.8,0,52.6h5.9c0.2,1.7,0.8,3,1.9,3.9s2.7,1.3,4.8,1.3c1.8,0,3.1-0.3,4.2-1
	c1-0.7,1.5-1.6,1.5-2.7c0-0.9-0.3-1.5-0.9-2c-0.6-0.5-1.8-1-3.5-1.4l-4.3-1.1c-3.2-0.8-5.5-1.8-6.8-3s-2-2.9-2-5.1
	c0-2.7,1-4.9,3-6.4c2-1.6,4.7-2.4,8.1-2.4c3.5,0,6.4,0.8,8.5,2.5C22.5,36.7,23.6,38.9,23.6,41.7z M80.3,44.5v18h-6l0,0V45
	c0-2.4-0.6-4.2-1.9-5.5c-2.4-2.5-6.2-2.5-8.6,0c-1.3,1.3-1.9,3.1-1.9,5.5v17.5l0,0h-6v-18l0.1-2.1c1-12.8,23.3-13.5,24.3,0
	L80.3,44.5z M129.2,44.9c0-2.3-0.6-4.1-1.8-5.4c-1.2-1.3-2.8-1.9-5-1.9c-2,0-3.6,0.6-4.8,1.9c-1.2,1.2-1.9,3.1-2.1,5.4H129.2z
	 M135.4,49.3h-19.8c0.1,2.6,0.7,4.7,2,6.1c1.2,1.4,3,2.1,5.2,2.1c1.6,0,3-0.4,4.1-1.2c1.1-0.8,1.8-2,2.2-3.4h6
	c-0.5,2.9-2,5.3-4.3,7.1c-2.3,1.8-5.1,2.7-8.4,2.7c-4.1,0-7.3-1.4-9.6-4.1c-2.4-2.7-3.5-6.4-3.5-11.1c0-4.7,1.2-8.4,3.5-11
	c2.3-2.7,5.6-4,9.7-4c4,0,7.2,1.3,9.5,3.9c2.3,2.6,3.5,6.2,3.5,10.7c0,0.4,0,1-0.1,1.9C135.4,49.2,135.4,49.3,135.4,49.3z
	 M106.6,41.7h-5.8c-0.1-1.4-0.7-2.5-1.7-3.2c-1-0.7-2.5-1.1-4.3-1.1c-1.5,0-2.7,0.3-3.5,0.9c-0.9,0.5-1.3,1.3-1.3,2.2
	c0,0.9,0.3,1.6,1,2.2c0.7,0.5,2,1,3.7,1.4l3.6,0.8c3.5,0.8,5.9,1.8,7.2,3.1c1.3,1.2,1.9,3,1.9,5.3c0,3-1.1,5.3-3.2,7
	c-2.2,1.6-5.2,2.5-9,2.5c-3.9,0-6.8-0.9-8.9-2.6c-2.1-1.8-3.1-4.3-3.1-7.5h5.8c0.2,1.7,0.8,3,1.9,3.9s2.7,1.3,4.8,1.3
	c1.8,0,3.1-0.3,4.2-1c1-0.7,1.5-1.6,1.5-2.7c0-0.9-0.3-1.5-0.9-2c-0.6-0.5-1.8-1-3.5-1.4l-4.3-1.1c-3.2-0.8-5.5-1.8-6.8-3
	c-1.3-1.2-2-2.9-2-5.1c0-2.7,1-4.9,3-6.4c2-1.6,4.7-2.4,8.1-2.4c3.6,0,6.4,0.8,8.5,2.5C105.5,36.7,106.6,38.9,106.6,41.7z"/>
</svg>
