<?xml version="1.0" encoding="UTF-8"?>
<!DOCTYPE svg PUBLIC "-//W3C//DTD SVG 1.1//EN" "http://www.w3.org/Graphics/SVG/1.1/DTD/svg11.dtd">
<!-- Creator: CorelDRAW X7 -->
<svg xmlns="http://www.w3.org/2000/svg" xml:space="preserve" width="76.5386mm" height="33.5278mm" version="1.1" style="shape-rendering:geometricPrecision; text-rendering:geometricPrecision; image-rendering:optimizeQuality; fill-rule:evenodd; clip-rule:evenodd"
viewBox="0 0 7654 3353"
 xmlns:xlink="http://www.w3.org/1999/xlink">
 <defs>
  <style type="text/css">
   <![CDATA[
    .fil1 {fill:#FECC00}
    .fil2 {fill:#232026}
    .fil0 {fill:#232026;fill-rule:nonzero}
   ]]>
  </style>
 </defs>
 <g id="Layer_x0020_1">
  <metadata id="CorelCorpID_0Corel-Layer"/>
  <g id="_2598654591280">
   <path class="fil0" d="M6477 1178l824 0 -824 -824 0 824zm-206 -970l-824 0 824 824 0 -824zm-1073 -206l1176 0c18,0 35,4 50,13l0 0 2 1 1 0 1 1 1 0 1 1 1 1c6,4 12,8 17,14l1175 1174 0 1 0 0 1 1 1 1 0 0 1 1c1,2 3,3 4,5l1 1 1 0 0 1 0 1 1 0 0 1 1 1 0 0 1 1 0 1 1 0 0 1 1 1 1 1 0 1 1 1 0 1 1 1 0 0 1 1 0 1 0 0 1 2 1 1 0 1 0 0 1 1 0 1 0 1 1 0 0 1 0 1 1 1 0 1 1 1c0,1 1,2 1,4l0 0 0 0 1 2 0 0 0 1 0 1 1 1 0 0 0 0 0 2 0 0 0 0 0 1 1 2 0 0 0 1 0 1 0 0 1 3 0 0 0 1 0 1 0 0 1 2 0 1 0 0 0 0 0 2 0 1 0 2 0 0 0 0 0 1 0 2 0 0 0 0 0 2 0 1 1 2 -1 3 0 0 0 2 0 0 0 1 0 1 0 1 0 0 0 1 0 2 0 0 0 2 0 0 0 0 0 2 -1 1 0 0 0 1 0 1 0 1 -1 2 0 0 0 2 0 0 0 1 -1 2 0 0 0 0 0 0 0 2 0 0 0 1 -1 0 0 2 0 0 0 0 -1 2 0 0 0 1c0,1 -1,2 -1,4l-1 1 0 1 -1 0 0 1 0 1 -1 1 0 0 0 1 -1 1 0 0 0 2 -1 1 -1 1 0 0 0 1 -1 1 0 0 -1 1 0 1 -1 1 0 1 -1 1 -1 2 0 0 -1 1 0 1 -1 1 0 0 -1 1 0 1 -1 0 0 1 0 0 -1 1 -1 1c-1,1 -3,3 -4,4l-1 1 0 0 -1 1 -1 1 -1 1 -1175 1176c-40,40 -106,40 -146,0 -20,-21 -30,-47 -30,-74l0 -1133 -1146 -1145c-19,-19 -31,-45 -31,-74 0,-57 47,-103 104,-103zm2103 1382l-824 0 0 824 824 -824z"/>
   <polygon class="fil1" points="6271,1032 5447,208 6271,208 "/>
   <path class="fil2" d="M5658 1471l-206 0c-4,-49 -23,-87 -59,-113 -36,-26 -87,-39 -152,-39 -53,0 -95,10 -125,30 -31,19 -46,46 -46,79 0,31 12,57 37,76 25,19 69,36 132,50l127 29c123,29 207,65 253,109 45,44 68,106 68,187 0,106 -38,188 -114,247 -77,58 -183,88 -319,88 -136,0 -241,-31 -315,-93 -74,-63 -112,-151 -112,-264l207 0c7,61 29,106 68,136 39,30 96,45 171,45 62,0 111,-12 147,-35 36,-24 54,-56 54,-97 0,-31 -10,-54 -32,-72 -21,-18 -62,-34 -124,-50l-150 -38c-114,-27 -194,-63 -241,-107 -47,-44 -71,-104 -71,-179 0,-96 35,-172 105,-227 71,-56 166,-84 287,-84 126,0 225,29 299,87 74,58 111,137 111,235zm-4714 1851l292 -775 128 0c93,261 187,522 281,783l-125 0c-76,-215 -150,-430 -225,-645l-115 317 -50 137 -69 191 -120 0 3 -8zm799 2l0 -777 116 0 0 366 367 -366 161 0 -333 322 336 461 -150 0 -272 -378 -109 106 0 272 -116 0 0 -6zm1337 -282c0,48 -7,91 -21,129 -13,38 -34,71 -61,98 -27,27 -60,48 -98,62 -38,13 -81,20 -129,20 -101,0 -177,-26 -230,-79 -27,-26 -46,-59 -60,-98 -13,-38 -19,-82 -19,-132l0 -495 116 0 0 487c0,35 4,66 12,93 8,26 20,48 37,66 16,18 36,31 60,40 24,9 52,14 84,14 32,0 60,-5 84,-14 23,-9 43,-22 60,-40 16,-18 28,-40 36,-66 9,-27 13,-58 13,-93l0 -487 116 0 0 495zm623 -265c-2,-23 -8,-44 -17,-62 -9,-18 -22,-34 -38,-46 -16,-13 -36,-23 -58,-29 -22,-7 -47,-10 -75,-10 -29,0 -54,3 -76,9 -22,5 -40,13 -54,24 -15,11 -25,24 -33,40 -7,16 -10,34 -10,55 0,14 2,26 7,37 4,10 11,18 20,25 10,7 25,14 45,21 20,7 45,14 75,21l135 32c36,9 67,20 94,33 26,13 47,28 63,45 16,18 28,38 36,63 8,24 12,51 12,83 0,35 -7,68 -21,96 -13,29 -34,54 -61,75 -27,21 -59,36 -95,47 -37,10 -78,15 -124,15 -51,0 -96,-6 -136,-18 -40,-12 -74,-30 -103,-54 -29,-24 -50,-52 -64,-84 -14,-33 -21,-70 -21,-111l0 -12 107 0 0 6c1,27 6,51 16,72 10,20 24,38 43,53 19,14 41,25 68,33 26,7 56,11 90,11 32,0 60,-3 84,-8 23,-5 43,-13 59,-24 16,-11 28,-23 35,-39 8,-15 12,-33 12,-53 0,-18 -2,-33 -8,-47 -5,-12 -12,-23 -22,-31 -11,-8 -26,-17 -48,-25 -21,-8 -49,-16 -81,-24l-135 -32c-34,-8 -63,-18 -88,-29 -25,-11 -45,-25 -60,-39 -15,-15 -26,-33 -34,-54 -7,-20 -11,-44 -11,-70 0,-37 6,-71 19,-101 13,-30 32,-57 58,-79 26,-22 56,-39 91,-50 34,-11 73,-16 116,-16 44,0 84,5 119,17 35,11 66,27 92,49 26,23 47,49 61,80 14,31 22,65 23,104l1 7 -108 0 0 -6zm440 547l0 -672 -261 0 0 -105 638 0 0 105 -261 0 0 678 -116 0 0 -6zm477 0l0 -777 116 0 0 783 -116 0 0 -6zm307 0l0 -777 116 0 0 366 366 -366 162 0 -334 322 337 461 -150 0 -272 -378 -109 106 0 272 -116 0 0 -6zm-3298 -1739c-1,-81 -22,-145 -63,-189 -42,-45 -101,-68 -176,-68 -72,0 -128,22 -170,66 -41,44 -65,108 -72,191l481 0zm219 154l-699 0c2,93 24,165 68,215 44,50 106,75 186,75 57,0 105,-14 144,-43 39,-29 65,-69 78,-120l211 0c-19,104 -69,188 -151,252 -82,64 -181,96 -295,96 -143,0 -257,-48 -339,-143 -82,-95 -123,-226 -123,-393 0,-165 41,-295 124,-389 83,-94 198,-140 344,-140 141,0 253,46 334,137 81,92 121,218 121,379 0,14 -1,37 -3,67 0,3 0,6 0,7zm-1017 -268l-206 0c-4,-49 -23,-87 -59,-113 -36,-26 -87,-39 -153,-39 -52,0 -94,10 -124,30 -31,19 -46,46 -46,79 0,31 12,57 37,76 24,19 68,36 132,50l127 29c123,29 207,65 253,109 45,44 68,106 68,187 0,106 -38,188 -114,247 -77,58 -183,88 -320,88 -135,0 -240,-31 -314,-93 -75,-63 -112,-151 -112,-264l207 0c7,61 29,106 68,136 39,30 96,45 171,45 62,0 111,-12 147,-35 36,-24 54,-56 54,-97 0,-31 -11,-54 -32,-72 -21,-18 -63,-34 -124,-50l-150 -38c-114,-27 -194,-63 -241,-107 -47,-44 -71,-104 -71,-179 0,-96 35,-172 105,-227 71,-56 166,-84 287,-84 125,0 225,29 299,87 74,58 111,137 111,235zm2002 98l0 636 -213 0 0 0 0 -617c0,-83 -22,-147 -67,-194 -84,-87 -219,-87 -304,0 -45,47 -67,111 -67,194l0 617 0 0 -213 0 0 -636 3 -73c34,-452 822,-476 858,0l3 73zm1725 16c-1,-81 -22,-145 -63,-189 -42,-45 -100,-68 -176,-68 -72,0 -128,22 -169,66 -42,44 -66,108 -73,191l481 0zm219 154l-699 0c2,93 25,165 69,215 44,50 106,75 185,75 57,0 105,-14 144,-43 39,-29 65,-69 78,-120l212 0c-19,104 -70,188 -152,252 -82,64 -180,96 -295,96 -143,0 -256,-48 -338,-143 -83,-95 -124,-226 -124,-393 0,-165 42,-295 125,-389 82,-94 197,-140 343,-140 142,0 253,46 334,137 81,92 122,218 122,379 0,14 -1,37 -3,67 -1,3 -1,6 -1,7zm-1017 -268l-206 0c-3,-49 -23,-87 -59,-113 -36,-26 -87,-39 -152,-39 -53,0 -94,10 -125,30 -31,19 -46,46 -46,79 0,31 12,57 37,76 25,19 69,36 132,50l127 29c123,29 207,65 253,109 45,44 68,106 68,187 0,106 -38,188 -114,247 -76,58 -183,88 -319,88 -136,0 -241,-31 -315,-93 -74,-63 -111,-151 -111,-264l206 0c7,61 29,106 68,136 39,30 96,45 171,45 62,0 111,-12 147,-35 36,-24 54,-56 54,-97 0,-31 -10,-54 -32,-72 -21,-18 -62,-34 -123,-50l-151 -38c-114,-27 -194,-63 -241,-107 -47,-44 -71,-104 -71,-179 0,-96 36,-172 106,-227 70,-56 165,-84 286,-84 126,0 226,29 299,87 74,58 111,137 111,235z"/>
  </g>
 </g>
</svg>
