<svg width="120" height="120" viewBox="0 0 120 120" fill="none" xmlns="http://www.w3.org/2000/svg">
<path d="M113.761 42.4317C111.091 46.5317 107.821 50.3717 105.871 54.7817C101.471 64.7117 91.6714 67.3717 83.5814 72.3317C81.8214 73.4117 80.6014 72.4017 80.1114 70.3817C79.2114 66.6417 78.1713 62.9417 77.2113 59.2217C76.9313 58.1317 76.7714 56.7117 75.3014 57.0017C73.9714 57.2617 74.6413 58.6817 74.6313 59.5417C74.5813 74.0017 74.6013 88.4517 74.5913 102.912C74.5913 103.912 74.6213 104.912 74.5313 105.902C74.4313 106.972 74.0013 107.812 72.7013 107.812C71.4113 107.812 70.9714 107.062 70.9114 105.922C70.9014 105.672 70.8813 105.422 70.8813 105.172C70.8813 88.4717 70.8813 71.7717 70.8813 55.0817C70.8813 52.4817 71.9513 51.9917 74.4613 52.7017C78.0313 53.7117 80.7813 54.9217 81.1013 59.3217C81.3113 62.2017 82.4614 65.0217 83.1214 67.5917C94.5714 64.1117 101.611 56.2417 106.161 45.6817C102.221 45.6217 99.1214 46.5817 97.6614 50.9117C96.7214 53.7017 94.8513 56.1717 93.7113 58.9117C92.6613 61.4417 90.4314 62.1117 88.3014 63.0617C87.3314 63.4917 86.6013 63.1217 86.1013 62.2917C85.5813 61.4317 85.6414 60.3417 86.5014 59.9917C91.8314 57.8217 92.6613 52.4117 94.7713 48.1417C96.6213 44.4117 98.7913 42.0017 102.991 41.9817C107.841 41.9617 111.721 39.6917 115.521 37.0717C116.481 36.4117 117.451 35.2017 118.821 36.1517C120.321 37.1917 119.531 38.5617 119.191 39.8717C116.351 50.6617 113.491 61.4517 110.731 72.2717C110.321 73.8617 109.411 74.8317 108.221 75.8017C103.001 80.0417 97.9313 84.4717 92.5913 88.5517C90.4913 90.1517 90.3513 91.6817 90.8513 93.9717C92.4513 101.242 93.8413 108.572 95.3413 115.862C95.6613 117.412 96.0314 119.082 93.9714 119.442C92.1114 119.762 91.9013 118.042 91.6313 116.712C89.9813 108.432 88.4613 100.132 86.6413 91.8917C86.1213 89.5217 86.8314 88.1917 88.5514 86.8217C93.9014 82.5517 99.2014 78.2117 104.471 73.8417C105.581 72.9217 106.751 72.1217 107.171 70.4417C109.511 61.2017 112.001 52.0117 114.441 42.8017C114.211 42.6817 113.981 42.5717 113.761 42.4517V42.4317Z" fill="#010101"/>
<path d="M13.3117 45.5918C17.3017 55.8418 24.3417 63.0118 34.5117 67.1118C35.9217 67.6818 36.4017 67.6218 36.7117 66.0018C37.2217 63.3318 38.0217 60.7118 38.7417 58.0818C39.5817 55.0218 43.4517 52.2018 46.6217 52.3018C48.9217 52.3818 48.6117 54.1218 48.6117 55.5618C48.6417 62.6618 48.6217 69.7618 48.6217 76.8618C48.6217 85.7018 48.6817 94.5518 48.5717 103.392C48.5517 104.982 49.6917 107.732 46.6617 107.682C44.0017 107.632 44.9317 105.092 44.9217 103.542C44.8617 89.3418 44.8817 75.1418 44.8817 60.9418C44.8817 60.1918 44.9617 59.4318 44.8617 58.7018C44.7517 57.9718 45.4317 56.7918 44.0117 56.6618C42.9217 56.5618 42.6017 57.4018 42.3717 58.3018C41.4317 62.0218 40.3817 65.7218 39.5217 69.4618C38.8317 72.4518 37.4117 73.2318 34.8117 71.4218C34.7117 71.3518 34.6117 71.2618 34.4917 71.2218C21.9917 66.6218 14.1517 57.2118 8.16167 45.8718C7.47167 44.5718 6.61167 43.3718 5.12167 42.3718C6.70167 48.4518 8.78167 54.4618 9.74167 60.6418C11.0517 69.0118 15.4717 74.7718 22.3217 79.2918C25.6317 81.4718 28.5417 84.2618 31.6417 86.7618C32.9717 87.8318 33.7417 88.9218 33.3117 90.9018C31.4917 99.3918 29.8817 107.932 28.1717 116.452C27.9017 117.812 27.6317 119.342 25.6817 118.932C23.6517 118.512 24.2217 116.942 24.4717 115.642C25.8717 108.332 27.1917 100.992 28.7917 93.7218C29.3417 91.2418 29.0817 89.6118 26.9417 87.9818C21.8917 84.1318 17.0817 79.9718 12.1017 76.0218C10.2717 74.5718 9.15167 72.8818 8.57167 70.5618C5.95167 60.0018 3.15167 49.4618 0.371674 38.9118C0.0816739 37.8118 -0.418326 36.7318 0.661674 35.8318C1.95167 34.7418 3.05167 35.6118 3.96167 36.4218C8.47167 40.4518 13.8317 42.2918 19.7717 42.6518C21.3817 42.7518 22.1717 43.6618 22.8217 44.9818C24.4117 48.2118 26.1117 51.3718 27.6717 54.6118C28.6517 56.6518 29.6017 58.6018 31.9417 59.4718C33.0417 59.8818 33.8817 60.7918 33.2517 62.1118C32.4917 63.7218 31.3017 63.1618 30.1117 62.6018C27.9317 61.5818 26.1317 60.3518 25.1917 57.8918C24.1817 55.2418 22.4017 52.8818 21.4117 50.2218C19.9217 46.2018 16.9417 45.4118 13.3117 45.5918Z" fill="black"/>
<path d="M85.6516 25.1917C86.3616 39.3417 75.0216 51.4717 60.4416 52.1417C46.8016 52.7717 34.4116 41.5617 33.6416 27.9017C32.8016 13.0717 43.9816 0.62169 58.6716 0.0216905C72.9916 -0.55831 84.9116 10.5617 85.6516 25.1917Z" fill="#010101"/>
<path d="M44.7417 115.322C44.8117 113.762 44.4217 111.802 46.5517 111.832C48.8317 111.872 48.5317 113.922 48.5017 115.482C48.4717 116.992 48.9317 119.102 46.4517 118.942C43.9317 118.782 45.0717 116.562 44.7517 115.322H44.7417Z" fill="#0C0C0C"/>
<path d="M70.8013 115.562C71.0113 114.042 70.2913 111.822 72.7013 111.842C75.0013 111.862 74.6213 113.992 74.6013 115.532C74.5713 117.032 75.0313 119.102 72.5113 118.962C70.2113 118.832 71.1113 116.822 70.8113 115.572L70.8013 115.562Z" fill="#0E0E0E"/>
<path d="M76.4213 40.3217C76.4213 37.7717 76.4213 35.9317 76.4213 34.0917C76.4213 28.2217 75.8213 27.5617 69.9513 26.3817C68.6613 26.1217 67.6413 26.2117 67.2213 27.5117C66.7813 28.8617 67.6613 29.8117 68.8513 29.9517C72.9213 30.4217 72.8513 33.2017 72.5713 36.1817C72.5613 36.3017 72.5713 36.4317 72.5713 36.5517C72.5713 45.8417 71.2413 47.2517 61.3613 48.1417C61.3613 43.5217 61.4313 38.9217 61.3213 34.3317C61.2813 32.6717 62.2813 29.9117 59.4013 30.0017C56.5613 30.0917 57.7413 32.8517 57.6713 34.4917C57.5113 38.2217 57.4713 41.9717 57.6713 45.6917C57.7913 47.9117 56.8513 48.2317 55.0713 47.8317C52.5113 47.2617 50.1113 46.3217 47.8213 45.0217C46.6713 44.3717 46.3513 43.5017 46.3913 42.2717C46.4613 39.9117 46.5613 37.5317 46.3713 35.1817C46.1513 32.4317 46.5413 30.3617 49.7913 29.8717C51.1813 29.6617 52.1313 28.7117 51.6013 27.2117C51.0313 25.5817 49.6713 26.0617 48.4413 26.3717C42.8813 27.7717 42.8113 27.8517 42.8113 33.6517C42.8113 35.6417 42.8113 37.6217 42.8113 39.7317C35.7513 34.5417 35.4913 20.4017 42.1413 12.1317C50.0613 2.28173 64.4513 0.921735 74.0913 9.12173C83.3213 16.9717 84.6313 31.1417 76.3913 40.3217H76.4213Z" fill="#F8B948"/>
<path d="M68.9313 16.9017C68.8913 22.6817 64.2713 28.0117 59.4213 27.8717C54.7913 27.7417 50.3313 22.3117 50.3213 16.8117C50.3213 11.5417 54.6313 7.32165 59.8713 7.47165C65.0013 7.61165 68.9613 11.7417 68.9313 16.9017Z" fill="#020202"/>
<path d="M68.2513 33.5216C69.5713 33.4016 70.7913 33.8316 70.7513 35.4116C70.7113 36.9516 69.4813 37.3516 68.0713 37.3216C66.5713 37.2916 65.1613 37.0216 65.3113 35.1516C65.4413 33.4916 66.8613 33.4916 68.2513 33.5216Z" fill="#161616"/>
<path d="M59.8213 11.2017C62.9913 11.3017 65.3213 13.8517 65.1913 17.0917C65.0613 20.4517 62.2013 24.0817 59.6713 24.1017C57.0413 24.1217 54.0313 20.1817 54.0613 16.7517C54.0913 13.5817 56.6613 11.1017 59.8213 11.2017Z" fill="#F8B948"/>
</svg>
