<svg width="120" height="120" viewBox="0 0 120 120" fill="none" xmlns="http://www.w3.org/2000/svg">
<path d="M53.2137 37.0631C58.9737 37.5364 61.8537 34.9564 61.8537 29.3231V27.8331C61.8537 20.0231 62.7237 19.3431 70.7237 20.4331C72.4637 20.6731 73.0937 21.4931 73.0837 23.1031C73.0437 28.7031 73.2037 34.3231 72.9237 39.9131C72.6737 44.7431 69.0637 48.0931 64.1737 48.4331C61.8137 48.6031 59.4337 48.6131 57.0737 48.4531C55.0337 48.3231 54.2437 48.8631 54.3137 51.0731C54.3737 53.1631 54.6537 54.3131 57.1537 54.1431C60.1337 53.9431 63.1437 54.0031 66.1137 54.2131C71.1637 54.5731 74.6637 58.0631 74.8837 63.1231C75.0837 67.8431 75.2737 72.6131 74.8637 77.3131C74.3837 82.8331 69.8637 79.6831 67.2137 80.1331C65.1937 80.4731 61.8037 81.5931 61.8437 77.2631C61.8737 74.6431 61.8737 72.0331 61.8337 69.4131C61.8137 68.5231 62.2537 67.1931 60.6537 67.2231C59.5537 67.2431 58.2237 66.5931 57.5637 68.3731C56.5737 71.0231 54.2137 72.2431 51.7237 73.1831C49.4837 74.0231 48.5537 75.4331 48.6937 77.9931C48.9437 82.5831 48.6937 87.2031 48.7937 91.8131C48.8537 94.1431 48.1037 95.2931 45.6237 95.2431C33.4837 95.0231 35.8037 96.8231 35.7437 85.9431C35.7237 82.5631 35.2437 81.4531 31.5837 82.5131C28.0237 83.5431 24.4737 81.9831 21.0137 81.0031C18.0337 80.1631 15.0937 79.1831 11.9337 79.0631C8.87367 78.9431 5.96367 79.1231 3.55367 81.3531C2.78367 82.0731 1.86367 82.4731 0.893667 81.6431C-0.0263326 80.8531 -0.0763326 79.9131 0.673667 79.0131C6.48367 71.9931 8.78367 63.1531 12.8937 55.2531C17.0537 47.2331 22.6637 40.9031 31.2037 37.5231C32.4237 37.0431 32.8137 36.7931 32.4437 35.2131C31.0337 29.3431 32.7737 24.9131 37.0937 22.2131C41.0037 19.7731 46.0237 19.9731 49.6937 22.7231C53.8737 25.8531 55.0637 30.4731 53.2237 36.4131C53.1837 36.5231 53.2237 36.6631 53.2237 37.0531L53.2137 37.0631Z" fill="black"/>
<path d="M114.254 28.4131C114.254 36.5131 114.354 44.6131 114.194 52.7031C114.144 55.2231 114.674 56.4231 117.394 55.9931C118.834 55.7631 119.994 55.8131 119.934 57.9831C119.884 60.0331 118.664 59.9131 117.494 59.6831C111.244 58.4831 107.154 61.5031 103.074 65.8731C94.6541 74.8731 85.6441 83.3231 77.0441 92.1631C74.7141 94.5631 73.2341 94.4531 70.9841 92.1131C65.6741 86.5831 65.5741 86.6731 60.2641 91.9931C55.1641 97.1031 49.9841 102.143 44.9941 107.363C42.9541 109.493 41.4641 109.473 39.4741 107.343C36.1641 103.793 32.5841 100.493 29.2341 96.9731C27.8741 95.5431 27.0241 95.2031 25.4441 96.8331C18.3641 104.173 11.0841 111.313 4.02411 118.663C2.77411 119.963 1.35411 119.873 0.544114 119.243C-0.495886 118.433 0.114114 116.963 1.04411 116.023C4.19411 112.833 7.38411 109.683 10.5541 106.513C15.2241 101.843 19.9741 97.2631 24.5241 92.4731C26.4941 90.4031 27.8841 90.1431 29.9341 92.3731C33.1241 95.8631 36.7641 98.9531 39.8841 102.493C41.8541 104.733 42.9241 104.253 44.7341 102.373C50.6941 96.1831 56.9041 90.2331 62.8741 84.0531C64.8841 81.9731 66.2841 81.7731 68.3541 83.9831C70.1641 85.9131 71.8141 89.3031 74.2241 89.0431C76.2841 88.8131 78.0541 85.7831 79.9041 83.9431C88.1041 75.7631 96.2741 67.5331 104.514 59.3931C105.964 57.9631 107.064 55.9531 109.574 55.9031C110.884 55.8731 110.524 54.6631 110.524 53.8731C110.544 42.6631 110.494 31.4431 110.574 20.2331C110.584 18.3831 109.774 17.6031 108.204 17.0031C103.564 15.2431 98.9541 13.4031 94.3541 11.5431C93.2341 11.0931 91.8541 10.7231 91.9641 9.08313C92.0641 7.70313 93.2841 7.36313 94.2941 6.95313C99.5841 4.81313 104.874 2.67313 110.194 0.613129C113.424 -0.636871 114.244 -0.0968714 114.264 3.36313C114.324 11.7131 114.284 20.0631 114.284 28.4031L114.254 28.4131Z" fill="#010101"/>
<path d="M39.424 69.4131C39.424 62.9331 39.444 56.4531 39.404 49.9831C39.404 48.8031 39.724 47.3531 38.104 46.8431C36.814 46.4431 36.034 47.3331 35.254 48.1631C34.744 48.7031 34.194 49.2131 33.674 49.7431C28.524 54.9031 28.484 54.9331 33.294 60.1931C34.304 61.3031 34.694 61.9831 33.384 63.1831C32.264 64.2031 31.514 64.6431 30.364 63.3031C29.224 61.9831 27.874 60.8631 26.684 59.5831C23.904 56.5731 23.874 53.7131 26.724 50.7331C29.474 47.8531 32.444 45.1831 35.174 42.2831C37.724 39.5531 39.544 43.1531 41.884 42.9031C43.684 42.7131 43.094 44.6931 43.134 45.8131C43.214 47.8031 43.214 49.8031 43.134 51.7931C43.084 53.2331 43.284 54.1631 45.094 54.1431C47.024 54.1231 46.914 52.9431 46.904 51.6431C46.884 49.5231 47.074 47.3931 46.854 45.2931C46.504 41.8831 48.194 40.9131 51.214 40.9931C54.704 41.0831 58.204 40.8631 61.684 41.0631C64.574 41.2231 65.794 40.2431 65.644 37.2531C65.464 33.7731 65.594 30.2831 65.614 26.7931C65.614 25.5931 65.314 24.2631 67.304 24.1831C69.434 24.0931 69.354 25.4031 69.344 26.8331C69.324 30.6931 69.414 34.5631 69.314 38.4131C69.204 42.7331 67.154 44.6631 62.764 44.7431C59.774 44.7931 56.774 44.8331 53.794 44.7331C51.564 44.6531 50.594 45.5431 50.624 47.7831C50.824 60.0831 49.034 57.6731 59.804 57.8131C70.874 57.9631 71.214 58.1731 71.214 69.0731C71.214 70.4431 71.184 71.8131 71.214 73.1831C71.264 75.0731 71.624 76.7631 68.534 76.6531C65.894 76.5531 65.564 75.5531 65.554 73.3231C65.504 63.4531 65.444 63.4531 55.454 63.4531C45.464 63.4531 45.014 63.4531 45.014 73.7531C45.014 78.4831 44.974 83.2231 45.034 87.9531C45.064 90.0031 45.354 91.6331 42.164 91.6231C38.774 91.6131 39.414 89.6231 39.404 87.7231C39.384 81.6231 39.404 75.5131 39.404 69.4131H39.424Z" fill="#FDFDFD"/>
<path d="M8.05394 75.4031C15.2239 58.1931 19.4239 48.7531 25.5039 45.6631C25.6239 47.3531 24.1139 47.9031 23.3039 48.8731C20.1139 52.7331 20.0339 57.6531 23.3239 61.4431C24.8639 63.2231 26.6139 64.8331 28.2839 66.5031C30.4639 68.6898 32.9206 68.7298 35.6539 66.6231C35.6539 70.0331 35.6239 73.0631 35.6639 76.0931C35.6839 77.6031 34.5639 77.8831 33.5339 78.2731C30.5939 79.4031 27.6639 79.0531 24.7439 78.1931C19.4039 76.6231 14.1139 74.7931 8.04395 75.4031H8.05394Z" fill="#F8B948"/>
<path d="M50.4339 31.6132C50.4539 35.6732 47.2739 38.9732 43.2339 39.0832C39.0439 39.1932 35.5639 35.8732 35.5339 31.7132C35.5039 27.5632 38.9539 24.1732 43.1339 24.2332C47.1739 24.2932 50.4139 27.5632 50.4339 31.6132Z" fill="#FDFDFD"/>
<path d="M53.6939 67.5931C52.6139 69.1831 50.7739 69.2931 49.4539 70.2831C48.3339 66.8231 48.4639 66.7331 53.6939 67.5931Z" fill="#F3F3F3"/>
<path d="M35.764 55.2232C35.754 55.8932 35.784 56.6932 34.974 56.5532C34.544 56.4732 34.004 55.7632 33.914 55.2532C33.754 54.4532 34.424 53.8532 35.154 53.8632C36.024 53.8832 35.634 54.7632 35.764 55.2132V55.2232Z" fill="#DFDFDF"/>
<path d="M98.8638 9.23317C101.254 8.24317 103.174 7.42317 105.114 6.66317C110.584 4.50317 110.404 4.52317 110.604 10.3532C110.714 13.5232 109.824 13.9832 107.134 12.6832C104.594 11.4632 101.934 10.4932 98.8738 9.23317H98.8638Z" fill="white"/>
</svg>
