<svg width="121" height="120" viewBox="0 0 121 120" fill="none" xmlns="http://www.w3.org/2000/svg">
<path d="M72.0368 105.879C71.8968 108.489 71.9568 111.139 71.5668 113.719C70.7668 118.929 66.8868 121.149 61.9968 119.199C60.5968 118.649 59.5868 118.649 58.1868 119.199C53.2868 121.139 49.4168 118.929 48.6168 113.719C48.2168 111.139 48.2868 108.499 48.1468 105.879C47.0068 104.779 47.0268 103.299 46.8268 101.889C47.1068 98.3294 47.0768 94.7594 47.0668 91.1794C47.0535 88.0794 45.5202 86.1594 42.4668 85.4194C41.5368 85.0294 40.7768 84.4294 40.0768 83.4894C40.2368 88.0694 40.2868 92.5294 40.0868 96.9894C40.0268 98.2694 40.7768 100.469 38.0868 100.369C37.1468 99.0594 37.2868 97.5294 37.2368 96.0494C36.8168 84.4894 38.1668 72.9794 38.1368 61.4194C38.1168 55.2494 42.1368 51.5194 47.8368 49.5794C49.1868 49.2394 50.5468 49.2294 51.9068 49.4994C57.3468 50.2194 62.7968 50.1594 68.2468 49.5194C69.6068 49.2194 70.9568 49.2394 72.3068 49.5594C79.2168 52.1194 82.3468 56.1694 82.1668 63.2994C81.9068 73.9294 83.4268 84.4894 82.9668 95.1194C82.8968 96.8494 83.1668 98.6394 82.1968 100.229C79.5768 100.779 80.1968 98.5594 80.1368 97.4594C79.8868 92.8794 79.9668 88.2894 80.0968 83.6994C79.3668 84.1894 78.7568 85.0494 77.7868 85.3794C74.6868 86.1328 73.1302 88.1661 73.1168 91.4794C73.1068 94.9394 73.0968 98.3994 73.3568 101.859C73.1668 103.279 73.1868 104.769 72.0368 105.869V105.879Z" fill="#F8B948"/>
<path d="M77.3368 84.7595C78.4468 83.7995 79.5568 82.8295 81.4968 81.1495V100.18C85.4568 101.06 85.8968 100.77 85.9168 96.3995C85.9868 81.9195 85.9368 67.4395 85.9468 52.9595C85.9468 51.4595 85.8768 49.9595 86.1368 48.4795C86.3968 46.9795 87.1068 45.9095 88.7968 45.8595C90.6668 45.7995 91.5368 46.9095 91.7368 48.5795C92.1668 52.1895 91.8668 55.8095 91.9468 59.4295C91.9768 60.9295 91.8568 62.4295 92.2168 63.8995C92.4368 64.7895 92.8268 65.6095 93.9068 65.5695C94.9968 65.5295 95.4068 64.6595 95.4568 63.7695C95.7868 58.2895 96.1868 52.7695 95.2368 47.3495C94.6068 43.7695 91.6868 41.9395 87.3968 41.6895C82.2968 41.3995 77.1668 42.1195 72.0868 41.2295C70.2668 40.2495 70.7468 38.6195 70.9368 37.0795C71.6968 35.9795 72.6468 35.8695 73.7768 36.4895C73.0068 35.7395 71.8168 35.6595 71.0268 34.9095C69.8468 33.7795 68.5468 32.7095 68.9968 30.7795C66.3768 22.1395 69.1668 16.1295 76.8068 13.9595C81.0468 12.7595 84.5268 14.2795 88.5068 17.8595C86.5268 12.3895 86.6968 7.99953 89.9768 4.15953C91.8368 1.98953 94.1968 0.689526 96.9668 0.169526C102.087 -0.790474 107.577 2.41953 109.527 7.44953C111.857 13.4695 109.647 18.4795 102.057 23.2295C104.377 23.2295 106.037 23.2095 107.687 23.2295C114.587 23.3495 119.817 28.2995 120.017 35.1495C120.177 40.3895 120.137 45.6295 120.027 50.8695C119.927 55.4595 117.307 58.0995 112.707 57.8595C110.357 57.7395 110.377 58.7195 110.377 60.3795C110.417 68.4895 110.417 76.5995 110.377 84.7095C110.347 91.5395 105.977 94.4395 99.8568 91.6495C98.9868 91.2595 98.5368 91.1995 97.6368 91.6495C94.4568 93.2395 94.4168 93.1495 90.8268 92.4195C90.8268 95.1695 90.9868 97.8595 90.7868 100.53C90.4768 104.77 86.0168 107.6 82.1268 105.92C80.1568 105.06 78.5368 104.87 76.6768 105.99C75.1568 106.91 73.5568 106.55 72.0168 105.88C71.7768 104.4 71.5168 102.92 72.3668 101.53C75.3368 101.33 76.3568 99.6195 76.2468 96.8095C76.1468 94.0795 76.1968 91.3495 76.2468 88.6095C76.2668 87.2395 76.2868 85.8595 77.3168 84.7595H77.3368Z" fill="black"/>
<path d="M47.7767 101.53C48.6267 102.92 48.3767 104.4 48.1267 105.88C43.5667 106.49 39.0267 105.41 34.3667 106.01C31.4767 106.39 29.2467 103.31 29.2867 99.7596C29.3167 97.3896 29.2867 95.0196 29.2867 92.5496C28.7767 92.5796 28.4367 92.6096 28.1067 92.6196C23.9567 92.7696 19.9567 91.5996 15.5967 92.6696C12.4067 93.4496 9.8067 89.4696 9.7767 85.3996C9.7267 77.1596 9.6867 68.9096 9.8067 60.6696C9.8367 58.4296 9.4267 57.7396 6.9667 57.8996C3.0867 58.1496 0.286705 55.4596 0.166705 51.5196C-0.0132955 45.7796 -0.113295 40.0196 0.216705 34.2896C0.576705 28.0096 5.8767 23.3996 12.2667 23.2596C13.9667 23.2196 15.6667 23.2596 17.7067 23.2596C10.0667 17.7296 8.0967 12.6496 10.9967 6.60964C13.3967 1.59964 19.1267 -0.960365 24.4667 0.589635C31.0167 2.47964 33.5567 7.43964 32.4367 16.5396C35.8067 14.7596 39.0267 12.7896 42.9667 13.7996C50.6667 15.7696 53.7467 22.0996 51.1867 30.7696C51.4267 32.6296 49.9067 33.5496 49.0367 34.8196C48.1267 35.3796 47.2467 36.0196 45.9467 36.0696C47.1367 36.3196 48.2867 35.0496 49.2267 36.3196C49.5767 38.0796 50.0467 39.8696 48.2167 41.1796C43.6467 42.1496 39.0267 41.5296 34.4367 41.6396C27.1367 41.8096 24.5567 44.3196 24.4867 51.6096C24.4567 54.9696 24.3867 58.3396 24.5267 61.6996C24.5867 63.1996 24.1567 65.5596 26.4067 65.4696C28.5167 65.3896 28.1267 63.0496 28.1867 61.5296C28.3167 58.1696 28.2067 54.7996 28.2367 51.4396C28.2467 50.1896 28.2367 48.9396 28.6267 47.7396C29.0067 46.5296 29.8367 45.8896 31.1067 45.8496C32.5367 45.7996 33.4867 46.4596 33.8767 47.8496C34.2967 49.3096 34.2167 50.8096 34.2167 52.3096C34.2167 66.1396 34.2167 79.9696 34.2167 93.8096C34.2167 94.8096 34.1967 95.7996 34.2367 96.7996C34.4167 100.79 34.7667 101.06 38.6667 100.19C39.4867 94.0996 38.5967 87.9496 39.1567 81.6096C40.4967 82.7596 41.6567 83.7696 42.8267 84.7696C44.3567 86.5896 43.8167 88.7796 43.8967 90.8496C43.9767 92.8296 43.9967 94.8296 43.8967 96.8096C43.7567 99.6296 44.7967 101.34 47.7667 101.53H47.7767Z" fill="black"/>
<path d="M48.747 34.3995C48.587 32.5295 50.567 32.1095 51.187 30.7695C57.127 25.9795 63.067 25.9995 68.997 30.7895C69.787 31.9795 70.567 33.1795 71.357 34.3695C71.477 35.2195 72.167 36.0195 71.577 36.9395L71.607 40.5495C72.597 43.0795 70.867 44.7795 69.747 46.6695C69.167 47.3595 68.497 47.9695 67.767 48.4995C66.907 49.0895 65.987 49.5395 64.757 49.8495C65.857 49.6995 66.747 49.2995 67.647 49.7395C67.977 49.8995 68.197 50.1495 68.327 50.4795C62.827 51.3695 57.337 51.3695 51.837 50.4795C51.967 50.1395 52.207 49.8995 52.527 49.7395C53.437 49.2895 54.327 49.7095 55.417 49.8495C54.217 49.5395 53.287 49.1095 52.417 48.5095C51.687 47.9695 51.027 47.3595 50.437 46.6695C49.317 44.7795 47.567 43.0695 48.567 40.5395C48.577 39.0895 48.587 37.6395 48.597 36.1995C48.227 35.5695 48.397 34.9795 48.747 34.4095V34.3995Z" fill="#F8B948"/>
<path d="M48.567 40.5396C48.977 42.6796 50.137 44.4996 51.107 46.3996C49.887 47.4896 48.957 48.7695 48.367 50.2995C41.367 52.9195 38.647 57.9295 38.837 65.3995C39.137 76.9795 38.767 88.5896 38.677 100.18C38.027 101.85 37.017 103.05 35.037 102.37C33.147 101.72 33.067 100.09 33.077 98.3796C33.107 82.5496 33.097 66.7195 33.097 50.8895C33.097 50.1395 33.027 49.3896 33.107 48.6496C33.287 47.0296 32.637 46.4995 31.007 46.4995C29.317 46.4995 29.277 47.3996 29.287 48.6296C29.317 53.4896 29.287 58.3495 29.307 63.2095C29.307 65.3495 29.007 67.4995 26.387 67.5795C23.417 67.6695 23.297 65.3496 23.317 63.0996C23.357 58.7396 23.297 54.3696 23.337 50.0096C23.387 43.9196 26.687 40.6795 32.877 40.6195C38.107 40.5695 43.347 40.5596 48.577 40.5396H48.567Z" fill="white"/>
<path d="M69.0669 46.3996C70.0369 44.4996 71.1969 42.6796 71.5969 40.5396C76.8369 40.5696 82.0669 40.5695 87.3069 40.6195C93.4969 40.6795 96.8069 43.9195 96.8569 49.9995C96.8869 54.6095 96.8369 59.2196 96.8769 63.8396C96.8869 65.9796 96.2369 67.6696 93.8169 67.5996C91.6469 67.5396 90.9269 65.8995 90.9169 63.9595C90.8869 58.9695 90.9169 53.9895 90.8969 48.9995C90.8969 47.8195 91.2769 46.5295 89.1969 46.4795C87.1369 46.4295 87.0769 47.4596 87.0769 49.0096C87.1069 65.4596 87.0769 81.9195 87.1169 98.3695C87.1169 100.27 86.9069 101.99 84.8069 102.48C83.0569 102.89 82.0569 101.75 81.5069 100.18C81.3969 87.3396 81.3769 74.4895 81.1569 61.6595C81.0469 55.5495 76.9369 52.4395 71.8169 50.2995C71.2269 48.7695 70.2869 47.4896 69.0769 46.3996H69.0669Z" fill="white"/>
<path d="M47.7767 101.53C44.4567 103.22 42.8667 102.42 42.7967 98.8495C42.7167 94.1595 42.7967 89.4595 42.8267 84.7695C48.2867 85.4595 48.3667 85.4695 48.2667 91.2595C48.2067 94.6795 48.7967 98.1495 47.7767 101.53Z" fill="white"/>
<path d="M77.3369 84.7595C77.3569 89.4495 77.4469 94.1495 77.3669 98.8395C77.3069 102.42 75.7169 103.22 72.3969 101.53C71.3269 96.5295 72.1169 91.4795 71.8869 86.4595C71.8269 85.1595 72.4169 84.7995 73.6969 84.9395C74.8869 85.0695 76.1169 84.8395 77.3369 84.7595Z" fill="white"/>
<path d="M48.3568 50.2996C48.2868 48.3096 47.7068 45.9596 51.0968 46.3996C51.5968 46.8696 52.0968 47.3496 52.5968 47.8196C53.1668 48.6696 53.2868 49.4896 52.4168 50.2296C52.1868 50.2096 51.9868 50.2896 51.8368 50.4696C50.6768 50.4096 49.5168 50.3496 48.3568 50.2896V50.2996Z" fill="black"/>
<path d="M69.0669 46.3996C72.4469 45.9596 71.8769 48.3096 71.8069 50.2996C70.6469 50.3596 69.4869 50.4196 68.3269 50.4796C68.1769 50.2996 67.9869 50.2196 67.7469 50.2396C66.8769 49.4996 66.9969 48.6796 67.5669 47.8296L69.0669 46.4096V46.3996Z" fill="black"/>
<path d="M106.587 60.2895C106.587 68.2695 106.547 76.2595 106.607 84.2395C106.627 86.5495 106.327 88.9295 103.657 88.9795C100.957 89.0295 100.617 86.6595 100.627 84.3395C100.677 72.9895 100.557 61.6395 100.687 50.2895C100.757 44.2695 98.4071 39.9195 92.7671 37.6395C91.3871 37.0795 90.7071 36.4195 90.8671 34.9395C90.9171 34.4595 90.9071 33.6095 90.6971 33.5295C86.2071 31.8595 90.6571 30.0395 90.7571 28.3995C90.9071 25.9195 93.3071 27.1695 94.6771 27.1095C98.7871 26.9395 102.907 27.0095 107.027 27.0595C112.577 27.1295 116.007 30.2995 116.187 35.7295C116.347 40.5895 116.237 45.4595 116.227 50.3195C116.227 52.4095 115.547 54.1895 113.117 54.0795C110.927 53.9795 110.377 52.2895 110.387 50.3395C110.407 45.5995 110.447 40.8595 110.357 36.1195C110.337 34.8695 111.227 33.0295 108.557 32.9595C105.947 32.8895 106.597 34.6195 106.587 35.9695C106.557 44.0795 106.567 52.1795 106.567 60.2895H106.587Z" fill="white"/>
<path d="M106.577 11.6596C106.577 15.7996 102.717 19.5496 98.5868 19.4196C94.5968 19.2996 90.9368 15.5796 90.9268 11.6496C90.9268 7.51956 94.7968 3.78956 98.9668 3.90956C103.057 4.02956 106.577 7.61956 106.567 11.6596H106.577Z" fill="#FDFDFD"/>
<path d="M87.0667 25.3295C87.0167 29.4695 83.5567 32.9595 79.4867 32.9995C75.2067 33.0395 71.7767 29.4995 71.8267 25.0795C71.8667 20.8795 75.2467 17.4395 79.3667 17.3995C83.5767 17.3595 87.1267 21.0095 87.0667 25.3395V25.3295Z" fill="#FDFDFD"/>
<path d="M96.8666 79.5896C96.8666 81.5796 96.8066 83.5696 96.8866 85.5596C96.9566 87.5196 95.9266 88.8596 94.2066 89.0096C92.2066 89.1796 90.9966 87.6796 90.9366 85.7196C90.8166 81.4896 90.9366 77.2596 90.8666 73.0296C90.8366 71.4596 91.5666 70.7796 92.8366 71.5096C94.1366 72.2596 96.9566 69.4396 96.8766 73.2396C96.8366 75.3496 96.8766 77.4696 96.8766 79.5796L96.8666 79.5896Z" fill="white"/>
<path d="M94.477 22.9894C90.517 24.5594 90.447 21.4394 88.957 18.4094C91.257 20.3094 92.747 21.5594 94.477 22.9894Z" fill="#DEDEDE"/>
<path d="M83.0669 36.5795C84.3869 35.8395 85.3569 34.5895 86.8869 34.7095C86.9869 34.7095 87.2269 35.7395 87.0369 36.0595C85.9969 37.7495 84.3869 36.3395 83.0669 36.5795Z" fill="#E7E7E7"/>
<path d="M71.5769 36.9296C71.6269 36.0596 70.2369 35.3196 71.3569 34.3596C73.0969 33.9696 73.3269 36.2696 75.4369 35.9196C73.8769 37.2296 72.6269 36.5796 71.5769 36.9196V36.9296Z" fill="white"/>
<path d="M13.5766 60.0395C13.5766 51.9295 13.5766 43.8295 13.5766 35.7195C13.5766 34.4295 14.0166 32.9795 11.7166 32.9595C9.47663 32.9395 9.76663 34.2695 9.76663 35.6295C9.76663 40.3695 9.74663 45.1095 9.77663 49.8495C9.78663 52.0195 9.50663 54.1095 6.79663 54.0695C4.36663 54.0395 3.92663 52.1095 3.93663 50.0595C3.95663 45.3195 3.83663 40.5795 3.97663 35.8395C4.13663 30.3795 7.53663 27.1395 13.0266 27.0495C17.0166 26.9895 21.0266 27.2795 24.9966 26.9595C28.0766 26.7095 29.8066 27.6695 30.6166 30.6495C30.9266 31.8095 32.5366 33.1095 29.7466 33.1695C29.5766 33.1695 29.2566 34.2595 29.3166 34.8095C29.4866 36.5095 28.6166 37.0895 27.1566 37.7195C21.9166 39.9695 19.4666 44.0695 19.4966 49.7995C19.5666 60.6495 19.5166 71.4995 19.5166 82.3495C19.5166 83.0995 19.4766 83.8495 19.5166 84.5895C19.6666 86.8195 19.0566 88.9295 16.6166 88.9795C14.1966 89.0295 13.5366 86.9995 13.5666 84.7295C13.6366 79.4895 13.5866 74.2495 13.5866 69.0095C13.5866 66.0195 13.5866 63.0195 13.5866 60.0295L13.5766 60.0395Z" fill="white"/>
<path d="M21.3768 19.4294C17.2168 19.4294 13.4768 15.5794 13.6068 11.4594C13.7368 7.38944 17.3468 3.89945 21.4068 3.90945C25.4468 3.91945 29.1068 7.46945 29.2268 11.4894C29.3468 15.5394 25.4968 19.4294 21.3768 19.4294Z" fill="#FDFDFD"/>
<path d="M48.337 25.2594C48.307 29.4794 44.997 32.9194 40.867 33.0094C36.657 33.0994 33.067 29.4794 33.087 25.1594C33.107 20.9994 36.487 17.5194 40.597 17.4094C44.827 17.2994 48.357 20.8894 48.327 25.2594H48.337Z" fill="#FDFDFD"/>
<path d="M29.2767 79.4994C29.2767 81.4894 29.3167 83.4794 29.2667 85.4694C29.2067 87.4594 28.1567 89.0294 26.2067 89.0094C24.2567 88.9994 23.2567 87.5194 23.2867 85.4294C23.3467 81.3294 23.3767 77.2194 23.2767 73.1194C23.2267 71.1894 24.2267 70.9794 25.5567 71.5494C26.7967 72.0794 29.3567 69.6194 29.2867 73.1494C29.2467 75.2594 29.2867 77.3794 29.2867 79.4894L29.2767 79.4994Z" fill="white"/>
<path d="M24.7471 22.8694C26.9671 21.7294 28.8571 20.5994 30.6871 18.6794C29.9971 22.1094 28.9671 24.3694 24.7471 22.8694Z" fill="#DEDEDE"/>
<path d="M37.1269 36.4995C35.7569 36.5995 34.1969 37.6095 33.1369 36.0595C32.9369 35.7595 33.1869 34.7195 33.2869 34.7095C34.8169 34.5895 35.7969 35.8395 37.1269 36.4995Z" fill="#E7E7E7"/>
<path d="M48.7468 34.3997C48.6968 34.9997 48.6468 35.5996 48.5968 36.1896C47.4168 37.2096 46.0668 36.7797 43.9668 36.6497C45.8768 35.5197 47.0268 34.4496 48.7468 34.3896V34.3997Z" fill="white"/>
<path d="M52.417 50.2396C52.477 49.4396 52.537 48.6296 52.597 47.8296C53.867 48.4796 55.147 49.1396 57.277 50.2396H52.417Z" fill="#DCB273"/>
<path d="M67.5666 47.8196C67.6266 48.6196 67.6866 49.4296 67.7466 50.2296C66.4166 50.2296 65.0866 50.2296 63.0366 50.2296C64.9166 49.2296 66.2366 48.5196 67.5566 47.8196H67.5666Z" fill="#DCB273"/>
</svg>
