<svg width="164" height="75" viewBox="0 0 164 75" fill="none" xmlns="http://www.w3.org/2000/svg">
<rect width="164" height="75" fill="white"/>
<path d="M34.4551 52.5929H39.5572L43.5563 37.7378H38.4542L34.4551 52.5929Z" fill="#005B75"/>
<path d="M60.6172 52.5929H65.7193L69.7184 37.7378H64.6163L60.6172 52.5929Z" fill="#005B75"/>
<path d="M86.7754 52.5929H91.8775L95.8796 37.7378H90.7775L86.7754 52.5929Z" fill="#005B75"/>
<path d="M55.881 42.7986H60.9832C61.6762 39.4513 59.5145 37.7378 54.4949 37.7378C48.6997 37.7378 44.7802 40.5543 43.4737 45.4913C42.2911 49.9387 44.6563 52.6342 50.0858 52.6342C55.595 52.6342 58.8214 50.9207 60.2075 47.0838H55.1054C54.4123 48.756 53.0645 49.6555 51.2272 49.6555C48.7793 49.6555 47.8002 48.1043 48.5346 45.2465C49.3102 42.3091 51.1888 40.6752 53.678 40.6752C55.2705 40.7165 56.0049 41.4125 55.881 42.7986Z" fill="#005B75"/>
<path d="M82.0431 42.7986H87.1453C87.8383 39.4513 85.6766 37.7378 80.657 37.7378C74.8618 37.7378 70.9423 40.5543 69.6358 45.4913C68.4532 49.9387 70.8185 52.6342 76.248 52.6342C81.7571 52.6342 84.9835 50.9207 86.3696 47.0838H81.2675C80.5744 48.756 79.2267 49.6555 77.3893 49.6555C74.9415 49.6555 73.9623 48.1043 74.6967 45.2465C75.4723 42.3091 77.351 40.6752 79.8401 40.6752C81.4327 40.7165 82.167 41.4125 82.0431 42.7986Z" fill="#005B75"/>
<path d="M14.7836 29.4536C21.5992 22.7205 29.8452 20.9628 33.1512 25.5754C36.4573 30.1879 33.5582 39.4514 26.7426 46.2286C19.927 52.9617 11.681 54.7194 8.37495 50.1069C5.06889 45.4913 7.92667 36.2279 14.7836 29.4536Z" fill="#F99D27"/>
<path d="M19.2719 25.8613C18.5375 26.4334 17.7619 27.0439 17.0275 27.7783C11.0289 33.6561 8.57806 41.7369 11.5184 45.7773C14.5384 49.8177 21.9262 48.349 28.0074 42.3887C31.2722 39.2065 33.4753 35.4905 34.4161 32.0635C34.7021 29.5331 34.3335 27.2887 33.1921 25.5752C30.4966 21.9831 24.9049 22.2692 19.2719 25.8613Z" fill="#B02A30"/>
<path d="M27.4741 25.658C28.2497 26.4336 27.8015 28.1884 26.4124 29.5775C25.0233 30.9253 23.2685 31.4148 22.4929 30.6392C21.676 29.8635 22.1655 28.1088 23.5133 26.7197C24.9437 25.2893 26.6985 24.8823 27.4741 25.658ZM22.658 49.5318C19.4759 51.9384 16.1698 53.1239 12.9434 52.6344C14.2911 52.7169 15.3912 51.207 16.2907 49.2074C17.1873 47.1665 17.7594 45.2496 18.1694 43.4535C18.8211 40.637 18.8624 38.5961 18.538 38.1479C18.0071 37.4135 16.7419 37.617 15.3558 38.4339C14.704 38.8026 13.8045 38.5578 14.8662 37.2926C15.928 35.9861 20.1719 32.8835 21.7231 32.394C23.3953 31.9044 25.3153 32.5562 24.6606 34.3935C24.168 35.7384 18.2932 51.1657 22.658 49.5318Z" fill="white"/>
<path d="M99.6777 52.6345H107.31C109.472 52.6345 111.106 52.4723 112.657 51.4105C113.678 50.7175 114.453 49.6145 114.781 48.4731C115.311 46.4323 114.374 45.0461 112.047 44.7188C114.25 44.3118 115.639 43.1675 116.128 41.3714C116.497 40.0236 116.211 39.0445 115.232 38.3927C114.415 37.8619 113.108 37.7793 111.312 37.7793H103.721L99.6777 52.6345ZM106.29 40.0236H109.472C111.84 40.0236 112.94 40.3097 112.575 41.8197C112.168 43.2884 110.902 43.6984 108.41 43.6984H105.308L106.29 40.0236ZM103.553 50.2692L104.736 45.9427H108.083C110.655 45.9427 111.796 46.391 111.306 48.1458C110.858 49.7796 109.634 50.2692 107.307 50.2692H103.553Z" fill="#005B75"/>
<path d="M123.184 52.6345H126.245C126.328 51.9414 126.49 51.1658 126.735 50.3076L127.838 46.1433C128.572 43.4094 127.225 41.979 123.756 41.979C120.409 41.979 118.247 43.1203 117.593 45.0816H120.53C120.899 44.1024 121.754 43.6542 123.184 43.6542C124.777 43.6542 125.308 44.3472 124.898 45.8572L124.856 46.0607H123.223C118.651 46.0607 116.203 46.8776 115.507 49.529C114.977 51.5698 116.242 52.8763 118.976 52.8763C120.73 52.8763 122.282 52.3042 123.506 51.2041L123.184 52.6345ZM124.367 47.8184L124.326 48.0219C123.795 49.9389 122.243 51.0832 120.368 51.0832C118.979 51.0832 118.409 50.5523 118.654 49.5732C119.023 48.2254 120.206 47.8184 122.45 47.8184H124.367Z" fill="#005B75"/>
<path d="M128.896 52.6344H131.999L133.426 47.3288C133.957 45.4118 135.712 44.064 137.549 44.064C139.346 44.064 139.997 45.1257 139.428 47.2462L137.959 52.6757H140.979L142.693 46.3084C143.427 43.6157 142.041 42.0645 139.059 42.0645C137.101 42.0645 135.509 42.7162 134.202 44.1466L134.571 42.3092H131.509C131.182 43.9431 130.979 44.9635 130.896 45.3292L128.896 52.6344Z" fill="#005B75"/>
<path d="M143.715 52.6342H146.694L148.204 47.0425L152.244 52.6342H156.367L151.796 46.7181L158.001 42.2678H154.123L148.369 46.4321L150.693 37.7378H147.714L143.715 52.6342Z" fill="#005B75"/>
</svg>
