<?xml version="1.0" encoding="utf-8"?>
<!-- Generator: Adobe Illustrator 23.0.1, SVG Export Plug-In . SVG Version: 6.00 Build 0)  -->
<svg version="1.1" id="Layer_1" xmlns="http://www.w3.org/2000/svg" xmlns:xlink="http://www.w3.org/1999/xlink" x="0px" y="0px"
	 viewBox="0 0 43.8 43.5" style="enable-background:new 0 0 43.8 43.5;" xml:space="preserve">
<style type="text/css">
	.st0{fill-rule:evenodd;clip-rule:evenodd;}
	.st1{fill-rule:evenodd;clip-rule:evenodd;fill:#FFCC00;}
</style>
<g>
	<path class="st0" d="M23.7,20h14.1L23.7,6V20z M20.1,3.5H6l14.1,14V3.5z M1.8,0h20.1c0.3,0,0.6,0.1,0.9,0.2l0,0l0,0l0,0l0,0l0,0
		l0,0l0,0c0.1,0.1,0.2,0.1,0.3,0.2l20.1,20l0,0l0,0l0,0l0,0l0,0l0,0c0,0,0,0.1,0.1,0.1l0,0l0,0l0,0l0,0l0,0l0,0l0,0l0,0l0,0l0,0l0,0
		l0,0l0,0l0,0l0,0l0,0l0,0l0,0l0,0l0,0l0,0l0,0l0,0l0,0l0,0l0,0l0,0l0,0l0,0l0,0l0,0l0,0l0,0l0,0l0,0c0,0,0,0,0,0.1l0,0l0,0l0,0l0,0
		l0,0l0,0v0l0,0l0,0l0,0v0l0,0l0,0l0,0l0,0l0,0l0,0v0l0,0v0l0,0l0,0v0l0,0l0,0v0v0l0,0v0l0,0v0v0l0,0l0,0v0v0l0,0v0v0l0,0v0v0l0,0
		l0,0v0v0l0,0v0l0,0v0v0l0,0l0,0v0l0,0l0,0v0l0,0v0l0,0l0,0l0,0l0,0l0,0l0,0v0l0,0l0,0l0,0v0l0,0l0,0l0,0l0,0l0,0l0,0c0,0,0,0,0,0.1
		l0,0l0,0l0,0l0,0l0,0l0,0l0,0l0,0l0,0l0,0l0,0l0,0l0,0l0,0l0,0l0,0l0,0l0,0l0,0l0,0l0,0l0,0l0,0l0,0l0,0l0,0l0,0l0,0l0,0l0,0l0,0
		l0,0l0,0l0,0l0,0c0,0,0,0.1-0.1,0.1l0,0l0,0l0,0l0,0l0,0L23.2,43c-0.7,0.7-1.8,0.7-2.5,0c-0.3-0.3-0.5-0.8-0.5-1.2V22.5L0.5,3
		C0.2,2.7,0,2.2,0,1.8C0,0.8,0.8,0,1.8,0z M37.8,23.5H23.7v14C23.7,37.5,37.8,23.5,37.8,23.5z"/>
	<path class="st1" d="M20.1,17.5L6,3.5h14.1V17.5z"/>
</g>
</svg>
