<svg width="164" height="75" viewBox="0 0 164 75" fill="none" xmlns="http://www.w3.org/2000/svg">
<rect width="164" height="75" fill="white"/>
<path d="M117.126 30.5653C117.595 32.574 119.428 33.7793 121.238 33.2269C123.026 32.6996 124.099 30.6406 123.607 28.6068C123.138 26.598 121.305 25.3928 119.495 25.9452C117.729 26.4976 116.657 28.5566 117.126 30.5653Z" fill="#2A4C87"/>
<path d="M112.635 34.119C113.965 33.7487 114.778 32.3664 114.409 31.0335C114.039 29.7006 112.659 28.886 111.328 29.2563C109.998 29.6265 109.185 31.0088 109.554 32.3417C109.899 33.6747 111.279 34.4646 112.635 34.119Z" fill="#2A4C87"/>
<path d="M105.707 34.9793C106.6 34.7338 107.135 33.8187 106.89 32.9259C106.644 32.0331 105.729 31.4975 104.836 31.743C103.944 31.9885 103.408 32.9036 103.653 33.7964C103.899 34.6891 104.814 35.2248 105.707 34.9793Z" fill="#2A4C87"/>
<path d="M100.452 35.8545C100.895 35.7304 101.161 35.2694 101.055 34.8262C100.948 34.383 100.47 34.1171 100.027 34.2235C99.5833 34.3476 99.3174 34.8085 99.4238 35.2517C99.5302 35.6949 99.9911 35.9608 100.452 35.8545Z" fill="#2E4E88"/>
<path d="M114.896 23.5001C115.714 24.8995 117.501 25.3947 118.9 24.5766C120.3 23.7585 120.795 21.9715 119.977 20.5721C119.158 19.1726 117.372 18.6774 115.972 19.4956C114.573 20.3137 114.077 22.1007 114.896 23.5001Z" fill="#1F3D70"/>
<path d="M108.064 27.2769C108.638 28.2902 109.917 28.6206 110.931 28.0479C111.946 27.4751 112.277 26.1975 111.703 25.1842C111.13 24.1709 109.851 23.8404 108.836 24.4132C107.844 24.9859 107.491 26.2636 108.064 27.2769Z" fill="#1F3D70"/>
<path d="M102.761 28.5409C101.95 29.01 101.68 30.0221 102.146 30.8367C102.613 31.6513 103.62 31.9228 104.431 31.4538C105.242 30.9848 105.512 29.9727 105.045 29.1581C104.603 28.3681 103.571 28.0966 102.761 28.5409Z" fill="#1F3D70"/>
<path d="M98.3695 31.79C97.7704 32.0182 97.5422 32.5317 97.8845 32.9312C98.2269 33.3306 98.9972 33.4827 99.5963 33.2545C100.195 33.0263 100.424 32.5127 100.081 32.1133C99.739 31.7139 98.9687 31.5617 98.3695 31.79Z" fill="#1F3D70"/>
<path d="M114.474 17.3983C115.625 16.2478 115.625 14.4022 114.474 13.2518C113.324 12.1013 111.478 12.1013 110.328 13.2518C109.177 14.4022 109.177 16.2478 110.328 17.3983C111.454 18.5488 113.324 18.5488 114.474 17.3983Z" fill="#194C88"/>
<path d="M107.293 20.4351C106.631 19.7734 105.573 19.7734 104.93 20.4351C104.268 21.0967 104.268 22.1554 104.93 22.7982C105.591 23.4598 106.65 23.4598 107.293 22.7982C107.955 22.1365 107.955 21.0778 107.293 20.4351Z" fill="#194C88"/>
<path d="M99.8914 25.4604C99.2367 26.1158 99.2367 27.1808 99.8914 27.8362C100.546 28.4916 101.61 28.4916 102.265 27.8362C102.92 27.1808 102.92 26.1158 102.265 25.4877C101.61 24.805 100.546 24.805 99.8914 25.4604Z" fill="#194C88"/>
<path d="M96.4132 31.3151C96.9043 31.8062 97.7022 31.8062 98.1933 31.3151C98.6844 30.8241 98.6844 30.0261 98.1933 29.535C97.7022 29.044 96.9043 29.044 96.4132 29.535C95.9222 30.0261 95.9222 30.8241 96.4132 31.3151Z" fill="#194C88"/>
<path d="M104.231 12.8325C105.624 13.6456 107.423 13.1628 108.234 11.7654C109.045 10.3679 108.563 8.56394 107.17 7.75088C105.776 6.93781 103.978 7.42057 103.167 8.81802C102.331 10.2155 102.812 12.0195 104.231 12.8325Z" fill="#3468A3"/>
<path d="M99.6842 16.7944C99.0968 17.7905 99.4544 19.0676 100.45 19.655C101.447 20.2424 102.724 19.8848 103.311 18.8888C103.898 17.8927 103.541 16.6157 102.545 16.0282C101.523 15.4408 100.246 15.7984 99.6842 16.7944Z" fill="#3468A3"/>
<path d="M98.7673 22.6238C98.1643 22.276 97.3991 22.4847 97.0512 23.0876C96.7033 23.6906 96.9121 24.4559 97.515 24.8037C98.118 25.1516 98.8832 24.9429 99.2311 24.3399C99.579 23.737 99.3702 22.9717 98.7673 22.6238Z" fill="#3468A3"/>
<path d="M95.62 27.5971C95.2154 27.3723 94.6983 27.5071 94.4735 27.9118C94.2487 28.3164 94.3836 28.8335 94.7882 29.0583C95.1929 29.2831 95.7099 29.1482 95.9347 28.7435C96.1595 28.3389 96.0246 27.8219 95.62 27.5971Z" fill="#3468A3"/>
<path d="M97.0765 9.78249C98.4171 10.1529 99.804 9.34263 100.151 7.99992C100.52 6.6572 99.7115 5.26818 98.3709 4.92092C97.0303 4.57367 95.6434 5.36078 95.2967 6.7035C94.9269 8.04622 95.7359 9.43524 97.0765 9.78249Z" fill="#4C8DCB"/>
<path d="M95.603 17.3626C96.4978 17.6081 97.415 17.0724 97.661 16.1797C97.9071 15.2869 97.3702 14.3718 96.4754 14.1263C95.5806 13.8808 94.6635 14.4164 94.4174 15.3092C94.1937 16.202 94.7082 17.1171 95.603 17.3626Z" fill="#4C8DCB"/>
<path d="M93.6248 23.2673C94.2956 23.3832 94.9914 23.1182 95.1653 22.6709C95.3392 22.2237 94.9417 21.7599 94.2708 21.6439C93.5999 21.528 92.9042 21.793 92.7303 22.2402C92.5563 22.6709 92.9539 23.1347 93.6248 23.2673Z" fill="#4C8DCB"/>
<path d="M91.8812 27.2682C91.7586 27.7096 92.0283 28.1755 92.4697 28.2982C92.9112 28.4208 93.3771 28.151 93.4997 27.7096C93.6223 27.2682 93.3526 26.8023 92.9112 26.6797C92.4452 26.5571 91.9793 26.8268 91.8812 27.2682Z" fill="#4C8DCB"/>
<path d="M89.7535 8.19444C90.9049 8.19444 91.8507 7.24864 91.8507 6.09722C91.8507 4.94581 90.9049 4 89.7535 4C88.6021 4 87.6562 4.94581 87.6562 6.09722C87.6562 7.2692 88.6021 8.19444 89.7535 8.19444Z" fill="#3498B3"/>
<path d="M90.1719 13.2278C89.2343 13.2278 88.4941 13.968 88.4941 14.9056C88.4941 15.8431 89.2343 16.5833 90.1719 16.5833C91.1095 16.5833 91.8497 15.8431 91.8497 14.9056C91.8497 13.9927 91.1095 13.2278 90.1719 13.2278Z" fill="#3498B3"/>
<path d="M91.0108 22.036C91.0108 21.3544 90.4603 20.7777 89.7525 20.7777C89.0447 20.7777 88.4941 21.3282 88.4941 22.036C88.4941 22.7439 89.0447 23.2944 89.7525 23.2944C90.4603 23.2944 91.0108 22.7176 91.0108 22.036Z" fill="#3498B3"/>
<path d="M89.7534 26.65C89.5234 26.65 89.334 27.0289 89.334 27.4889C89.334 27.9489 89.5234 28.3278 89.7534 28.3278C89.9834 28.3278 90.1729 27.9489 90.1729 27.4889C90.1729 27.0289 89.9834 26.65 89.7534 26.65Z" fill="#3498B3"/>
<path d="M81.9142 8.96666C83.0348 8.65836 83.6941 7.51325 83.3864 6.39017C83.0788 5.26708 81.9361 4.60644 80.8154 4.91474C79.6948 5.22304 79.0355 6.36814 79.3432 7.49123C79.6508 8.59229 80.8154 9.25293 81.9142 8.96666Z" fill="#0AA496"/>
<path d="M82.6656 16.1828C82.8506 17.0871 83.5292 17.6077 84.2077 17.3611C84.8863 17.1145 85.2769 16.2102 85.0919 15.306C84.9068 14.4018 84.2283 13.8812 83.5497 14.1278C82.8918 14.3744 82.4805 15.306 82.6656 16.1828Z" fill="#0AA496"/>
<path d="M85.1663 22.6733C85.2804 23.1278 85.7556 23.3929 86.1928 23.2603C86.6491 23.1467 86.9152 22.6733 86.7821 22.2378C86.6681 21.7834 86.1928 21.5183 85.7556 21.6509C85.2994 21.7645 85.0523 22.2189 85.1663 22.6733C85.1663 22.6544 85.1663 22.6544 85.1663 22.6733Z" fill="#0AA496"/>
<path d="M86.8332 27.7062C86.8954 28.1718 87.1285 28.4202 87.346 28.296C87.5792 28.1718 87.7035 27.7062 87.6413 27.2716C87.5792 26.806 87.346 26.5577 87.1285 26.6818C86.9109 26.806 86.771 27.2406 86.8332 27.7062Z" fill="#0AA496"/>
<path d="M74.8553 12.1126C75.8511 11.5442 76.2068 10.2418 75.6377 9.24717C75.0687 8.25257 73.7646 7.89736 72.7688 8.4657C71.773 9.03404 71.4174 10.3365 71.9864 11.3311C72.5792 12.3494 73.8595 12.6809 74.8553 12.1126Z" fill="#00AA75"/>
<path d="M78.8442 18.9317C79.2462 18.5838 79.3853 17.8185 79.1534 17.2156C78.9215 16.6126 78.4113 16.4039 78.0094 16.7518C77.6074 17.0996 77.4682 17.8649 77.7001 18.4678C77.9166 19.0708 78.4422 19.2795 78.8442 18.9317Z" fill="#00AA75"/>
<path d="M82.2042 24.8648C82.614 24.6389 82.7369 24.1253 82.5115 23.7144C82.2862 23.3036 81.774 23.1803 81.3642 23.4063C80.9544 23.6323 80.8315 24.1458 81.0569 24.5567C81.3027 24.947 81.8149 25.0908 82.2042 24.8648Z" fill="#00AA75"/>
<path d="M85.0803 28.5356C84.9585 28.3416 84.7148 28.2711 84.5059 28.3769C84.3145 28.5003 84.2449 28.7472 84.3493 28.9588C84.4711 29.1528 84.7148 29.2233 84.9063 29.1175C85.1326 28.9941 85.2022 28.7296 85.0803 28.5356Z" fill="#00AA75"/>
<path d="M68.7082 16.8084C69.363 15.99 69.363 14.66 68.7082 13.8416C68.0535 13.0232 66.9895 13.0232 66.3348 13.8416C65.6801 14.66 65.6801 15.99 66.3348 16.8084C67.01 17.6268 68.074 17.6268 68.7082 16.8084Z" fill="#4FBA6A"/>
<path d="M74.7128 21.0281C74.2081 20.6943 73.4113 20.6943 72.9332 21.0281C72.4285 21.3619 72.4285 21.8889 72.9332 22.2051C73.4378 22.5389 74.2347 22.5389 74.7128 22.2051C75.1909 21.8713 75.1909 21.3443 74.7128 21.0281Z" fill="#4FBA6A"/>
<path d="M79.03 26.061C78.6933 25.7277 78.1771 25.7277 77.8404 26.061C77.5037 26.3944 77.5037 26.9055 77.8404 27.2388C78.1771 27.5721 78.6933 27.5721 79.03 27.2388C79.3442 26.9055 79.3442 26.3944 79.03 26.061Z" fill="#4FBA6A"/>
<path d="M82.4924 30.122C82.3231 29.9533 82.0481 29.9743 81.9 30.1431C81.7308 30.3118 81.752 30.586 81.9212 30.7337C82.0904 30.8813 82.3443 30.8813 82.5135 30.7337C82.6616 30.5649 82.6616 30.2907 82.4924 30.122Z" fill="#4FBA6A"/>
<path d="M61.6507 23.067C62.4591 23.5392 63.4919 23.2469 63.941 22.4599C64.4125 21.6503 64.1206 20.616 63.3347 20.1663C62.5264 19.6941 61.4936 19.9864 61.0445 20.7734C60.573 21.5604 60.8424 22.5948 61.6507 23.067Z" fill="#7EC45F"/>
<path d="M70.4604 25.9184C70.0484 25.6924 69.5541 25.8362 69.3069 26.2266C69.0803 26.6374 69.2245 27.1305 69.6159 27.377C70.0278 27.6029 70.5222 27.4797 70.7693 27.0688C70.9959 26.658 70.8517 26.1444 70.4604 25.9184Z" fill="#7EC45F"/>
<path d="M76.3213 29.2757C75.9242 29.0532 75.4031 29.1768 75.1797 29.5972C74.9564 29.9928 75.0804 30.5121 75.5023 30.7346C75.8994 30.9572 76.4206 30.8335 76.6439 30.4379C76.8673 30.0423 76.7184 29.523 76.3213 29.2757Z" fill="#7EC45F"/>
<path d="M121.63 34.2001C119.559 34.2001 117.855 35.8804 117.855 37.9751C117.855 40.0467 119.536 41.7501 121.63 41.7501C123.702 41.7501 125.382 40.0697 125.405 37.9981C125.382 35.9034 123.702 34.2001 121.63 34.2001Z" fill="#4C609B"/>
<path d="M115.34 37.5556C115.34 36.1575 114.221 35.0389 112.823 35.0389C111.425 35.0389 110.307 36.1575 110.307 37.5556C110.307 38.9538 111.425 40.0723 112.823 40.0723C114.2 40.0723 115.34 38.9538 115.34 37.5556Z" fill="#4C609B"/>
<path d="M105.691 35.8778C104.538 35.8778 103.594 36.6328 103.594 37.5556C103.594 38.4784 104.538 39.2334 105.691 39.2334C106.844 39.2334 107.788 38.4784 107.788 37.5556C107.788 36.6328 106.844 35.8778 105.691 35.8778Z" fill="#4C609B"/>
<path d="M101.917 37.975C101.917 37.2732 101.36 36.7167 100.659 36.7167C99.957 36.7167 99.4004 37.2732 99.4004 37.975C99.4004 38.6768 99.957 39.2333 100.659 39.2333C101.36 39.2333 101.917 38.6768 101.917 37.975Z" fill="#54669F"/>
<path d="M121.247 42.7083C119.459 42.2172 117.627 43.2886 117.135 45.0741C116.643 46.8596 117.716 48.6898 119.504 49.1808C121.292 49.6719 123.125 48.6005 123.616 46.815C123.616 46.815 123.616 46.815 123.616 46.7927C124.086 45.0295 123.013 43.1993 121.247 42.7083Z" fill="#746FA7"/>
<path d="M111.33 45.87C112.66 46.178 114.039 45.5003 114.409 44.3914C114.778 43.2825 113.965 42.1325 112.635 41.8245C111.305 41.5164 109.925 42.1941 109.556 43.303C109.186 44.412 109.975 45.5619 111.33 45.87Z" fill="#746FA7"/>
<path d="M104.832 43.3682C105.726 43.6137 106.643 43.078 106.89 42.1853C107.136 41.2925 106.599 40.3774 105.704 40.1319C104.809 39.8864 103.892 40.422 103.646 41.3148C103.422 42.2076 103.937 43.1227 104.832 43.3682Z" fill="#746FA7"/>
<path d="M99.5044 41.7048C100.164 41.8894 100.849 41.4938 101.034 40.8082C101.218 40.1489 100.823 39.4633 100.137 39.2787C99.478 39.0941 98.7924 39.4897 98.6078 40.1753C98.4232 40.8082 98.8188 41.5202 99.5044 41.7048C99.5044 41.6784 99.5044 41.6784 99.5044 41.7048Z" fill="#746FA7"/>
<path d="M118.907 50.5909C117.506 49.6559 115.716 50.2218 114.896 51.8212C114.077 53.4205 114.573 55.4628 115.974 56.3978C117.376 57.3328 119.166 56.7669 119.986 55.1675C120.783 53.5682 120.309 51.5259 118.907 50.5909Z" fill="#99558E"/>
<path d="M111.704 50.5599C112.276 49.3426 111.946 47.8076 110.933 47.1195C109.919 46.4315 108.642 46.8284 108.069 48.0458C107.496 49.2632 107.827 50.7981 108.84 51.4862C109.831 52.1743 111.109 51.7508 111.704 50.5599Z" fill="#99558E"/>
<path d="M105.045 46.792C105.512 45.9774 105.242 44.9652 104.431 44.4962C103.62 44.0272 102.613 44.2987 102.146 45.1134C101.68 45.928 101.95 46.9401 102.761 47.4091C103.571 47.8535 104.578 47.5819 105.045 46.792Z" fill="#99558E"/>
<path d="M100.076 43.6467C100.415 43.0509 100.217 42.2849 99.6244 41.916C99.0316 41.5756 98.2694 41.7742 97.9024 42.37C97.5354 42.9658 97.7612 43.7318 98.354 44.1006C98.354 44.1006 98.354 44.1006 98.3823 44.1006C98.9751 44.4411 99.7373 44.2425 100.076 43.6467Z" fill="#99558E"/>
<path d="M110.328 58.4153C109.177 59.4044 109.177 60.9912 110.328 61.9803C111.478 62.9695 113.324 62.9695 114.474 61.9803C115.625 60.9912 115.625 59.4044 114.474 58.4153C113.348 57.4467 111.478 57.4467 110.328 58.4153Z" fill="#AF3379"/>
<path d="M107.293 55.3908C107.955 54.5637 107.955 53.2404 107.293 52.437C106.631 51.6099 105.573 51.6099 104.93 52.437C104.268 53.264 104.268 54.5873 104.93 55.3908C105.573 56.2179 106.631 56.2179 107.293 55.3908Z" fill="#AF3379"/>
<path d="M102.265 49.7727C102.92 49.2812 102.92 48.4824 102.265 47.9909C101.61 47.4993 100.546 47.4993 99.8914 47.9909C99.2367 48.4824 99.2367 49.2812 99.8914 49.7522C100.546 50.2643 101.61 50.2643 102.265 49.7727Z" fill="#AF3379"/>
<path d="M96.4132 45.699C96.9043 46.0263 97.7022 46.0263 98.1933 45.699C98.6844 45.3716 98.6844 44.8396 98.1933 44.5123C97.7022 44.1849 96.9043 44.1849 96.4132 44.5123C95.9222 44.8396 95.9222 45.3716 96.4132 45.699Z" fill="#AF3379"/>
<path d="M104.218 63.061C102.821 63.7579 102.338 65.3042 103.151 66.502C103.964 67.6998 105.768 68.1136 107.166 67.4167C108.563 66.7198 109.046 65.1735 108.233 63.9757C107.42 62.7779 105.616 62.3641 104.218 63.061Z" fill="#BE266A"/>
<path d="M103.311 56.8512C102.724 56.0543 101.472 55.7682 100.45 56.2382C99.4544 56.7081 99.0968 57.7093 99.6842 58.5266C100.272 59.3235 101.523 59.6095 102.545 59.1396C103.541 58.6696 103.898 57.648 103.311 56.8512Z" fill="#BE266A"/>
<path d="M98.7673 52.4871C99.3702 52.1392 99.579 51.3739 99.2311 50.771C98.8832 50.168 98.118 49.9593 97.515 50.3072C96.9121 50.655 96.7033 51.4203 97.0512 52.0233C97.3991 52.6262 98.1643 52.8349 98.7673 52.4871Z" fill="#BE266A"/>
<path d="M94.7882 46.0528C94.3836 46.2775 94.2487 46.7946 94.4735 47.1992C94.6983 47.6039 95.2154 47.7387 95.62 47.5139C96.0246 47.2891 96.1595 46.7721 95.9347 46.3675C95.7099 45.9628 95.1929 45.828 94.7882 46.0528Z" fill="#BE266A"/>
<path d="M97.0765 66.1675C95.7359 66.5373 94.9269 67.901 95.2967 69.2416C95.6665 70.5822 97.0303 71.3912 98.3709 71.0214C99.7115 70.6516 100.52 69.2878 100.151 67.9472C99.804 66.6066 98.4171 65.7976 97.0765 66.1675Z" fill="#D4525C"/>
<path d="M96.4754 61.8222C97.3702 61.5768 97.9071 60.6622 97.661 59.7698C97.415 58.8775 96.4978 58.342 95.603 58.5874C94.7082 58.8328 94.1937 59.7475 94.4174 60.6399C94.6635 61.5545 95.5806 62.0676 96.4754 61.8222C96.4754 61.8445 96.4754 61.8445 96.4754 61.8222Z" fill="#D4525C"/>
<path d="M95.1552 52.752C94.9819 52.0811 94.2891 51.6835 93.6209 51.8575C92.9528 52.0314 92.5569 52.7271 92.7301 53.398C92.9033 54.0689 93.5962 54.4664 94.2643 54.2925C94.9572 54.1434 95.3531 53.4477 95.1552 52.752C95.1552 52.7768 95.1552 52.7768 95.1552 52.752Z" fill="#D4525C"/>
<path d="M93.4997 47.4015C93.3771 46.9601 92.9112 46.6904 92.4697 46.813C92.0283 46.9356 91.7586 47.4015 91.8812 47.8429C92.0038 48.2843 92.4452 48.5541 92.9112 48.4315C93.3526 48.3088 93.6223 47.8429 93.4997 47.4015Z" fill="#D4525C"/>
<path d="M89.7535 66.9167C88.6021 66.9167 87.6562 68.0517 87.6562 69.4334C87.6562 70.8151 88.6021 71.9501 89.7535 71.9501C90.9049 71.9501 91.8507 70.8398 91.8507 69.4334C91.8507 68.0517 90.9254 66.9167 89.7535 66.9167Z" fill="#E0654F"/>
<path d="M88.4941 60.625C88.4941 61.3282 89.2343 61.8834 90.1719 61.8834C91.1095 61.8834 91.8497 61.3282 91.8497 60.625C91.8497 59.9218 91.1095 59.3667 90.1719 59.3667C89.259 59.3667 88.4941 59.9218 88.4941 60.625Z" fill="#E0654F"/>
<path d="M89.7525 55.1527C90.4341 55.1527 91.0108 54.6064 91.0108 53.9041C91.0108 53.2018 90.4603 52.6555 89.7525 52.6555C89.0709 52.6555 88.4941 53.2018 88.4941 53.9041C88.5204 54.6064 89.0709 55.1527 89.7525 55.1527C89.7525 55.1787 89.7525 55.1787 89.7525 55.1527Z" fill="#E0654F"/>
<path d="M89.7534 47.6222C89.5234 47.6222 89.334 48.001 89.334 48.4611C89.334 48.9211 89.5234 49.3 89.7534 49.3C89.9834 49.3 90.1729 48.9211 90.1729 48.4611C90.1729 48.001 89.9834 47.6222 89.7534 47.6222Z" fill="#E0654F"/>
<path d="M81.9136 66.1519C80.7925 65.844 79.6494 66.5257 79.3417 67.6252C79.0339 68.7467 79.7154 69.8902 80.8145 70.1981C81.9356 70.5059 83.0787 69.8242 83.3864 68.7247C83.6942 67.6032 83.0347 66.4598 81.9136 66.1519Z" fill="#F57F2A"/>
<path d="M84.2077 58.5723C83.5292 58.3872 82.8506 58.7986 82.6656 59.457C82.4805 60.1359 82.8918 60.8148 83.5497 61C84.2283 61.1852 84.9068 60.7737 85.0919 60.1153C85.2769 59.457 84.8863 58.7575 84.2077 58.5723Z" fill="#F57F2A"/>
<path d="M86.1924 51.8565C85.7358 51.6845 85.2792 52.0859 85.1651 52.7453C85.051 53.4334 85.3173 54.1215 85.7548 54.2935C86.2114 54.4655 86.668 54.0641 86.7821 53.4047C86.9153 52.7453 86.649 52.0572 86.1924 51.8565Z" fill="#F57F2A"/>
<path d="M87.6423 48.148C87.7049 47.9134 87.564 47.6789 87.3448 47.632C87.1256 47.5851 86.8751 47.7102 86.8282 47.9291C86.7812 48.148 86.9065 48.3982 87.1256 48.4451C87.3448 48.5076 87.5797 48.3825 87.6423 48.148Z" fill="#F57F2A"/>
<path d="M74.8622 63.7838C73.8661 63.3273 72.5854 63.5936 71.9924 64.3925C71.4232 65.1914 71.7553 66.2185 72.7514 66.6941C73.7475 67.1506 75.0282 66.8843 75.6211 66.0854C76.2141 65.2865 75.8583 64.2593 74.8622 63.7838Z" fill="#F89828"/>
<path d="M78.8442 56.1795C78.4422 55.8316 77.9321 56.0404 77.7001 56.6433C77.4682 57.2463 77.6074 58.0115 78.0094 58.3594C78.4113 58.7072 78.9215 58.4985 79.1534 57.8956C79.3853 57.2926 79.2462 56.5273 78.8442 56.1795Z" fill="#F89828"/>
<path d="M81.3642 52.544C81.774 52.7694 82.2862 52.6465 82.5115 52.2367C82.7369 51.8269 82.614 51.3147 82.2042 51.0893C81.7944 50.864 81.2822 50.9869 81.0569 51.3967C80.8315 51.8064 80.9544 52.3186 81.3642 52.544Z" fill="#F89828"/>
<path d="M84.9303 46.0651C84.7349 45.8199 84.4685 45.96 84.362 46.3804C84.2376 46.7658 84.3087 47.2914 84.5218 47.5016C84.7172 47.7468 84.9836 47.6067 85.0902 47.1862C85.1967 46.8359 85.1257 46.3104 84.9303 46.0651C84.9303 46.1002 84.9303 46.1002 84.9303 46.0651Z" fill="#F89828"/>
<path d="M66.3348 59.0189C65.6801 59.6736 65.6801 60.7376 66.3348 61.3923C66.9895 62.0471 68.0535 62.0471 68.7082 61.3923C69.363 60.7376 69.363 59.6736 68.7082 59.0189C68.0535 58.3641 66.9895 58.3641 66.3348 59.0189Z" fill="#FEC127"/>
<path d="M72.9317 53.031C72.429 53.5317 72.429 54.3223 72.9317 54.7967C73.4343 55.2974 74.228 55.2974 74.7042 54.7967C75.1804 54.296 75.2069 53.5054 74.7042 53.031C74.228 52.5303 73.4079 52.5303 72.9317 53.031Z" fill="#FEC127"/>
<path d="M77.8379 48.7111C77.5046 49.0444 77.5046 49.5555 77.8379 49.8888C78.1712 50.2222 78.6823 50.2222 79.0157 49.8888C79.349 49.5555 79.349 49.0444 79.0157 48.7111C78.6823 48.3777 78.149 48.3777 77.8379 48.7111Z" fill="#FEC127"/>
<path d="M82.4924 44.4997C82.3231 44.1623 82.0481 44.2044 81.9 44.5419C81.7308 44.8794 81.752 45.4278 81.9212 45.723C82.0904 46.0183 82.3443 46.0183 82.5135 45.723C82.6616 45.3856 82.6616 44.8372 82.4924 44.4997Z" fill="#FEC127"/>
<path d="M61.6495 52.0483C60.8424 52.5192 60.5734 53.5281 61.0442 54.3352C61.515 55.1423 62.5239 55.4114 63.331 54.9405C64.1382 54.4697 64.4072 53.4608 63.9364 52.6537C63.488 51.8465 62.4566 51.5775 61.6495 52.0483Z" fill="#FED627"/>
<path d="M69.6159 48.5687C69.2245 48.7953 69.0803 49.3102 69.3069 49.7222C69.5335 50.1136 70.0484 50.2577 70.4604 50.0312C70.8517 49.8046 70.9959 49.2897 70.7693 48.8777C70.5428 48.4863 70.0278 48.3422 69.6159 48.5687Z" fill="#FED627"/>
<path d="M75.4884 45.2266C75.0923 45.4494 74.9438 45.9692 75.1913 46.3653C75.4141 46.7614 75.934 46.9099 76.33 46.6623C76.7261 46.4396 76.8746 45.9197 76.6271 45.5237C76.4043 45.1276 75.8844 44.9791 75.4884 45.2266Z" fill="#FED627"/>
<path d="M58.0857 32.3377H60.8285V43.0866H58.0857V32.3377ZM59.7542 27.5449C58.9085 27.3123 58.0399 27.8241 57.8114 28.6849C57.5828 29.5458 58.0857 30.4299 58.9314 30.6625C59.7771 30.8952 60.6457 30.3834 60.8742 29.5225C61.1028 28.6617 60.5999 27.7543 59.7542 27.5449ZM69.3085 43.3192C68.6456 43.3192 67.9828 43.2029 67.3656 42.9237C66.8171 42.6678 66.3371 42.2723 65.9714 41.7837V48.461H63.2971V32.3377H65.9485V33.8267C66.2914 33.2916 66.7714 32.8728 67.3428 32.5704C67.9371 32.2679 68.5999 32.105 69.2856 32.105C69.9485 32.105 70.5885 32.2446 71.2056 32.5006C71.8228 32.7565 72.3713 33.152 72.8285 33.6173C73.3085 34.1292 73.697 34.7341 73.9485 35.3855C74.2456 36.13 74.3828 36.8978 74.3599 37.6889C74.3828 38.4799 74.2228 39.2709 73.9256 40.0155C73.6513 40.6669 73.2628 41.2718 72.7828 41.7837C71.8913 42.7608 70.6113 43.3192 69.3085 43.3192ZM68.7599 40.7134C69.1485 40.7134 69.5371 40.6436 69.9028 40.4808C70.2456 40.3179 70.5656 40.1085 70.8399 39.8293C71.1142 39.5501 71.3199 39.2244 71.4571 38.8754C71.7542 38.1076 71.7542 37.2701 71.4571 36.5023C71.3199 36.1533 71.0913 35.8276 70.8399 35.5484C70.5656 35.2692 70.2456 35.0598 69.9028 34.8969C69.5371 34.7341 69.1485 34.6643 68.7599 34.6643C67.9828 34.6643 67.2285 34.99 66.6571 35.5484C66.3828 35.8276 66.1771 36.1533 66.0399 36.5023C65.7428 37.2701 65.7428 38.1076 66.0399 38.8522C66.1771 39.2011 66.3828 39.5269 66.6571 39.8061C67.2285 40.411 67.9828 40.7367 68.7599 40.7134ZM76.3256 32.3377H78.977V33.9896C79.2056 33.4079 79.5942 32.9193 80.1199 32.5936C80.6685 32.2912 81.2627 32.1283 81.9027 32.1516C82.2456 32.1516 82.5656 32.1981 82.8856 32.2679C83.1599 32.3377 83.4342 32.4308 83.6856 32.5704L82.7027 35.2692C82.5199 35.1529 82.3142 35.0598 82.1085 34.99C81.8342 34.9202 81.5599 34.8737 81.2856 34.8737C80.6685 34.8504 80.0742 35.0598 79.617 35.4553C79.2056 35.8509 78.9999 36.5023 78.9999 37.3864V43.0633H76.3256V32.3377ZM89.6513 43.3192C88.897 43.3192 88.1427 43.1796 87.4342 42.8772C86.7713 42.598 86.177 42.1792 85.6513 41.6673C84.6227 40.6204 84.0513 39.2011 84.0513 37.7121C84.0513 36.9676 84.1884 36.2231 84.4627 35.5251C84.737 34.8504 85.1256 34.2455 85.6284 33.7337C87.8456 31.5467 91.3656 31.5467 93.5827 33.7337C94.6113 34.7806 95.2056 36.1998 95.2056 37.6889C95.2056 38.4334 95.0684 39.1779 94.7713 39.8526C94.497 40.5273 94.0856 41.1322 93.6056 41.6441C93.1027 42.1559 92.5084 42.5747 91.8227 42.8539C91.1599 43.1564 90.4056 43.3192 89.6513 43.3192ZM89.6741 40.7134C90.0627 40.7134 90.4513 40.6436 90.817 40.4808C91.1599 40.3179 91.457 40.1085 91.7313 39.8526C92.0056 39.5734 92.2113 39.2477 92.3484 38.8987C92.6456 38.1309 92.6456 37.2933 92.3484 36.5488C92.2113 36.1998 92.0056 35.8741 91.7313 35.5949C91.457 35.3157 91.1599 35.1063 90.817 34.9667C90.0856 34.641 89.2627 34.641 88.5542 34.9667C88.2113 35.1296 87.9142 35.339 87.6399 35.5949C87.3656 35.8741 87.1599 36.1998 87.0227 36.5488C86.7256 37.3166 86.7256 38.1542 87.0227 38.8987C87.1599 39.2477 87.3656 39.5734 87.6399 39.8526C87.9142 40.1318 88.2113 40.3412 88.5542 40.4808C88.897 40.6204 89.2856 40.7134 89.6741 40.7134ZM39 32.3377H41.7428L43.8686 39.2011L46.3828 32.3377H48.76L51.2285 39.2011L53.4457 32.3377H56.1885L52.6 43.0866H50.0628L47.5485 36.0835L45.0114 43.0866H42.4286L39 32.3377Z" fill="#351A55"/>
</svg>
