<svg width="51" height="28" viewBox="0 0 51 28" fill="none" xmlns="http://www.w3.org/2000/svg">
<path d="M49.7581 6.93132H46.536V3.70887C46.536 1.6619 44.925 0 42.9615 0H3.57453C1.59427 0 0 1.6619 0 3.70887V24.138C0 26.185 1.61106 27.8469 3.57453 27.8469H42.9783C44.9585 27.8469 46.5528 26.185 46.5528 24.138V20.8142H49.7749C50.4462 20.8142 51 20.2468 51 19.5374V8.18788C51 7.4988 50.4462 6.93132 49.7581 6.93132ZM44.1027 25.3135H2.43337V2.51311H44.1027V25.3135Z" fill="#232026"/>
<path d="M9.06216 5.97949H5.21912V21.8486H9.06216V5.97949Z" fill="#232026"/>
<path d="M15.4058 5.97949H11.5627V21.8486H15.4058V5.97949Z" fill="#232026"/>
<path d="M21.7493 5.97949H17.9062V21.8486H21.7493V5.97949Z" fill="#232026"/>
<path d="M28.0928 5.97949H24.2498V21.8486H28.0928V5.97949Z" fill="#232026"/>
<path d="M34.4363 5.97949H30.5933V21.8486H34.4363V5.97949Z" fill="#232026"/>
<path d="M40.7798 5.97949H36.9368V21.8486H40.7798V5.97949Z" fill="#232026"/>
</svg>
