<svg width="60" height="60" viewBox="0 0 60 60" fill="none" xmlns="http://www.w3.org/2000/svg">
<path d="M33 29.9999C33 29.4065 32.8241 28.8265 32.4944 28.3332C32.1648 27.8398 31.6962 27.4553 31.1481 27.2282C30.5999 27.0012 29.9967 26.9418 29.4147 27.0575C28.8328 27.1733 28.2982 27.459 27.8787 27.8786C27.4591 28.2981 27.1734 28.8327 27.0576 29.4146C26.9419 29.9966 27.0013 30.5998 27.2284 31.1479C27.4554 31.6961 27.8399 32.1646 28.3333 32.4943C28.8266 32.8239 29.4067 32.9999 30 32.9999C30.7956 32.9999 31.5587 32.6838 32.1213 32.1212C32.6839 31.5586 33 30.7955 33 29.9999ZM30 30.9999C29.8022 30.9999 29.6089 30.9412 29.4444 30.8313C29.28 30.7215 29.1518 30.5653 29.0761 30.3826C29.0004 30.1998 28.9806 29.9988 29.0192 29.8048C29.0578 29.6108 29.153 29.4326 29.2929 29.2928C29.4327 29.1529 29.6109 29.0577 29.8049 29.0191C29.9989 28.9805 30.2 29.0003 30.3827 29.076C30.5654 29.1517 30.7216 29.2799 30.8315 29.4443C30.9413 29.6088 31 29.8021 31 29.9999C31 30.2651 30.8946 30.5194 30.7071 30.707C30.5196 30.8945 30.2652 30.9999 30 30.9999Z" fill="#232026"/>
<path d="M52.2789 39.4L36.9789 30.562C36.9929 30.378 37.0039 30.192 37.0039 29.997C36.9994 28.3037 36.3812 26.6694 35.2639 25.397C36.409 23.0995 37.0034 20.567 36.9999 18C36.9999 11.2 32.7099 5 27.9999 5C27.7347 5 27.4804 5.10536 27.2928 5.29289C27.1053 5.48043 26.9999 5.73478 26.9999 6V23.691C26.1571 24.0924 25.4029 24.6578 24.7813 25.3543C24.1597 26.0507 23.6833 26.8642 23.3799 27.747C20.8192 27.9018 18.3298 28.6509 16.1089 29.935C16.0719 29.956 16.0369 29.981 15.9999 30.003C15.9994 27.4812 16.68 25.0061 17.9698 22.8391C19.2597 20.6721 21.1109 18.8938 23.3279 17.692L22.3729 15.935C19.8403 17.3084 17.7254 19.3401 16.2517 21.8157C14.7779 24.2913 14 27.1189 13.9999 30C13.9999 30.446 14.0309 30.885 14.0669 31.322C13.0869 32.0968 12.1994 32.982 11.4219 33.96C10.4701 29.5221 11.1401 24.89 13.3104 20.9037C15.4808 16.9174 19.0078 13.8409 23.2519 12.232L22.5419 10.363C17.5466 12.2635 13.4632 15.9961 11.1227 20.801C8.78231 25.606 8.36078 31.1222 9.94394 36.227C9.83794 36.427 9.72593 36.627 9.62993 36.827C8.33493 39.595 8.22994 42.293 9.35494 44.227C9.48755 44.4567 9.70597 44.6243 9.96214 44.6929C10.2183 44.7615 10.4913 44.7256 10.7209 44.593L13.5209 42.974C16.6366 46.9463 21.081 49.6609 26.0377 50.6191C30.9943 51.5773 36.1302 50.7148 40.5019 48.19L39.5019 46.46C35.5888 48.717 30.9992 49.505 26.5573 48.6825C22.1154 47.8599 18.1123 45.4806 15.2669 41.972L17.9109 40.446C19.9995 42.8716 22.7685 44.614 25.859 45.4474C28.9495 46.2808 32.219 46.1667 35.2439 45.12L34.5889 43.229C32.0039 44.1261 29.2124 44.2442 26.5608 43.5687C23.9093 42.8931 21.5145 41.4536 19.6739 39.429L26.0439 35.75C27.2053 36.5582 28.585 36.9942 29.9999 37C30.457 36.9945 30.9124 36.9449 31.3599 36.852C32.7749 38.9949 34.6683 40.7799 36.8909 42.066C39.3243 43.4882 42.0866 44.251 44.9049 44.279C45.3049 44.279 45.7049 44.263 46.1049 44.229C49.1499 43.966 51.5359 42.705 52.6519 40.769C52.7178 40.6548 52.7605 40.5287 52.7774 40.3979C52.7944 40.2672 52.7853 40.1343 52.7507 40.0071C52.7161 39.8799 52.6568 39.7607 52.576 39.6565C52.4952 39.5523 52.3936 39.4652 52.2789 39.4ZM28.9999 7.146C31.9639 7.992 34.9999 12.436 34.9999 18C35.0042 20.0883 34.5609 22.1534 33.6999 24.056C33.4552 23.907 33.2014 23.7734 32.9399 23.656C32.8763 23.6265 32.8123 23.5978 32.7479 23.57C32.4873 23.4573 32.2201 23.3601 31.9479 23.279H31.9379C31.66 23.2015 31.3774 23.1418 31.0919 23.1C31.0211 23.0889 30.9501 23.0789 30.8789 23.07C30.2562 22.9753 29.6227 22.9753 28.9999 23.07V7.146ZM10.7149 42.29C10.4898 41.14 10.5821 39.9505 10.9819 38.849C11.3823 39.7104 11.8407 40.5436 12.3539 41.343L10.7149 42.29ZM14.0839 40.344C13.2879 39.1153 12.6369 37.7985 12.1439 36.42C12.787 35.401 13.5602 34.4701 14.4439 33.651C14.875 35.5042 15.6343 37.2653 16.6859 38.851L14.0839 40.344ZM18.4119 37.844C17.2733 36.1616 16.5172 34.2501 16.1969 32.244C16.4936 32.044 16.7976 31.8527 17.1089 31.67C18.9144 30.6233 20.9231 29.9754 22.9999 29.77V30C23.0031 30.3494 23.0325 30.698 23.0879 31.043C23.0999 31.124 23.1119 31.203 23.1269 31.283C23.188 31.6176 23.2729 31.9474 23.3809 32.27C23.3939 32.308 23.4119 32.344 23.4259 32.382C23.5326 32.6731 23.6586 32.9567 23.8029 33.231C23.8389 33.3 23.8729 33.369 23.9109 33.437C24.0765 33.7304 24.2627 34.0118 24.4679 34.279C24.4799 34.295 24.4879 34.313 24.4999 34.329L18.4119 37.844ZM26.7509 33.8C26.2025 33.3301 25.7622 32.7473 25.4599 32.0914C25.1577 31.4356 25.0008 30.7221 24.9999 30C24.9998 29.6404 25.0394 29.2819 25.1179 28.931C25.3011 28.0995 25.6935 27.3285 26.2581 26.6911C26.8226 26.0538 27.5406 25.5712 28.3439 25.289C28.5789 25.2063 28.82 25.1421 29.0649 25.097C29.1769 25.076 29.2899 25.065 29.4029 25.052C29.5309 25.036 29.6599 25.024 29.7909 25.018C29.9219 25.012 30.0679 25.018 30.2059 25.018C30.3295 25.0219 30.4527 25.0332 30.5749 25.052C30.8579 25.0851 31.1375 25.142 31.4109 25.222C31.4949 25.246 31.5799 25.264 31.6619 25.293C31.7979 25.34 31.9279 25.401 32.0619 25.459C32.1933 25.5164 32.3215 25.5809 32.4459 25.652C32.5459 25.705 32.6389 25.76 32.7319 25.82C32.9588 25.9654 33.1732 26.1293 33.3729 26.31C33.8858 26.7782 34.2953 27.3481 34.5755 27.9835C34.8556 28.6188 35.0002 29.3056 34.9999 30C35.0024 30.307 34.9746 30.6135 34.9169 30.915C34.7564 31.7779 34.3716 32.5834 33.801 33.2505C33.2305 33.9175 32.4945 34.4226 31.6668 34.715C30.8392 35.0074 29.9492 35.0768 29.0863 34.9162C28.2234 34.7555 27.4179 34.3706 26.7509 33.8ZM45.9279 42.235C43.12 42.4184 40.3214 41.7566 37.8929 40.335C36.0854 39.2896 34.5218 37.8703 33.3069 36.172C33.3709 36.137 33.4249 36.089 33.4879 36.053C33.7202 35.9191 33.9446 35.7718 34.1599 35.612C34.2509 35.545 34.3419 35.479 34.4289 35.412C34.6858 35.2021 34.9278 34.9746 35.1529 34.731C35.1769 34.705 35.2049 34.683 35.2279 34.656C35.4726 34.3779 35.6949 34.081 35.8929 33.768C35.9439 33.688 35.9859 33.605 36.0339 33.524C36.1771 33.279 36.3054 33.0255 36.4179 32.765C36.4419 32.709 36.4769 32.665 36.4999 32.604L50.2849 40.564C49.0567 41.5865 47.5249 42.1733 45.9279 42.235Z" fill="#232026"/>
<path d="M30 0C24.0666 0 18.2664 1.75947 13.3329 5.05591C8.39943 8.35235 4.55426 13.0377 2.28363 18.5195C0.0129986 24.0013 -0.581102 30.0333 0.576455 35.8527C1.73401 41.6721 4.59123 47.0176 8.78681 51.2132C12.9824 55.4088 18.3279 58.266 24.1473 59.4235C29.9667 60.5811 35.9987 59.987 41.4805 57.7164C46.9623 55.4457 51.6477 51.6006 54.9441 46.6671C58.2405 41.7336 60 35.9334 60 30C60 22.0435 56.8393 14.4129 51.2132 8.78679C45.5871 3.1607 37.9565 0 30 0ZM30 58C24.4621 58 19.0486 56.3578 14.444 53.2811C9.83947 50.2045 6.25064 45.8315 4.13139 40.7151C2.01213 35.5988 1.45764 29.9689 2.53803 24.5375C3.61841 19.106 6.28515 14.1169 10.201 10.201C14.1169 6.28514 19.106 3.6184 24.5375 2.53801C29.969 1.45763 35.5988 2.01212 40.7152 4.13137C45.8315 6.25063 50.2045 9.83946 53.2812 14.444C56.3578 19.0486 58 24.4621 58 30C58 37.4261 55.05 44.548 49.799 49.799C44.548 55.05 37.4261 58 30 58Z" fill="#232026"/>
<path d="M49 30.0002C49.0001 31.2866 48.8708 32.5697 48.614 33.8302L50.574 34.2302C51.4571 29.9088 50.9596 25.4191 49.1519 21.3959C47.3441 17.3727 44.3175 14.0194 40.5 11.8102L39.5 13.5402C42.3839 15.2142 44.7787 17.6149 46.4456 20.503C48.1125 23.391 48.9932 26.6656 49 30.0002Z" fill="#232026"/>
<path d="M44 30H46C45.9991 27.7491 45.5239 25.5238 44.6054 23.4689C43.6868 21.414 42.3456 19.5757 40.669 18.074L39.335 19.564C40.802 20.8782 41.9756 22.4868 42.7794 24.2849C43.5832 26.0831 43.9991 28.0304 44 30Z" fill="#232026"/>
</svg>
